RobotoAvar2-opsz144-wdth151-wght100dbedits.ufo
<glyph name="exclam" format="2">
  <advance width="518"/>
  <unicode hex="0021"/>
  <outline>
    <contour>
      <point x="231" y="16" type="qcurve" smooth="yes"/>
      <point x="231" y="27"/>
      <point x="245" y="42"/>
      <point x="259" y="42" type="qcurve" smooth="yes"/>
      <point x="273" y="42"/>
      <point x="286" y="27"/>
      <point x="286" y="16" type="qcurve" smooth="yes"/>
      <point x="286" y="5"/>
      <point x="273" y="-10"/>
      <point x="259" y="-10" type="qcurve" smooth="yes"/>
      <point x="245" y="-10"/>
      <point x="231" y="5"/>
    </contour>
    <contour>
      <point x="254" y="410" type="line"/>
      <point x="254" y="1456" type="line"/>
      <point x="265" y="1456" type="line"/>
      <point x="264" y="410" type="line"/>
    </contour>
  </outline>
</glyph>
<glyph name="numbersign" format="2">
  <advance width="1827"/>
  <unicode hex="0023"/>
  <outline>
    <contour>
      <point x="322.65584415584414" y="-20.0" type="line"/>
      <point x="759.6558441558442" y="1501.0" type="line"/>
      <point x="770.2142857142857" y="1501.0" type="line"/>
      <point x="333.2142857142857" y="-20.0" type="line"/>
    </contour>
    <contour>
      <point x="1036.9831822853405" y="-20.0" type="line"/>
      <point x="1473.9831822853405" y="1501.0" type="line"/>
      <point x="1484.5416238437822" y="1501.0" type="line"/>
      <point x="1047.5416238437822" y="-20.0" type="line"/>
    </contour>
    <contour>
      <point x="102" y="467" type="line"/>
      <point x="101.5" y="478.3829787234043" type="line"/>
      <point x="1650.8273381294964" y="478.3829787234043" type="line"/>
      <point x="1651" y="467" type="line"/>
    </contour>
    <contour>
      <point x="153" y="1002" type="line"/>
      <point x="152.5" y="1013.3829787234042" type="line"/>
      <point x="1700.8273381294964" y="1013.3829787234042" type="line"/>
      <point x="1701" y="1002" type="line"/>
    </contour>
  </outline>
</glyph>
<glyph name="dollar" format="2">
  <advance width="972"/>
  <unicode hex="0024"/>
  <outline>
    <contour>
      <point x="58" y="381" type="qcurve" smooth="yes"/>
      <point x="58" y="392" type="line"/>
      <point x="69" y="392" type="line"/>
      <point x="69" y="381" type="line" smooth="yes"/>
      <point x="69" y="201"/>
      <point x="299" y="4"/>
      <point x="485" y="4" type="qcurve" smooth="yes"/>
      <point x="669" y="4"/>
      <point x="890" y="202"/>
      <point x="890" y="365" type="qcurve" smooth="yes"/>
      <point x="890" y="533"/>
      <point x="678" y="676"/>
      <point x="489" y="730" type="qcurve" smooth="yes"/>
      <point x="291" y="789"/>
      <point x="85" y="946"/>
      <point x="85" y="1099" type="qcurve" smooth="yes"/>
      <point x="85" y="1260"/>
      <point x="285" y="1458"/>
      <point x="469" y="1458" type="qcurve" smooth="yes"/>
      <point x="647" y="1458"/>
      <point x="864" y="1249"/>
      <point x="864" y="1076" type="qcurve" smooth="yes"/>
      <point x="864" y="1065" type="line"/>
      <point x="853" y="1065" type="line"/>
      <point x="853" y="1076" type="line" smooth="yes"/>
      <point x="853" y="1244"/>
      <point x="643" y="1448"/>
      <point x="468" y="1447" type="qcurve" smooth="yes"/>
      <point x="291" y="1447"/>
      <point x="95" y="1260"/>
      <point x="95" y="1099" type="qcurve" smooth="yes"/>
      <point x="95" y="949"/>
      <point x="296" y="798"/>
      <point x="493" y="741" type="qcurve" smooth="yes"/>
      <point x="683" y="686"/>
      <point x="901" y="539"/>
      <point x="901" y="361" type="qcurve" smooth="yes"/>
      <point x="901" y="196"/>
      <point x="671" y="-6"/>
      <point x="484" y="-6" type="qcurve" smooth="yes"/>
      <point x="297" y="-6"/>
      <point x="58" y="197"/>
    </contour>
    <contour>
      <point x="487" y="-170" type="line"/>
      <point x="485" y="738" type="line"/>
      <point x="496" y="738" type="line"/>
      <point x="496" y="421" type="line"/>
      <point x="497" y="421" type="line"/>
      <point x="497" y="-170" type="line"/>
    </contour>
    <contour>
      <point x="485" y="738" type="line"/>
      <point x="485" y="1452" type="line"/>
      <point x="485" y="1452" type="line"/>
      <point x="485" y="1586" type="line"/>
      <point x="496" y="1586" type="line"/>
      <point x="496" y="738" type="line"/>
    </contour>
  </outline>
</glyph>
<glyph name="ampersand" format="2">
  <advance width="1315"/>
  <unicode hex="0026"/>
  <outline>
    <contour>
      <point x="114.56382978723404" y="380.0" type="qcurve" smooth="yes"/>
      <point x="114.56382978723404" y="508.92042000552647"/>
      <point x="281" y="706"/>
      <point x="409" y="767" type="qcurve" smooth="yes"/>
      <point x="563" y="841" type="line" smooth="yes"/>
      <point x="697" y="905"/>
      <point x="822" y="1105"/>
      <point x="822" y="1215" type="qcurve" smooth="yes"/>
      <point x="822" y="1332"/>
      <point x="660" y="1475"/>
      <point x="532.4269095362008" y="1475.2337662337663" type="qcurve" smooth="yes"/>
      <point x="403" y="1475"/>
      <point x="253" y="1326"/>
      <point x="253" y="1214" type="qcurve" smooth="yes"/>
      <point x="253" y="1098"/>
      <point x="390" y="903"/>
      <point x="490" y="808" type="qcurve" smooth="yes"/>
      <point x="1345.2974131333233" y="0.0" type="line"/>
      <point x="1329" y="0" type="line"/>
      <point x="465" y="816" type="line" smooth="yes"/>
      <point x="374" y="901"/>
      <point x="243" y="1097"/>
      <point x="243" y="1214" type="qcurve" smooth="yes"/>
      <point x="243" y="1331"/>
      <point x="397.7039545484364" y="1486.0"/>
      <point x="533.8297872340426" y="1486.0" type="qcurve" smooth="yes"/>
      <point x="667" y="1486"/>
      <point x="832" y="1336"/>
      <point x="832" y="1215" type="qcurve" smooth="yes"/>
      <point x="832" y="1102"/>
      <point x="705" y="895"/>
      <point x="559.5896209255309" y="827.0615715220032" type="qcurve" smooth="yes"/>
      <point x="408" y="756" type="line" smooth="yes"/>
      <point x="295" y="703"/>
      <point x="125.32978723404256" y="501.7024039789997"/>
      <point x="125.32978723404256" y="380.0" type="qcurve" smooth="yes"/>
      <point x="125.32978723404256" y="222.26802984249792"/>
      <point x="341" y="-9"/>
      <point x="569" y="-9" type="qcurve" smooth="yes"/>
      <point x="853" y="-9"/>
      <point x="1243" y="392"/>
      <point x="1243" y="674" type="qcurve"/>
      <point x="1255" y="674" type="line"/>
      <point x="1255" y="391"/>
      <point x="860" y="-20"/>
      <point x="571" y="-20" type="qcurve" smooth="yes"/>
      <point x="338" y="-20"/>
      <point x="114.56382978723404" y="216.74468085106383"/>
    </contour>
  </outline>
</glyph>
<glyph name="quotesingle" format="2">
  <advance width="492.5359712230216"/>
  <unicode hex="0027"/>
  <outline>
    <contour>
      <point x="242.0867901423542" y="966.0" type="line"/>
      <point x="241.55487524873718" y="1320.0" type="line"/>
      <point x="241.55487524873718" y="1456.0" type="line"/>
      <point x="252.6612582274606" y="1456.0" type="line"/>
      <point x="252.6612582274606" y="1320.0" type="line"/>
      <point x="252.12934333384356" y="966.0" type="line"/>
    </contour>
  </outline>
</glyph>
<glyph name="comma" format="2">
  <advance width="767"/>
  <unicode hex="002C"/>
  <outline>
    <contour>
      <point x="202.8959895913057" y="-247.76940150007653" type="line"/>
      <point x="292" y="-207"/>
      <point x="432.12283789989283" y="-50.520205112505735"/>
      <point x="433.10156130414816" y="70.0" type="qcurve" smooth="yes"/>
      <point x="433.10156130414816" y="220.0" type="line"/>
      <point x="443.78241236797794" y="220.0" type="line"/>
      <point x="443.78241236797794" y="70.0" type="line" smooth="yes"/>
      <point x="443.78241236797794" y="-56.13309352517986"/>
      <point x="297.8004745140058" y="-215.25730904637993"/>
      <point x="211.42652686361546" y="-256.74468085106383" type="qcurve"/>
    </contour>
  </outline>
</glyph>
<glyph name="hyphen" format="2">
  <advance width="957"/>
  <unicode hex="002D"/>
  <outline>
    <contour>
      <point x="112.5" y="632.7865452318995" type="line"/>
      <point x="113" y="644" type="line"/>
      <point x="845" y="644" type="line"/>
      <point x="844.8453237410072" y="632.7865452318995" type="line"/>
    </contour>
  </outline>
</glyph>
<glyph name="period" format="2">
  <advance width="670.431654676259"/>
  <unicode hex="002E"/>
  <outline>
    <contour>
      <point x="307.981784784938" y="16.872340425531917" type="qcurve" smooth="yes"/>
      <point x="307.981784784938" y="27.765957446808514"/>
      <point x="321.15199755089543" y="44.0"/>
      <point x="335.2158273381295" y="44.0" type="qcurve" smooth="yes"/>
      <point x="349.27965712536354" y="44.0"/>
      <point x="362.449869891321" y="27.765957446808514"/>
      <point x="362.449869891321" y="16.872340425531917" type="qcurve" smooth="yes"/>
      <point x="362.449869891321" y="6.957446808510639"/>
      <point x="349.27965712536354" y="-9.27659574468085"/>
      <point x="335.2158273381295" y="-9.27659574468085" type="qcurve" smooth="yes"/>
      <point x="321.15199755089543" y="-9.27659574468085"/>
      <point x="307.981784784938" y="6.957446808510639"/>
    </contour>
  </outline>
</glyph>
<glyph name="seven" format="2">
  <advance width="1378"/>
  <unicode hex="0037"/>
  <outline>
    <contour>
      <point x="318" y="0" type="line"/>
      <point x="1245" y="1445" type="line"/>
      <point x="150" y="1445" type="line"/>
      <point x="150" y="1456" type="line"/>
      <point x="1256" y="1456" type="line"/>
      <point x="1256" y="1441" type="line"/>
      <point x="332" y="0" type="line"/>
    </contour>
  </outline>
</glyph>
<glyph name="eight" format="2">
  <advance width="1476"/>
  <unicode hex="0038"/>
  <outline>
    <contour>
      <point x="137" y="373" type="qcurve" smooth="yes"/>
      <point x="137" y="532"/>
      <point x="425" y="737"/>
      <point x="613" y="747" type="qcurve"/>
      <point x="613" y="748" type="line"/>
      <point x="469" y="757"/>
      <point x="190" y="931"/>
      <point x="190" y="1106" type="qcurve" smooth="yes"/>
      <point x="190" y="1279"/>
      <point x="489" y="1486"/>
      <point x="741" y="1486" type="qcurve" smooth="yes"/>
      <point x="996" y="1486"/>
      <point x="1287" y="1280"/>
      <point x="1287" y="1106" type="qcurve" smooth="yes"/>
      <point x="1287" y="931"/>
      <point x="1009" y="757"/>
      <point x="864" y="748" type="qcurve"/>
      <point x="864" y="747" type="line"/>
      <point x="1054" y="738"/>
      <point x="1340" y="532"/>
      <point x="1340" y="373" type="qcurve" smooth="yes"/>
      <point x="1340" y="214"/>
      <point x="1034" y="-30"/>
      <point x="741" y="-30" type="qcurve" smooth="yes"/>
      <point x="448" y="-30"/>
      <point x="137" y="214"/>
    </contour>
    <contour>
      <point x="148" y="373" type="qcurve" smooth="yes"/>
      <point x="148" y="216"/>
      <point x="451" y="-20"/>
      <point x="741" y="-20" type="qcurve" smooth="yes"/>
      <point x="1031" y="-20"/>
      <point x="1329" y="217"/>
      <point x="1329" y="373" type="qcurve" smooth="yes"/>
      <point x="1329" y="526"/>
      <point x="1023" y="743"/>
      <point x="741" y="743" type="qcurve" smooth="yes"/>
      <point x="458" y="743"/>
      <point x="148" y="527"/>
    </contour>
    <contour>
      <point x="201" y="1105" type="qcurve" smooth="yes"/>
      <point x="201" y="936"/>
      <point x="504" y="753"/>
      <point x="741" y="753" type="qcurve" smooth="yes"/>
      <point x="980" y="753"/>
      <point x="1276" y="936"/>
      <point x="1276" y="1105" type="qcurve" smooth="yes"/>
      <point x="1276" y="1275"/>
      <point x="992" y="1475"/>
      <point x="741" y="1475" type="qcurve" smooth="yes"/>
      <point x="492" y="1475"/>
      <point x="201" y="1275"/>
    </contour>
  </outline>
</glyph>
<glyph name="nine" format="2">
  <advance width="1492"/>
  <unicode hex="0039"/>
  <outline>
    <contour>
      <point x="113.41489361702128" y="994.9856115107914" type="qcurve" smooth="yes"/>
      <point x="113.41489361702128" y="1223.578600949028"/>
      <point x="413" y="1486"/>
      <point x="714.7538649931118" y="1486.0" type="qcurve" smooth="yes"/>
      <point x="1017" y="1486"/>
      <point x="1370.3069034134394" y="1177.1063829787233"/>
      <point x="1370.3069034134394" y="842.0" type="qcurve" smooth="yes"/>
      <point x="1370.3069034134394" y="812.0" type="line" smooth="yes"/>
      <point x="1370.3069034134394" y="457.6781723557324"/>
      <point x="805.9690800551048" y="0.0"/>
      <point x="251.1285779886729" y="0.0" type="qcurve" smooth="yes"/>
      <point x="227.32282259298944" y="0.0" type="line"/>
      <point x="227.32282259298944" y="10.922077922077932" type="line"/>
      <point x="250.83001683759377" y="10.922077922077932" type="line" smooth="yes"/>
      <point x="798" y="11"/>
      <point x="1359.4558395836523" y="460.0611510791367"/>
      <point x="1359.4558395836523" y="821.5274937828129" type="qcurve" smooth="yes"/>
      <point x="1359.4558395836523" y="832.4725062171871" type="line" smooth="yes"/>
      <point x="1359.4558395836523" y="1171.44846642719"/>
      <point x="1009" y="1475"/>
      <point x="713.3509872952701" y="1475.077922077922" type="qcurve" smooth="yes"/>
      <point x="418" y="1475"/>
      <point x="124.30851063829789" y="1215.8633501046636"/>
      <point x="124.30851063829789" y="994.9856115107914" type="qcurve" smooth="yes"/>
      <point x="124.30851063829789" y="770.2258613115035"/>
      <point x="420.7181899686109" y="516.8933009436607"/>
      <point x="713.3509872952701" y="516.8933009436607" type="qcurve" smooth="yes"/>
      <point x="996.1001071483238" y="516.8933009436607"/>
      <point x="1351" y="788"/>
      <point x="1350" y="991" type="qcurve"/>
      <point x="1360" y="991" type="line"/>
      <point x="1361" y="776"/>
      <point x="996" y="505"/>
      <point x="708.103393162784" y="505.9712230215827" type="qcurve" smooth="yes"/>
      <point x="416" y="507"/>
      <point x="113.41489361702128" y="765.4138986682993"/>
    </contour>
  </outline>
</glyph>
<glyph name="equal" format="2">
  <advance width="1281.3741007194244"/>
  <unicode hex="003D"/>
  <outline>
    <contour>
      <point x="94.5" y="460.27659574468083" type="line"/>
      <point x="94.5" y="470.72340425531917" type="line"/>
      <point x="1186.8741007194244" y="470.72340425531917" type="line"/>
      <point x="1186.8741007194244" y="460.27659574468083" type="line"/>
    </contour>
    <contour>
      <point x="94.5" y="855.2765957446809" type="line"/>
      <point x="94.5" y="865.7234042553191" type="line"/>
      <point x="1186.8741007194244" y="865.7234042553191" type="line"/>
      <point x="1186.8741007194244" y="855.2765957446809" type="line"/>
    </contour>
  </outline>
</glyph>
<glyph name="at" format="2">
  <advance width="2581"/>
  <unicode hex="0040"/>
  <outline>
    <contour>
      <point x="802" y="378" type="qcurve" smooth="yes"/>
      <point x="802" y="637"/>
      <point x="1154" y="1052"/>
      <point x="1351" y="1052" type="qcurve" smooth="yes"/>
      <point x="1461" y="1052"/>
      <point x="1613" y="991"/>
      <point x="1661" y="946" type="qcurve"/>
      <point x="1676.761977651921" y="946.0" type="line"/>
      <point x="1549" y="350" type="line" smooth="yes"/>
      <point x="1516" y="198"/>
      <point x="1718" y="10"/>
      <point x="1881" y="10" type="qcurve" smooth="yes"/>
      <point x="2095" y="10"/>
      <point x="2329.7909842338895" y="365.2196739430782"/>
      <point x="2329.7909842338895" y="650.0" type="qcurve" smooth="yes"/>
      <point x="2329.7909842338895" y="995.2254766510085"/>
      <point x="1788.2785458839337" y="1475.1298701298701"/>
      <point x="1347.230215827338" y="1475.1298701298701" type="qcurve" smooth="yes"/>
      <point x="890.8418727300558" y="1475.1298701298701"/>
      <point x="250.11633246594215" y="899.3752417794971"/>
      <point x="250.11633246594215" y="460.0" type="qcurve" smooth="yes"/>
      <point x="250.11633246594215" y="47.32743851892788"/>
      <point x="785.1966231380742" y="-435.12987012987014"/>
      <point x="1243.021582733813" y="-435.12987012987014" type="qcurve" smooth="yes"/>
      <point x="1497.3561151079136" y="-435.12987012987014"/>
      <point x="1743.7313837241895" y="-389.6235167709988"/>
      <point x="1847.841726618705" y="-345.12987012987014" type="qcurve"/>
      <point x="1847" y="-356" type="line"/>
      <point x="1743" y="-400"/>
      <point x="1503" y="-446"/>
      <point x="1246" y="-446" type="qcurve" smooth="yes"/>
      <point x="782" y="-446"/>
      <point x="238.6063829787234" y="40.0"/>
      <point x="238.6063829787234" y="460.0" type="qcurve" smooth="yes"/>
      <point x="238.6063829787234" y="905.4468085106383"/>
      <point x="886" y="1486"/>
      <point x="1344.1471758763203" y="1486.0" type="qcurve" smooth="yes"/>
      <point x="1790" y="1486"/>
      <point x="2339.0689575998776" y="1000.0"/>
      <point x="2339.0689575998776" y="650.0" type="qcurve" smooth="yes"/>
      <point x="2339.0689575998776" y="360.0"/>
      <point x="2102" y="0"/>
      <point x="1880" y="0" type="qcurve" smooth="yes"/>
      <point x="1711" y="0"/>
      <point x="1519" y="177"/>
      <point x="1531" y="293" type="qcurve"/>
      <point x="1500" y="168"/>
      <point x="1255" y="0"/>
      <point x="1091.0506658502984" y="0.0" type="qcurve" smooth="yes"/>
      <point x="948.7172049594367" y="0.0"/>
      <point x="802" y="188"/>
    </contour>
    <contour>
      <point x="813" y="378" type="qcurve" smooth="yes"/>
      <point x="813" y="198"/>
      <point x="959" y="15"/>
      <point x="1099.086471082874" y="13.948472390918425" type="qcurve" smooth="yes"/>
      <point x="1255" y="13"/>
      <point x="1505.449460381957" y="191.52680497215934"/>
      <point x="1532.0253060883706" y="326.13844000787213" type="qcurve" smooth="yes"/>
      <point x="1661.9099447162357" y="931.9606185181725" type="line"/>
      <point x="1612.465891448212" y="977.3980321683521"/>
      <point x="1458" y="1040"/>
      <point x="1348" y="1040" type="qcurve" smooth="yes"/>
      <point x="1159" y="1040"/>
      <point x="813" y="634"/>
    </contour>
  </outline>
</glyph>
<glyph name="A" format="2">
  <advance width="1686"/>
  <unicode hex="0041"/>
  <anchor x="502.4391012497184" y="0.0" name="bottom"/>
  <anchor x="953.8847524603068" y="0.0" name="ogonek"/>
  <anchor x="511.0768204720339" y="1456.0" name="top"/>
  <anchor x="56.5244969577099" y="1074.0" name="tonos"/>
  <outline>
    <contour>
      <point x="66" y="0" type="line"/>
      <point x="828" y="1473" type="line"/>
      <point x="840" y="1473" type="line"/>
      <point x="1619" y="0" type="line"/>
      <point x="1606" y="0" type="line"/>
      <point x="836" y="1466" type="line" smooth="yes"/>
      <point x="836" y="1466"/>
      <point x="836" y="1466"/>
      <point x="836" y="1466" type="qcurve"/>
      <point x="833" y="1466" type="line"/>
      <point x="833" y="1466"/>
      <point x="833" y="1466"/>
      <point x="833" y="1466" type="qcurve" smooth="yes"/>
      <point x="79" y="0" type="line"/>
    </contour>
    <contour>
      <point x="305" y="458" type="line"/>
      <point x="313" y="469" type="line"/>
      <point x="1365" y="469" type="line"/>
      <point x="1371" y="458" type="line"/>
    </contour>
  </outline>
</glyph>
<glyph name="B" format="2">
  <advance width="1491.6585795193632"/>
  <unicode hex="0042"/>
  <anchor x="493.9076228378999" y="0.0" name="bottom"/>
  <anchor x="493.9076228378999" y="1456.0" name="top"/>
  <outline>
    <contour>
      <point x="207.5" y="0.0" type="line"/>
      <point x="207.5" y="1456.0" type="line"/>
      <point x="972.37134547681" y="1456.0" type="line" smooth="yes"/>
      <point x="1114.0734731363846" y="1456.0"/>
      <point x="1316.1585795193632" y="1270.0"/>
      <point x="1316.1585795193632" y="1109.935064935065" type="qcurve" smooth="yes"/>
      <point x="1316.1585795193632" y="951.9574468085107"/>
      <point x="1184.37134547681" y="788.2647140093949"/>
      <point x="1082.6266646257461" y="768.0" type="qcurve"/>
      <point x="1082.6266646257461" y="764.0" type="line"/>
      <point x="1206.3193974248618" y="747.6548770378557"/>
      <point x="1354.1585795193632" y="550.2127659574468"/>
      <point x="1354.1585795193632" y="385.9090909090909" type="qcurve" smooth="yes"/>
      <point x="1354.1585795193632" y="220.0"/>
      <point x="1202.7330476044697" y="0.0"/>
      <point x="1027.8181539874483" y="0.0" type="qcurve" smooth="yes"/>
    </contour>
    <contour>
      <point x="218.35106382978725" y="10.922077922077932" type="line"/>
      <point x="1027.8181539874483" y="10.922077922077932" type="line" smooth="yes"/>
      <point x="1196.324647493942" y="10.922077922077932"/>
      <point x="1343.2649624980868" y="223.05194805194807"/>
      <point x="1343.2649624980868" y="385.9090909090909" type="qcurve" smooth="yes"/>
      <point x="1343.2649624980868" y="560.5531914893618"/>
      <point x="1174.8819837746823" y="759.8701298701299"/>
      <point x="1027.8181539874483" y="759.8701298701299" type="qcurve" smooth="yes"/>
      <point x="213.7127659574468" y="759.8701298701299" type="line"/>
      <point x="213.7127659574468" y="770.7402597402597" type="line"/>
      <point x="1027.0389332082275" y="770.7402597402597" type="line" smooth="yes"/>
      <point x="1140.9905773088078" y="770.7402597402597"/>
      <point x="1305.2649624980868" y="933.5744680851063"/>
      <point x="1305.2649624980868" y="1109.935064935065" type="qcurve" smooth="yes"/>
      <point x="1305.2649624980868" y="1264.7402597402597"/>
      <point x="1109.7371923958483" y="1445.077922077922"/>
      <point x="972.37134547681" y="1445.077922077922" type="qcurve" smooth="yes"/>
      <point x="218.35106382978725" y="1445.077922077922" type="line"/>
    </contour>
  </outline>
</glyph>
<glyph name="C" format="2">
  <advance width="1692.8407316699831"/>
  <unicode hex="0043"/>
  <anchor x="590.6927904484922" y="0.0" name="bottom"/>
  <anchor x="600.6927904484922" y="1456.0" name="top"/>
  <outline>
    <contour>
      <point x="152.5" y="707.9532374100719" type="qcurve" smooth="yes"/>
      <point x="152.5" y="748.0467625899281" type="line" smooth="yes"/>
      <point x="152.5" y="1090.0988825960508"/>
      <point x="545.8700443900199" y="1486.0"/>
      <point x="882.6712077146793" y="1486.0" type="qcurve" smooth="yes"/>
      <point x="1206.1943976733507" y="1486.0"/>
      <point x="1571.3407316699831" y="1205.8936170212767"/>
      <point x="1571.3407316699831" y="1000.0" type="qcurve" smooth="yes"/>
      <point x="1571.3407316699831" y="990.0" type="line"/>
      <point x="1560.4045614572171" y="990.0" type="line"/>
      <point x="1560.4045614572171" y="1000.0" type="line" smooth="yes"/>
      <point x="1560.4045614572171" y="1200.3777286543245"/>
      <point x="1205.8191678213109" y="1474.922077922078"/>
      <point x="884.7755242614419" y="1474.922077922078" type="qcurve" smooth="yes"/>
      <point x="552.5293425386798" y="1474.922077922078"/>
      <point x="164.45744680851064" y="1096.6089881341682"/>
      <point x="164.45744680851064" y="759.9712230215828" type="qcurve" smooth="yes"/>
      <point x="164.45744680851064" y="696.0287769784172" type="line" smooth="yes"/>
      <point x="164.45744680851064" y="369.4254156221858"/>
      <point x="552.7759556378109" y="-18.922077922077932"/>
      <point x="896.5202051125058" y="-18.922077922077932" type="qcurve" smooth="yes"/>
      <point x="1211.578485650275" y="-18.922077922077932"/>
      <point x="1558.33948624466" y="239.4237338507199"/>
      <point x="1558.7031226082963" y="456.0" type="qcurve" smooth="yes"/>
      <point x="1559.430535483191" y="466.0" type="line"/>
      <point x="1570.366705695957" y="466.0" type="line"/>
      <point x="1570.3407316699831" y="456.0" type="line" smooth="yes"/>
      <point x="1568.8425277462472" y="235.49378281293176"/>
      <point x="1216.9744474108472" y="-30.0"/>
      <point x="894.4158885657432" y="-30.0" type="qcurve" smooth="yes"/>
      <point x="548.8062146027859" y="-30.0"/>
      <point x="152.5" y="367.85856421245984"/>
    </contour>
  </outline>
</glyph>
<glyph name="E" format="2">
  <advance width="1464.1735802847084"/>
  <unicode hex="0045"/>
  <anchor x="582.3839736721261" y="0.0" name="bottom"/>
  <anchor x="964.6118169294352" y="0.0" name="ogonek"/>
  <anchor x="582.7031226082963" y="1456.0" name="top"/>
  <anchor x="-34.56382978723404" y="1074.0" name="tonos"/>
  <outline>
    <contour>
      <point x="207.5" y="0.0" type="line"/>
      <point x="207.5" y="1456.0" type="line"/>
      <point x="1348.6735802847084" y="1456.0" type="line"/>
      <point x="1348.6735802847084" y="1445.077922077922" type="line"/>
      <point x="218.43617021276597" y="1445.077922077922" type="line"/>
      <point x="218.43617021276597" y="10.922077922077932" type="line"/>
      <point x="1358.6735802847084" y="10.922077922077932" type="line"/>
      <point x="1358.6735802847084" y="0.0" type="line"/>
    </contour>
    <contour>
      <point x="213.58510638297872" y="747.974025974026" type="line"/>
      <point x="213.58510638297872" y="758.8961038961039" type="line"/>
      <point x="1256.6735802847084" y="758.8961038961039" type="line"/>
      <point x="1256.6735802847084" y="747.974025974026" type="line"/>
    </contour>
  </outline>
</glyph>
<glyph name="G" format="2">
  <advance width="1713"/>
  <unicode hex="0047"/>
  <anchor x="614.3516761059238" y="0.0" name="bottom"/>
  <anchor x="604.4175723251186" y="1456.0" name="top"/>
  <outline>
    <contour>
      <point x="153" y="682" type="qcurve" smooth="yes"/>
      <point x="153" y="774" type="line" smooth="yes"/>
      <point x="153" y="1107"/>
      <point x="545" y="1487"/>
      <point x="890" y="1487" type="qcurve" smooth="yes"/>
      <point x="1198" y="1487"/>
      <point x="1547" y="1221"/>
      <point x="1547" y="1042" type="qcurve" smooth="yes"/>
      <point x="1547" y="1030" type="line"/>
      <point x="1536" y="1030" type="line"/>
      <point x="1536" y="1040" type="line" smooth="yes"/>
      <point x="1536" y="1213"/>
      <point x="1198" y="1476"/>
      <point x="890" y="1476" type="qcurve" smooth="yes"/>
      <point x="548" y="1476"/>
      <point x="164" y="1101"/>
      <point x="164" y="774" type="qcurve" smooth="yes"/>
      <point x="164" y="682" type="line" smooth="yes"/>
      <point x="164" y="356"/>
      <point x="550" y="-20"/>
      <point x="913" y="-20" type="qcurve" smooth="yes"/>
      <point x="1144" y="-20"/>
      <point x="1445" y="93"/>
      <point x="1536" y="165" type="qcurve"/>
      <point x="1536" y="718" type="line"/>
      <point x="776" y="718" type="line"/>
      <point x="776" y="728" type="line"/>
      <point x="1547" y="728" type="line"/>
      <point x="1547" y="160" type="line"/>
      <point x="1466" y="90"/>
      <point x="1147" y="-32"/>
      <point x="909" y="-32" type="qcurve" smooth="yes"/>
      <point x="548" y="-32"/>
      <point x="153" y="346"/>
    </contour>
  </outline>
</glyph>
<glyph name="H" format="2">
  <advance width="1696"/>
  <unicode hex="0048"/>
  <anchor x="904.5908464717588" y="0.0" name="bottom"/>
  <anchor x="904.5908464717588" y="1100.0" name="center"/>
  <anchor x="904.5908464717588" y="1456.0" name="top"/>
  <anchor x="1482.410990356651" y="0.0" name="cy_descender"/>
  <anchor x="-53.50267870809735" y="1074.0" name="tonos"/>
  <outline>
    <contour>
      <point x="207" y="0" type="line"/>
      <point x="207" y="1456" type="line"/>
      <point x="218" y="1456" type="line"/>
      <point x="218" y="0" type="line"/>
    </contour>
    <contour>
      <point x="213" y="753" type="line"/>
      <point x="213" y="764" type="line"/>
      <point x="1481" y="764" type="line"/>
      <point x="1481" y="753" type="line"/>
    </contour>
    <contour>
      <point x="1477" y="0" type="line"/>
      <point x="1477" y="1456" type="line"/>
      <point x="1488" y="1456" type="line"/>
      <point x="1488" y="0" type="line"/>
    </contour>
  </outline>
</glyph>
<glyph name="I" format="2">
  <advance width="435.936170212766"/>
  <unicode hex="0049"/>
  <anchor x="227.57615184448187" y="0.0" name="bottom"/>
  <anchor x="237.71682228685137" y="0.0" name="ogonek"/>
  <anchor x="228.27759069340271" y="1456.0" name="top"/>
  <anchor x="-34.56382978723404" y="1074.0" name="tonos"/>
  <anchor x="227.57615184448187" y="750.0" name="yu_dash"/>
  <outline>
    <contour>
      <point x="212.5" y="0.0" type="line"/>
      <point x="212.5" y="1456.0" type="line"/>
      <point x="223.43617021276597" y="1456.0" type="line"/>
      <point x="223.43617021276597" y="0.0" type="line"/>
    </contour>
  </outline>
</glyph>
<glyph name="J" format="2">
  <advance width="1231"/>
  <unicode hex="004A"/>
  <anchor x="356.8479259145875" y="0.0" name="bottom"/>
  <anchor x="639.0716363079749" y="1456.0" name="top"/>
  <outline>
    <contour>
      <point x="62.5" y="400.0" type="qcurve" smooth="yes"/>
      <point x="62.5" y="410.0" type="line"/>
      <point x="73.43617021276597" y="410.0" type="line"/>
      <point x="73.43617021276597" y="400.0" type="line" smooth="yes"/>
      <point x="73.43617021276597" y="206.68831168831167"/>
      <point x="314" y="-20"/>
      <point x="549" y="-20" type="qcurve" smooth="yes"/>
      <point x="787" y="-20"/>
      <point x="1027.4937241696005" y="221.68831168831167"/>
      <point x="1027.4937241696005" y="425.0" type="qcurve" smooth="yes"/>
      <point x="1027.4937241696005" y="1456.0" type="line"/>
      <point x="1038.4298943823665" y="1456.0" type="line"/>
      <point x="1038.4298943823665" y="425.0" type="line" smooth="yes"/>
      <point x="1038.4298943823665" y="215.0"/>
      <point x="789" y="-31"/>
      <point x="550" y="-31" type="qcurve" smooth="yes"/>
      <point x="310" y="-31"/>
      <point x="62.5" y="200.9787234042553"/>
    </contour>
  </outline>
</glyph>
<glyph name="K" format="2">
  <advance width="1669"/>
  <unicode hex="004B"/>
  <anchor x="673" y="0.0" name="bottom"/>
  <anchor x="673" y="1456.0" name="top"/>
  <outline>
    <contour>
      <point x="272" y="0" type="line"/>
      <point x="272" y="1456" type="line"/>
      <point x="283" y="1456" type="line"/>
      <point x="283" y="0" type="line"/>
    </contour>
    <contour>
      <point x="1562" y="0" type="line"/>
      <point x="739" y="877" type="line"/>
      <point x="747" y="884" type="line"/>
      <point x="1578" y="0" type="line"/>
    </contour>
    <contour>
      <point x="279" y="503" type="line"/>
      <point x="279" y="516" type="line"/>
      <point x="1452" y="1456" type="line"/>
      <point x="1471" y="1456" type="line"/>
    </contour>
  </outline>
</glyph>
<glyph name="M" format="2">
  <advance width="2337"/>
  <unicode hex="004D"/>
  <anchor x="788.0249502525639" y="0.0" name="bottom"/>
  <anchor x="797.1436552885352" y="1456.0" name="top"/>
  <outline>
    <contour>
      <point x="207" y="0" type="line"/>
      <point x="207" y="1456" type="line"/>
      <point x="222" y="1456" type="line"/>
      <point x="1104" y="104" type="line" smooth="yes"/>
      <point x="1121" y="77"/>
      <point x="1149" y="32"/>
      <point x="1162" y="12" type="qcurve"/>
      <point x="1162" y="12" type="line"/>
      <point x="1178" y="34"/>
      <point x="1207" y="81"/>
      <point x="1224" y="107" type="qcurve" smooth="yes"/>
      <point x="2113" y="1456" type="line"/>
      <point x="2129" y="1456" type="line"/>
      <point x="2129" y="0" type="line"/>
      <point x="2118" y="0" type="line"/>
      <point x="2118" y="1362" type="line" smooth="yes"/>
      <point x="2118" y="1392"/>
      <point x="2119" y="1418"/>
      <point x="2120" y="1447" type="qcurve"/>
      <point x="2120" y="1447" type="line"/>
      <point x="2107" y="1426"/>
      <point x="2084" y="1392"/>
      <point x="2066" y="1365" type="qcurve" smooth="yes"/>
      <point x="1167" y="0" type="line"/>
      <point x="1157" y="0" type="line"/>
      <point x="286" y="1339" type="line" smooth="yes"/>
      <point x="267" y="1368"/>
      <point x="235" y="1417"/>
      <point x="217" y="1447" type="qcurve"/>
      <point x="217" y="1447" type="line"/>
      <point x="218" y="1416"/>
      <point x="218" y="1367"/>
      <point x="218" y="1337" type="qcurve" smooth="yes"/>
      <point x="218" y="0" type="line"/>
    </contour>
  </outline>
</glyph>
<glyph name="N" format="2">
  <advance width="1740"/>
  <unicode hex="004E"/>
  <anchor x="610.9371651614879" y="0.0" name="bottom"/>
  <anchor x="610.9371651614879" y="1456.0" name="top"/>
  <anchor x="979.9344099188734" y="0.0" name="engtail"/>
  <outline>
    <contour>
      <point x="207" y="0" type="line"/>
      <point x="207" y="1456" type="line"/>
      <point x="221" y="1456" type="line"/>
      <point x="1521" y="12" type="line" smooth="yes"/>
      <point x="1521" y="12"/>
      <point x="1521" y="12"/>
      <point x="1521" y="12" type="qcurve"/>
      <point x="1521" y="12" type="line"/>
      <point x="1521" y="12"/>
      <point x="1521" y="12"/>
      <point x="1521" y="12" type="qcurve" smooth="yes"/>
      <point x="1521" y="1456" type="line"/>
      <point x="1532" y="1456" type="line"/>
      <point x="1532" y="0" type="line"/>
      <point x="1517" y="0" type="line"/>
      <point x="218" y="1442" type="line" smooth="yes"/>
      <point x="218" y="1442"/>
      <point x="218" y="1442"/>
      <point x="218" y="1442" type="qcurve"/>
      <point x="218" y="1442" type="line"/>
      <point x="218" y="1442"/>
      <point x="218" y="1442"/>
      <point x="218" y="1442" type="qcurve" smooth="yes"/>
      <point x="218" y="0" type="line"/>
    </contour>
  </outline>
</glyph>
<glyph name="O" format="2">
  <advance width="1799"/>
  <unicode hex="004F"/>
  <anchor x="900.8440991887342" y="0.0" name="bottom"/>
  <anchor x="900.8440991887342" y="728.0" name="center"/>
  <anchor x="1130.6063064442062" y="0.0" name="ogonek"/>
  <anchor x="900.8440991887342" y="1456.0" name="top"/>
  <anchor x="1127.4168835144649" y="1456.0" name="topright"/>
  <anchor x="28.097811112811883" y="1074.0" name="tonos"/>
  <anchor x="174.58778509107609" y="742.2841726618705" name="yu_dash"/>
  <outline>
    <contour>
      <point x="152.5" y="708.6546762589928" type="qcurve" smooth="yes"/>
      <point x="152.5" y="747.3453237410072" type="line" smooth="yes"/>
      <point x="152.5" y="1095.9712230215828"/>
      <point x="552" y="1487"/>
      <point x="900" y="1487" type="qcurve" smooth="yes"/>
      <point x="1248" y="1487"/>
      <point x="1646.3824429817848" y="1095.9712230215828"/>
      <point x="1646.3824429817848" y="747.3453237410072" type="qcurve" smooth="yes"/>
      <point x="1646.3824429817848" y="708.6546762589928" type="line" smooth="yes"/>
      <point x="1646.3824429817848" y="360.0287769784173"/>
      <point x="1247" y="-31"/>
      <point x="899" y="-31" type="qcurve" smooth="yes"/>
      <point x="551" y="-31"/>
      <point x="152.5" y="360.0287769784173"/>
    </contour>
    <contour>
      <point x="163.47872340425533" y="701.6402877697842" type="line" smooth="yes"/>
      <point x="163.47872340425533" y="364.4248709349735"/>
      <point x="553" y="-20"/>
      <point x="899" y="-20" type="qcurve" smooth="yes"/>
      <point x="1244" y="-20"/>
      <point x="1635.4037195775295" y="364.4248709349735"/>
      <point x="1635.4037195775295" y="701.6402877697842" type="qcurve" smooth="yes"/>
      <point x="1635.4037195775295" y="754.3597122302158" type="line" smooth="yes"/>
      <point x="1635.4037195775295" y="1093.5325758735373"/>
      <point x="1245" y="1476"/>
      <point x="900" y="1476" type="qcurve" smooth="yes"/>
      <point x="554" y="1476"/>
      <point x="163.47872340425533" y="1093.5325758735373"/>
      <point x="163.47872340425533" y="754.3597122302158" type="qcurve" smooth="yes"/>
    </contour>
  </outline>
</glyph>
<glyph name="Q" format="2">
  <advance width="1809"/>
  <unicode hex="0051"/>
  <anchor x="603.4175723251186" y="0.0" name="bottom"/>
  <anchor x="603.4175723251186" y="1456.0" name="top"/>
  <outline>
    <contour>
      <point x="152.5" y="708.6546762589928" type="qcurve" smooth="yes"/>
      <point x="152.5" y="747.3453237410072" type="line" smooth="yes"/>
      <point x="152.5" y="1095.9712230215828"/>
      <point x="557" y="1487"/>
      <point x="905" y="1487" type="qcurve" smooth="yes"/>
      <point x="1253" y="1487"/>
      <point x="1656.169677024338" y="1095.9712230215828"/>
      <point x="1656.169677024338" y="747.3453237410072" type="qcurve" smooth="yes"/>
      <point x="1656.169677024338" y="708.6546762589928" type="line" smooth="yes"/>
      <point x="1656.169677024338" y="360.0287769784173"/>
      <point x="1252" y="-31"/>
      <point x="904" y="-31" type="qcurve" smooth="yes"/>
      <point x="556" y="-31"/>
      <point x="152.5" y="360.0287769784173"/>
    </contour>
    <contour>
      <point x="163.47872340425533" y="701.6402877697842" type="line" smooth="yes"/>
      <point x="163.47872340425533" y="364.4248709349735"/>
      <point x="558" y="-20"/>
      <point x="904" y="-20" type="qcurve" smooth="yes"/>
      <point x="1249" y="-20"/>
      <point x="1645.1909536200826" y="364.4248709349735"/>
      <point x="1645.1909536200826" y="701.6402877697842" type="qcurve" smooth="yes"/>
      <point x="1645.1909536200826" y="754.3597122302158" type="line" smooth="yes"/>
      <point x="1645.1909536200826" y="1093.5325758735373"/>
      <point x="1250" y="1476"/>
      <point x="905" y="1476" type="qcurve" smooth="yes"/>
      <point x="559" y="1476"/>
      <point x="163.47872340425533" y="1093.5325758735373"/>
      <point x="163.47872340425533" y="754.3597122302158" type="qcurve" smooth="yes"/>
    </contour>
    <contour>
      <point x="1593" y="-183" type="line"/>
      <point x="1167" y="231" type="line"/>
      <point x="1175.0722813846187" y="239.18897763800567" type="line"/>
      <point x="1600.781187815705" y="-174.80851063829786" type="line"/>
    </contour>
  </outline>
</glyph>
<glyph name="U" format="2">
  <advance width="1580"/>
  <unicode hex="0055"/>
  <anchor x="548.9577529465789" y="0.0" name="bottom"/>
  <anchor x="683.6131945507424" y="0.0" name="ogonek"/>
  <anchor x="555.2707025868667" y="1456.0" name="top"/>
  <anchor x="905.8561151079136" y="1456.0" name="topright"/>
  <outline>
    <contour>
      <point x="192.5" y="470.0" type="qcurve" smooth="yes"/>
      <point x="192.5" y="1456.0" type="line"/>
      <point x="203.43617021276597" y="1456.0" type="line"/>
      <point x="203.43617021276597" y="470.0" type="line" smooth="yes"/>
      <point x="203.43617021276597" y="228.88670903564525"/>
      <point x="527" y="-20"/>
      <point x="790" y="-20" type="qcurve" smooth="yes"/>
      <point x="1051" y="-20"/>
      <point x="1376.367824889025" y="224.99060513954134"/>
      <point x="1376.367824889025" y="470.0" type="qcurve" smooth="yes"/>
      <point x="1376.367824889025" y="1456.0" type="line"/>
      <point x="1387.3039951017909" y="1456.0" type="line"/>
      <point x="1387.3039951017909" y="470.0" type="line" smooth="yes"/>
      <point x="1387.3039951017909" y="220.0"/>
      <point x="1051" y="-31"/>
      <point x="790" y="-31" type="qcurve" smooth="yes"/>
      <point x="528" y="-31"/>
      <point x="192.5" y="220.0"/>
    </contour>
  </outline>
</glyph>
<glyph name="V" format="2">
  <advance width="1580"/>
  <unicode hex="0056"/>
  <anchor x="800.3239306295407" y="0.0" name="bottom"/>
  <anchor x="809.3935358129718" y="1456.0" name="top"/>
  <outline>
    <contour>
      <point x="37.5" y="1456.0" type="line"/>
      <point x="50" y="1456" type="line"/>
      <point x="790" y="5" type="line" smooth="yes"/>
      <point x="790" y="5"/>
      <point x="790" y="5"/>
      <point x="790" y="5" type="qcurve"/>
      <point x="790" y="5" type="line"/>
      <point x="790" y="5"/>
      <point x="790" y="5"/>
      <point x="790" y="5" type="qcurve" smooth="yes"/>
      <point x="1529" y="1456" type="line"/>
      <point x="1542.200443900199" y="1456.0" type="line"/>
      <point x="795.317618245829" y="-10.0" type="line"/>
      <point x="785.7857033522118" y="-10.0" type="line"/>
    </contour>
  </outline>
</glyph>
<glyph name="W" format="2">
  <advance width="2235"/>
  <unicode hex="0057"/>
  <anchor x="756.2560844941069" y="0.0" name="bottom"/>
  <anchor x="765.374789530078" y="1456.0" name="top"/>
  <outline>
    <contour>
      <point x="597.2411602632787" y="-10.0" type="line"/>
      <point x="87.5" y="1456.0" type="line"/>
      <point x="99" y="1456" type="line"/>
      <point x="565" y="118" type="line" smooth="yes"/>
      <point x="576" y="86"/>
      <point x="593" y="41"/>
      <point x="603" y="16" type="qcurve"/>
      <point x="604" y="16" type="line"/>
      <point x="613" y="41"/>
      <point x="630" y="84"/>
      <point x="642" y="118" type="qcurve" smooth="yes"/>
      <point x="1109.1533463475143" y="1456.0" type="line"/>
      <point x="1123.0776348249942" y="1456.0" type="line"/>
      <point x="1593" y="117" type="line" smooth="yes"/>
      <point x="1605" y="84"/>
      <point x="1619" y="42"/>
      <point x="1631" y="9" type="qcurve"/>
      <point x="1632" y="9" type="line"/>
      <point x="1645" y="42"/>
      <point x="1660" y="83"/>
      <point x="1672" y="117" type="qcurve" smooth="yes"/>
      <point x="2128.148055526289" y="1456.0" type="line"/>
      <point x="2141" y="1456" type="line"/>
      <point x="1639.009031073014" y="-10.0" type="line"/>
      <point x="1626.2430736262052" y="-10.0" type="line"/>
      <point x="1159" y="1318" type="line" smooth="yes"/>
      <point x="1147" y="1351"/>
      <point x="1127" y="1413"/>
      <point x="1116" y="1446" type="qcurve"/>
      <point x="1116" y="1446" type="line"/>
      <point x="1106" y="1413"/>
      <point x="1084" y="1350"/>
      <point x="1073" y="1318" type="qcurve" smooth="yes"/>
      <point x="610.0071177100873" y="-10.0" type="line"/>
    </contour>
  </outline>
</glyph>
<glyph name="backslash" format="2">
  <advance width="710.6176335527323"/>
  <unicode hex="005C"/>
  <outline>
    <contour>
      <point x="-59.69424460431655" y="1456.0" type="line"/>
      <point x="-48.11977651921016" y="1456.0" type="line"/>
      <point x="770.3118781570489" y="-125.0" type="line"/>
      <point x="758.7374100719425" y="-125.0" type="line"/>
    </contour>
  </outline>
</glyph>
<glyph name="b" format="2">
  <advance width="1327"/>
  <unicode hex="0062"/>
  <anchor x="443.6227613653758" y="0.0" name="bottom"/>
  <anchor x="394.45744680851067" y="1536.0" name="top"/>
  <outline>
    <contour>
      <point x="185" y="0" type="line"/>
      <point x="185" y="1536" type="line"/>
      <point x="196" y="1536" type="line"/>
      <point x="196" y="192" type="line"/>
      <point x="196" y="192" type="line"/>
      <point x="195" y="0" type="line"/>
    </contour>
    <contour>
      <point x="709" y="-10" type="qcurve" smooth="yes"/>
      <point x="918" y="-10"/>
      <point x="1193" y="229"/>
      <point x="1193" y="438" type="qcurve" smooth="yes"/>
      <point x="1193" y="481" type="line" smooth="yes"/>
      <point x="1193" y="706"/>
      <point x="923" y="925"/>
      <point x="709" y="925" type="qcurve" smooth="yes"/>
      <point x="477" y="925"/>
      <point x="195" y="667"/>
      <point x="195" y="490" type="qcurve" smooth="yes"/>
      <point x="195" y="453" type="line" smooth="yes"/>
      <point x="195" y="248"/>
      <point x="468" y="-10"/>
    </contour>
    <contour>
      <point x="700" y="-20" type="qcurve" smooth="yes"/>
      <point x="467" y="-20"/>
      <point x="187" y="242"/>
      <point x="187" y="452" type="qcurve" smooth="yes"/>
      <point x="187" y="486" type="line" smooth="yes"/>
      <point x="187" y="677"/>
      <point x="472" y="936"/>
      <point x="701" y="936" type="qcurve" smooth="yes"/>
      <point x="930" y="936"/>
      <point x="1204" y="708"/>
      <point x="1204" y="474" type="qcurve" smooth="yes"/>
      <point x="1204" y="442" type="line" smooth="yes"/>
      <point x="1204" y="226"/>
      <point x="925" y="-20"/>
    </contour>
  </outline>
</glyph>
<glyph name="e" format="2">
  <advance width="1246"/>
  <unicode hex="0065"/>
  <anchor x="457.5452318995867" y="0.0" name="bottom"/>
  <anchor x="578.1028643788478" y="0.0" name="ogonek"/>
  <anchor x="444.46081432726163" y="916.0" name="top"/>
  <outline>
    <contour>
      <point x="121" y="442" type="qcurve" smooth="yes"/>
      <point x="121" y="474" type="line" smooth="yes"/>
      <point x="121" y="687"/>
      <point x="395" y="947"/>
      <point x="644" y="947" type="qcurve" smooth="yes"/>
      <point x="866" y="947"/>
      <point x="1107" y="753"/>
      <point x="1112" y="585" type="qcurve" smooth="yes"/>
      <point x="1112" y="483" type="line"/>
      <point x="125" y="483" type="line"/>
      <point x="125" y="493" type="line"/>
      <point x="1101" y="493" type="line"/>
      <point x="1101" y="574" type="line" smooth="yes"/>
      <point x="1101" y="732"/>
      <point x="874" y="936"/>
      <point x="647" y="936" type="qcurve" smooth="yes"/>
      <point x="402" y="936"/>
      <point x="132" y="679"/>
      <point x="132" y="474" type="qcurve" smooth="yes"/>
      <point x="132" y="442" type="line" smooth="yes"/>
      <point x="132" y="232"/>
      <point x="409" y="-20"/>
      <point x="657" y="-20" type="qcurve" smooth="yes"/>
      <point x="848" y="-20"/>
      <point x="1078" y="146"/>
      <point x="1115" y="270" type="qcurve"/>
      <point x="1124" y="266" type="line"/>
      <point x="1088" y="136"/>
      <point x="855" y="-31"/>
      <point x="659" y="-31" type="qcurve" smooth="yes"/>
      <point x="400" y="-31"/>
      <point x="121" y="228"/>
    </contour>
  </outline>
</glyph>
<glyph name="g" format="2">
  <advance width="1328"/>
  <unicode hex="0067"/>
  <anchor x="441.7628195316088" y="-416.0" name="bottom"/>
  <anchor x="432.5466095208939" y="916.0" name="top"/>
  <outline>
    <contour>
      <point x="629" y="-436" type="qcurve" smooth="yes"/>
      <point x="432" y="-436"/>
      <point x="201" y="-311"/>
      <point x="146" y="-149" type="qcurve"/>
      <point x="155" y="-144" type="line"/>
      <point x="209" y="-308"/>
      <point x="439" y="-425"/>
      <point x="634" y="-425" type="qcurve" smooth="yes"/>
      <point x="867" y="-425"/>
      <point x="1130" y="-218"/>
      <point x="1130" y="20" type="qcurve" smooth="yes"/>
      <point x="1130" y="562" type="line"/>
      <point x="1130" y="562" type="line"/>
      <point x="1130" y="916" type="line"/>
      <point x="1141" y="916" type="line"/>
      <point x="1141" y="20" type="line" smooth="yes"/>
      <point x="1141" y="-233"/>
      <point x="865" y="-436"/>
    </contour>
    <contour>
      <point x="618" y="-10" type="qcurve" smooth="yes"/>
      <point x="865" y="-10"/>
      <point x="1130" y="240"/>
      <point x="1130" y="452" type="qcurve" smooth="yes"/>
      <point x="1130" y="480" type="line" smooth="yes"/>
      <point x="1130" y="666"/>
      <point x="854" y="925"/>
      <point x="616" y="925" type="qcurve" smooth="yes"/>
      <point x="387" y="925"/>
      <point x="133" y="699"/>
      <point x="133" y="474" type="qcurve" smooth="yes"/>
      <point x="133" y="442" type="line" smooth="yes"/>
      <point x="133" y="242"/>
      <point x="383" y="-10"/>
    </contour>
    <contour>
      <point x="619" y="-20" type="qcurve" smooth="yes"/>
      <point x="376" y="-20"/>
      <point x="122" y="236"/>
      <point x="122" y="442" type="qcurve" smooth="yes"/>
      <point x="122" y="474" type="line" smooth="yes"/>
      <point x="122" y="701"/>
      <point x="375" y="936"/>
      <point x="617" y="936" type="qcurve" smooth="yes"/>
      <point x="848" y="936"/>
      <point x="1136" y="685"/>
      <point x="1136" y="485" type="qcurve" smooth="yes"/>
      <point x="1136" y="451" type="line" smooth="yes"/>
      <point x="1136" y="227"/>
      <point x="862" y="-20"/>
    </contour>
  </outline>
</glyph>
<glyph name="h" format="2">
  <advance width="1241"/>
  <unicode hex="0068"/>
  <anchor x="618.5926833001683" y="0.0" name="bottom"/>
  <anchor x="199.81157201898054" y="1327.0" name="center"/>
  <anchor x="199.4505587019746" y="1536.0" name="top"/>
  <anchor x="1053.6874330322976" y="0.0" name="engtail"/>
  <outline>
    <contour>
      <point x="196" y="0" type="line"/>
      <point x="185" y="0" type="line"/>
      <point x="185" y="1536" type="line"/>
      <point x="194" y="1536" type="line"/>
    </contour>
    <contour>
      <point x="190" y="762" type="line"/>
      <point x="269" y="839"/>
      <point x="524" y="936"/>
      <point x="679" y="936" type="qcurve" smooth="yes"/>
      <point x="877" y="936"/>
      <point x="1065" y="782"/>
      <point x="1065" y="576" type="qcurve" smooth="yes"/>
      <point x="1065" y="0" type="line"/>
      <point x="1054" y="0" type="line"/>
      <point x="1054" y="577" type="line" smooth="yes"/>
      <point x="1054" y="776"/>
      <point x="872" y="925"/>
      <point x="680" y="925" type="qcurve" smooth="yes"/>
      <point x="524" y="925"/>
      <point x="270" y="829"/>
      <point x="190" y="748" type="qcurve"/>
    </contour>
  </outline>
</glyph>
<glyph name="m" format="2">
  <advance width="2008"/>
  <unicode hex="006D"/>
  <anchor x="1005.393081279657" y="0.0" name="bottom"/>
  <anchor x="1005.393081279657" y="916.0" name="top"/>
  <outline>
    <contour>
      <point x="185" y="0" type="line"/>
      <point x="185" y="916" type="line"/>
      <point x="196" y="916" type="line"/>
      <point x="196" y="756" type="line"/>
      <point x="196" y="0" type="line"/>
    </contour>
    <contour>
      <point x="1014" y="567" type="qcurve" smooth="yes"/>
      <point x="1014" y="0" type="line"/>
      <point x="1004" y="0" type="line"/>
      <point x="1004" y="570" type="line" smooth="yes"/>
      <point x="1004" y="777"/>
      <point x="837" y="925"/>
      <point x="683" y="925" type="qcurve" smooth="yes"/>
      <point x="532" y="925"/>
      <point x="268" y="820"/>
      <point x="189" y="746" type="qcurve"/>
      <point x="189" y="759" type="line"/>
      <point x="265" y="830"/>
      <point x="529" y="936"/>
      <point x="681" y="936" type="qcurve" smooth="yes"/>
      <point x="843" y="936"/>
      <point x="1014" y="785"/>
    </contour>
    <contour>
      <point x="996" y="713" type="line"/>
      <point x="1099" y="834"/>
      <point x="1314" y="936"/>
      <point x="1474" y="936" type="qcurve" smooth="yes"/>
      <point x="1645" y="936"/>
      <point x="1832" y="783"/>
      <point x="1832" y="569" type="qcurve" smooth="yes"/>
      <point x="1832" y="0" type="line"/>
      <point x="1821" y="0" type="line"/>
      <point x="1821" y="570" type="line" smooth="yes"/>
      <point x="1821" y="777"/>
      <point x="1646" y="925"/>
      <point x="1476" y="925" type="qcurve" smooth="yes"/>
      <point x="1320" y="925"/>
      <point x="1103" y="825"/>
      <point x="1000" y="699" type="qcurve"/>
    </contour>
  </outline>
</glyph>
<glyph name="n" format="2">
  <advance width="1241"/>
  <unicode hex="006E"/>
  <anchor x="467.71751109750494" y="0.0" name="bottom"/>
  <anchor x="475.5472983315475" y="916.0" name="top"/>
  <anchor x="706.4752028164702" y="0.0" name="engtail"/>
  <outline>
    <contour>
      <point x="185" y="0" type="line"/>
      <point x="185" y="916" type="line"/>
      <point x="196" y="916" type="line"/>
      <point x="196" y="769" type="line"/>
      <point x="196" y="0" type="line"/>
    </contour>
    <contour>
      <point x="191" y="762" type="qcurve"/>
      <point x="191" y="774" type="line"/>
      <point x="283" y="838"/>
      <point x="551" y="936"/>
      <point x="699" y="936" type="qcurve" smooth="yes"/>
      <point x="878" y="936"/>
      <point x="1065" y="792"/>
      <point x="1065" y="617" type="qcurve" smooth="yes"/>
      <point x="1065" y="0" type="line"/>
      <point x="1054" y="0" type="line"/>
      <point x="1054" y="618" type="line" smooth="yes"/>
      <point x="1054" y="783"/>
      <point x="880" y="925"/>
      <point x="701" y="925" type="qcurve" smooth="yes"/>
      <point x="555" y="925"/>
      <point x="273" y="823"/>
    </contour>
  </outline>
</glyph>
<glyph name="o" format="2">
  <advance width="1352"/>
  <unicode hex="006F"/>
  <anchor x="456.9295882442982" y="0.0" name="bottom"/>
  <anchor x="456.9295882442982" y="458.0" name="center"/>
  <anchor x="578.9453543548141" y="0.0" name="ogonek"/>
  <anchor x="456.9295882442982" y="916.0" name="top"/>
  <anchor x="579.8815245675801" y="916.0" name="topright"/>
  <anchor x="140.2323220572478" y="470.03999999999996" name="yu_dash"/>
  <outline>
    <contour>
      <point x="122.5" y="449.71582733812954" type="qcurve" smooth="yes"/>
      <point x="122.5" y="466.28417266187046" type="line" smooth="yes"/>
      <point x="123" y="714"/>
      <point x="416" y="946"/>
      <point x="677" y="946" type="qcurve" smooth="yes"/>
      <point x="937" y="946"/>
      <point x="1230" y="714"/>
      <point x="1229.7584570641359" y="466.28417266187046" type="qcurve" smooth="yes"/>
      <point x="1229.7584570641359" y="449.71582733812954" type="line" smooth="yes"/>
      <point x="1230" y="202"/>
      <point x="936" y="-30"/>
      <point x="676" y="-30" type="qcurve" smooth="yes"/>
      <point x="415" y="-30"/>
      <point x="123" y="202"/>
    </contour>
    <contour>
      <point x="133.3936170212766" y="467.6870503597122" type="qcurve" smooth="yes"/>
      <point x="133.3936170212766" y="448.3129496402878" type="line" smooth="yes"/>
      <point x="133.3936170212766" y="209.30875268616273"/>
      <point x="423" y="-20"/>
      <point x="676" y="-20" type="qcurve" smooth="yes"/>
      <point x="928" y="-20"/>
      <point x="1218.8648400428594" y="209.30875268616273"/>
      <point x="1218.8648400428594" y="448.3129496402878" type="qcurve" smooth="yes"/>
      <point x="1218.8648400428594" y="467.6870503597122" type="line" smooth="yes"/>
      <point x="1219" y="706"/>
      <point x="930" y="936"/>
      <point x="677" y="936" type="qcurve" smooth="yes"/>
      <point x="424" y="936"/>
      <point x="133.3936170212766" y="706.6912473138373"/>
    </contour>
  </outline>
</glyph>
<glyph name="p" format="2">
  <advance width="1327"/>
  <unicode hex="0070"/>
  <anchor x="428.32764426756466" y="0.0" name="bottom"/>
  <anchor x="419.2089392315935" y="916.0" name="top"/>
  <outline>
    <contour>
      <point x="185.5" y="-416.0" type="line"/>
      <point x="185.5" y="916.0" type="line"/>
      <point x="195.9255319148936" y="916.0" type="line"/>
      <point x="196.09574468085106" y="724.2877697841727" type="line"/>
      <point x="196.3085106382979" y="724.2877697841727" type="line"/>
      <point x="196.3085106382979" y="-416.0" type="line"/>
    </contour>
    <contour>
      <point x="709.061704711942" y="-9.233766233766232" type="qcurve" smooth="yes"/>
      <point x="918.2465480149729" y="-9.233766233766232"/>
      <point x="1193.6034746670748" y="229.6420779220779"/>
      <point x="1193.6034746670748" y="438.1038961038961" type="qcurve" smooth="yes"/>
      <point x="1193.6034746670748" y="481.7922077922078" type="line" smooth="yes"/>
      <point x="1193.6034746670748" y="700.0171649626969"/>
      <point x="923.2716930826712" y="925.2337662337663"/>
      <point x="709.0710995724007" y="925.2337662337663" type="qcurve" smooth="yes"/>
      <point x="461.7449323613781" y="925.2337662337663"/>
      <point x="195.3936170212766" y="660.5997457861287"/>
      <point x="195.3936170212766" y="485.87012987012986" type="qcurve" smooth="yes"/>
      <point x="195.3936170212766" y="453.0" type="line" smooth="yes"/>
      <point x="195.3936170212766" y="248.6148217739707"/>
      <point x="462.7715735297918" y="-9.233766233766232"/>
    </contour>
    <contour>
      <point x="702.9558624446119" y="-20.0" type="qcurve" smooth="yes"/>
      <point x="462.3000757791114" y="-20.0"/>
      <point x="187" y="238"/>
      <point x="187.11702127659575" y="452.0" type="qcurve" smooth="yes"/>
      <point x="187.11702127659575" y="486.0" type="line" smooth="yes"/>
      <point x="187" y="677"/>
      <point x="464.51963875707946" y="936.0"/>
      <point x="703.9298884186379" y="936.0" type="qcurve" smooth="yes"/>
      <point x="931.4212429205572" y="936.0"/>
      <point x="1204.4970916883515" y="701.8655319148936"/>
      <point x="1204.4970916883515" y="474.0" type="qcurve" smooth="yes"/>
      <point x="1204.4970916883515" y="442.0" type="line" smooth="yes"/>
      <point x="1204.4970916883515" y="226.90893617021277"/>
      <point x="926.5605079108858" y="-20.0"/>
    </contour>
  </outline>
</glyph>
<glyph name="q" format="2">
  <advance width="1324"/>
  <unicode hex="0071"/>
  <anchor x="424.6839124445125" y="0.0" name="bottom"/>
  <anchor x="424.6839124445125" y="916.0" name="top"/>
  <outline>
    <contour>
      <point x="1130.6885810500537" y="-416.0" type="line"/>
      <point x="1130.6885810500537" y="443.39415276289606" type="line"/>
      <point x="1130.9013470075004" y="443.39415276289606" type="line"/>
      <point x="1131.071559773458" y="916.0" type="line"/>
      <point x="1141.4970916883515" y="916.0" type="line"/>
      <point x="1141.4970916883515" y="-416.0" type="line"/>
    </contour>
    <contour>
      <point x="618.2079741015145" y="-9.233766233766232" type="qcurve" smooth="yes"/>
      <point x="853.8317373335374" y="-9.233766233766232"/>
      <point x="1130.6294486930487" y="228.05236805747444"/>
      <point x="1130.6294486930487" y="436.94805194805195" type="qcurve" smooth="yes"/>
      <point x="1130.6294486930487" y="463.97402597402595" type="line" smooth="yes"/>
      <point x="1130.6294486930487" y="644.9819729206963"/>
      <point x="868.3801168890806" y="925.2337662337663"/>
      <point x="616.250527293004" y="925.2337662337663" type="qcurve" smooth="yes"/>
      <point x="395.24993378273336" y="925.2337662337663"/>
      <point x="132.41959104725063" y="700.0171649626969"/>
      <point x="132.41959104725063" y="481.7922077922078" type="qcurve" smooth="yes"/>
      <point x="132.41959104725063" y="438.1038961038961" type="line" smooth="yes"/>
      <point x="132.41959104725063" y="236.44207792207789"/>
      <point x="400.27507885043167" y="-9.233766233766232"/>
    </contour>
    <contour>
      <point x="623.0672032697136" y="-20.0" type="qcurve" smooth="yes"/>
      <point x="391.25968010559774" y="-20.0"/>
      <point x="121.52597402597402" y="233.70893617021278"/>
      <point x="121.52597402597402" y="442.0" type="qcurve" smooth="yes"/>
      <point x="121.52597402597402" y="474.0" type="line" smooth="yes"/>
      <point x="121.52597402597402" y="701.8655319148936"/>
      <point x="386.3989450959266" y="936.0"/>
      <point x="622.0931772956876" y="936.0" type="qcurve" smooth="yes"/>
      <point x="864.9987973942482" y="936.0"/>
      <point x="1139" y="660"/>
      <point x="1138.9060444377296" y="463.97402597402595" type="qcurve" smooth="yes"/>
      <point x="1138.9060444377296" y="435.0425531914894" type="line" smooth="yes"/>
      <point x="1139" y="217"/>
      <point x="852.9951831361659" y="-20.0"/>
    </contour>
  </outline>
</glyph>
<glyph name="s" format="2">
  <advance width="1116"/>
  <unicode hex="0073"/>
  <anchor x="389.3139445890096" y="0.0" name="bottom"/>
  <anchor x="377.84654829328025" y="916.0" name="top"/>
  <outline>
    <contour>
      <point x="117" y="296" type="line"/>
      <point x="128" y="296" type="line"/>
      <point x="128" y="291" type="line" smooth="yes"/>
      <point x="128" y="130"/>
      <point x="362" y="-20"/>
      <point x="584" y="-20" type="qcurve" smooth="yes"/>
      <point x="788" y="-20"/>
      <point x="987" y="114"/>
      <point x="987" y="232" type="qcurve" smooth="yes"/>
      <point x="987" y="329"/>
      <point x="835" y="444"/>
      <point x="583" y="479" type="qcurve" smooth="yes"/>
      <point x="330" y="514"/>
      <point x="141" y="614"/>
      <point x="141" y="717" type="qcurve" smooth="yes"/>
      <point x="141" y="818"/>
      <point x="328" y="946"/>
      <point x="551" y="946" type="qcurve" smooth="yes"/>
      <point x="774" y="946"/>
      <point x="948" y="783"/>
      <point x="948" y="640" type="qcurve" smooth="yes"/>
      <point x="948" y="631" type="line"/>
      <point x="937" y="631" type="line"/>
      <point x="937" y="640" type="line" smooth="yes"/>
      <point x="937" y="779"/>
      <point x="769" y="935"/>
      <point x="550" y="935" type="qcurve" smooth="yes"/>
      <point x="331" y="935"/>
      <point x="152" y="814"/>
      <point x="152" y="716" type="qcurve" smooth="yes"/>
      <point x="152" y="618"/>
      <point x="335" y="525"/>
      <point x="587" y="490" type="qcurve" smooth="yes"/>
      <point x="838" y="455"/>
      <point x="1000" y="334"/>
      <point x="998" y="231" type="qcurve" smooth="yes"/>
      <point x="996" y="110"/>
      <point x="794" y="-31"/>
      <point x="584" y="-31" type="qcurve" smooth="yes"/>
      <point x="355" y="-31"/>
      <point x="117" y="124"/>
      <point x="117" y="291" type="qcurve" smooth="yes"/>
    </contour>
  </outline>
</glyph>
<glyph name="t" format="2">
  <advance width="911"/>
  <unicode hex="0074"/>
  <anchor x="312.4910454615031" y="0.0" name="bottom"/>
  <anchor x="239.06689116791674" y="551.0" name="center"/>
  <anchor x="239.06689116791674" y="1176.0" name="top"/>
  <anchor x="576.2068727996326" y="916.0" name="topright"/>
  <outline>
    <contour>
      <point x="37.5" y="905.4935064935064" type="line"/>
      <point x="37.5" y="916.0" type="line"/>
      <point x="823.41910301546" y="916.0" type="line"/>
      <point x="823.41910301546" y="905.4935064935064" type="line"/>
    </contour>
    <contour>
      <point x="407.87410071942446" y="279.64028776978415" type="qcurve" smooth="yes"/>
      <point x="407.87410071942446" y="910.8441558441559" type="line"/>
      <point x="407.87410071942446" y="913.5714285714287" type="line"/>
      <point x="407.87410071942446" y="1176.0" type="line"/>
      <point x="418.68261135772235" y="1176.0" type="line"/>
      <point x="418.68261135772235" y="276.13309352517985" type="line" smooth="yes"/>
      <point x="418.68261135772235" y="129.5340091563113"/>
      <point x="501" y="-20"/>
      <point x="610" y="-20" type="qcurve" smooth="yes"/>
      <point x="674" y="-20"/>
      <point x="790" y="-1"/>
      <point x="822" y="13" type="qcurve"/>
      <point x="822" y="2" type="line"/>
      <point x="794" y="-11"/>
      <point x="671" y="-30"/>
      <point x="604" y="-30" type="qcurve" smooth="yes"/>
      <point x="494" y="-30"/>
      <point x="407.87410071942446" y="119.82014388489209"/>
    </contour>
  </outline>
</glyph>
<glyph name="u" format="2">
  <advance width="1241"/>
  <unicode hex="0075"/>
  <anchor x="437.37708556559005" y="0.0" name="bottom"/>
  <anchor x="709.0400275524262" y="0.0" name="ogonek"/>
  <anchor x="444.22814939537733" y="916.0" name="top"/>
  <anchor x="698.7071789377009" y="916.0" name="topright"/>
  <anchor x="704.6577376396755" y="0.0" name="cy_descender"/>
  <outline>
    <contour>
      <point x="553" y="-20" type="qcurve"/>
      <point x="373" y="-20"/>
      <point x="175" y="123"/>
      <point x="175" y="346" type="qcurve" smooth="yes"/>
      <point x="175" y="916" type="line"/>
      <point x="186" y="916" type="line"/>
      <point x="186" y="345" type="line" smooth="yes"/>
      <point x="186" y="132"/>
      <point x="378" y="-10"/>
      <point x="552" y="-10" type="qcurve"/>
      <point x="679" y="-10"/>
      <point x="935" y="57"/>
      <point x="1048" y="103" type="qcurve"/>
      <point x="1049" y="94" type="line"/>
      <point x="931" y="46"/>
      <point x="681" y="-20"/>
    </contour>
    <contour>
      <point x="1044" y="0" type="line"/>
      <point x="1044" y="406" type="line"/>
      <point x="1044" y="916" type="line"/>
      <point x="1055" y="916" type="line"/>
      <point x="1055" y="0" type="line"/>
    </contour>
  </outline>
</glyph>
<glyph name="v" format="2">
  <advance width="1279"/>
  <unicode hex="0076"/>
  <anchor x="612.6671015380713" y="0.0" name="bottom"/>
  <anchor x="612.6671015380713" y="916.0" name="top"/>
  <outline>
    <contour>
      <point x="66.2589928057554" y="916.0" type="line"/>
      <point x="79" y="916" type="line"/>
      <point x="639" y="9" type="line" smooth="yes"/>
      <point x="639" y="9"/>
      <point x="639" y="9"/>
      <point x="639" y="9" type="qcurve"/>
      <point x="639" y="9" type="line"/>
      <point x="639" y="9"/>
      <point x="639" y="9"/>
      <point x="639" y="9" type="qcurve" smooth="yes"/>
      <point x="1198" y="916" type="line"/>
      <point x="1211.3594060921475" y="916.0" type="line"/>
      <point x="643.9574468085107" y="0.0" type="line"/>
      <point x="633.1063829787234" y="0.0" type="line"/>
    </contour>
  </outline>
</glyph>
<glyph name="w" format="2">
  <advance width="1999"/>
  <unicode hex="0077"/>
  <anchor x="580.7455992652688" y="0.0" name="bottom"/>
  <anchor x="580.7455992652688" y="916.0" name="top"/>
  <outline>
    <contour>
      <point x="62" y="916" type="line"/>
      <point x="74" y="916" type="line"/>
      <point x="480" y="135" type="line" smooth="yes"/>
      <point x="500" y="97"/>
      <point x="528" y="47"/>
      <point x="546" y="8" type="qcurve"/>
      <point x="546" y="8" type="line"/>
      <point x="563" y="47"/>
      <point x="589" y="101"/>
      <point x="606" y="135" type="qcurve" smooth="yes"/>
      <point x="988" y="916" type="line"/>
      <point x="998" y="916" type="line"/>
      <point x="1391" y="135" type="line" smooth="yes"/>
      <point x="1409" y="99"/>
      <point x="1434" y="48"/>
      <point x="1456" y="8" type="qcurve"/>
      <point x="1456" y="8" type="line"/>
      <point x="1476" y="48"/>
      <point x="1502" y="98"/>
      <point x="1521" y="135" type="qcurve" smooth="yes"/>
      <point x="1924" y="916" type="line"/>
      <point x="1936" y="916" type="line"/>
      <point x="1463" y="0" type="line"/>
      <point x="1448" y="0" type="line"/>
      <point x="1068" y="752" type="line" smooth="yes"/>
      <point x="1049" y="789"/>
      <point x="1011" y="864"/>
      <point x="993" y="904" type="qcurve"/>
      <point x="993" y="904" type="line"/>
      <point x="975" y="864"/>
      <point x="940" y="790"/>
      <point x="921" y="752" type="qcurve" smooth="yes"/>
      <point x="553" y="0" type="line"/>
      <point x="538" y="0" type="line"/>
    </contour>
  </outline>
</glyph>
<glyph name="y" format="2">
  <advance width="1263"/>
  <unicode hex="0079"/>
  <anchor x="1021.6400131580504" y="0.0" name="bottom"/>
  <anchor x="721.8886700175527" y="916.0" name="top"/>
  <outline>
    <contour>
      <point x="143" y="-415" type="qcurve"/>
      <point x="143" y="-403" type="line"/>
      <point x="185" y="-417"/>
      <point x="246" y="-425"/>
      <point x="286" y="-425" type="qcurve" smooth="yes"/>
      <point x="400" y="-425"/>
      <point x="536" y="-248"/>
      <point x="716" y="60" type="qcurve"/>
      <point x="716" y="60" type="line"/>
      <point x="153" y="916" type="line"/>
      <point x="165" y="916" type="line"/>
      <point x="722" y="70" type="line" smooth="yes"/>
      <point x="722" y="70"/>
      <point x="722" y="70"/>
      <point x="722" y="70" type="qcurve"/>
      <point x="722" y="70" type="line"/>
      <point x="722" y="70"/>
      <point x="722" y="70"/>
      <point x="722" y="70" type="qcurve" smooth="yes"/>
      <point x="1212" y="916" type="line"/>
      <point x="1225" y="916" type="line"/>
      <point x="715" y="38" type="line" smooth="yes"/>
      <point x="544" y="-257"/>
      <point x="405" y="-436"/>
      <point x="287" y="-436" type="qcurve" smooth="yes"/>
      <point x="245" y="-436"/>
      <point x="182" y="-427"/>
    </contour>
  </outline>
</glyph>
<glyph name="bar" format="2">
  <advance width="511"/>
  <unicode hex="007C"/>
  <outline>
    <contour>
      <point x="251" y="-416" type="line"/>
      <point x="251" y="1536" type="line"/>
      <point x="262" y="1536" type="line"/>
      <point x="262" y="-416" type="line"/>
    </contour>
  </outline>
</glyph>
<glyph name="braceright" format="2">
  <advance width="785"/>
  <unicode hex="007D"/>
  <outline>
    <contour>
      <point x="67.5" y="-312.0" type="qcurve"/>
      <point x="67.5" y="-298.58385499392693" type="line"/>
      <point x="282.33170059696926" y="-298.58385499392693"/>
      <point x="476" y="-101"/>
      <point x="423" y="123" type="qcurve" smooth="yes"/>
      <point x="374" y="330" type="line" smooth="yes"/>
      <point x="353" y="419"/>
      <point x="467" y="562"/>
      <point x="585" y="574" type="qcurve"/>
      <point x="476" y="582"/>
      <point x="353" y="727"/>
      <point x="374" y="817" type="qcurve" smooth="yes"/>
      <point x="423" y="1025" type="line" smooth="yes"/>
      <point x="473" y="1237"/>
      <point x="292" y="1446"/>
      <point x="67.5" y="1446.583854993927" type="qcurve"/>
      <point x="67.5" y="1460.0" type="line"/>
      <point x="300" y="1460"/>
      <point x="486" y="1239"/>
      <point x="433" y="1022" type="qcurve" smooth="yes"/>
      <point x="383" y="816" type="line" smooth="yes"/>
      <point x="358" y="713"/>
      <point x="508.00053574161944" y="580.0392413342054"/>
      <point x="683.6352364916577" y="580.0392413342054" type="qcurve"/>
      <point x="683.6352364916577" y="566.9867326917687" type="line"/>
      <point x="508.00053574161944" y="566.9867326917687"/>
      <point x="359" y="436"/>
      <point x="384" y="333" type="qcurve" smooth="yes"/>
      <point x="434" y="126" type="line" smooth="yes"/>
      <point x="489" y="-103"/>
      <point x="282" y="-312"/>
    </contour>
  </outline>
</glyph>
<glyph name="asciitilde" format="2">
  <advance width="1295.4028776978416"/>
  <unicode hex="007E"/>
  <outline>
    <contour>
      <point x="82.5" y="628.4694627276901" type="qcurve"/>
      <point x="82.5" y="643.4028776978417" type="line"/>
      <point x="135.40525026787083" y="700.2752181233736"/>
      <point x="299.3776978417266" y="769.9986223786929"/>
      <point x="377.705035971223" y="770.0198989744375" type="qcurve" smooth="yes"/>
      <point x="461.7948874942599" y="770.0411755701822"/>
      <point x="585.1798561151079" y="728.0198989744375"/>
      <point x="661.7844787999388" y="696.0411755701822" type="qcurve" smooth="yes"/>
      <point x="732.431654676259" y="667.0198989744375"/>
      <point x="846.43502219501" y="627.0411755701822"/>
      <point x="926.0794428287157" y="627.0411755701822" type="qcurve" smooth="yes"/>
      <point x="1003.4280575539568" y="627.0411755701822"/>
      <point x="1149.2103933874178" y="700.9135159957141"/>
      <point x="1211.9028776978416" y="756.0198989744375" type="qcurve"/>
      <point x="1211.9028776978416" y="742.0439308127966" type="line"/>
      <point x="1155.0827338129498" y="690.0652074085413"/>
      <point x="1005.1294964028777" y="613.4694627276901"/>
      <point x="926.1007194244604" y="613.4694627276901" type="qcurve" smooth="yes"/>
      <point x="849.3924690035205" y="613.4694627276901"/>
      <point x="733.431654676259" y="652.4694627276901"/>
      <point x="659.5710240318383" y="683.4481861319455" type="qcurve" smooth="yes"/>
      <point x="586.1798561151079" y="713.4694627276901"/>
      <point x="463.7523343027706" y="756.4481861319455"/>
      <point x="377.705035971223" y="756.4481861319455" type="qcurve" smooth="yes"/>
      <point x="299.3776978417266" y="756.4481861319455"/>
      <point x="139.3201438848921" y="688.4694627276901"/>
    </contour>
  </outline>
</glyph>
<glyph name="exclamdown" format="2">
  <advance width="518.0472983315475"/>
  <unicode hex="00A1"/>
  <outline>
    <contour>
      <point x="294.5472983315475" y="1125.5394918108068" type="qcurve" smooth="yes"/>
      <point x="294.5472983315475" y="1111.2025103321598"/>
      <point x="277.2322822592989" y="1091.8023878769325"/>
      <point x="259.02364916577375" y="1091.8023878769325" type="qcurve" smooth="yes"/>
      <point x="240.81501607224857" y="1091.8023878769325"/>
      <point x="223.5" y="1111.2025103321598"/>
      <point x="223.5" y="1125.5394918108068" type="qcurve" smooth="yes"/>
      <point x="223.5" y="1139.8764732894535"/>
      <point x="240.81501607224857" y="1159.276595744681"/>
      <point x="259.02364916577375" y="1159.276595744681" type="qcurve" smooth="yes"/>
      <point x="277.2322822592989" y="1159.276595744681"/>
      <point x="294.5472983315475" y="1139.8764732894535"/>
    </contour>
    <contour>
      <point x="263.7045002296036" y="732.2841726618705" type="line"/>
      <point x="272.44091535282416" y="-306.7014388489209" type="line"/>
      <point x="244.62765957446808" y="-306.7014388489209" type="line"/>
      <point x="253.36407469768866" y="732.2841726618705" type="line"/>
    </contour>
  </outline>
</glyph>
<glyph name="yen" format="2">
  <advance width="916.8763967549364"/>
  <unicode hex="00A5"/>
  <outline>
    <contour>
      <point x="83.43617021276596" y="351.7012987012987" type="line"/>
      <point x="83.43617021276596" y="362.64935064935065" type="line"/>
      <point x="845.3551201591918" y="362.64935064935065" type="line"/>
      <point x="845.3551201591918" y="351.7012987012987" type="line"/>
    </contour>
    <contour>
      <point x="83.43617021276596" y="666.961038961039" type="line"/>
      <point x="83.43617021276596" y="677.9350649350649" type="line"/>
      <point x="341.6955456911067" y="677.9350649350649" type="line"/>
      <point x="396.65299249961737" y="669.0" type="line"/>
      <point x="516.4189499464259" y="669.0" type="line"/>
      <point x="575.1849073932343" y="677.9350649350649" type="line"/>
      <point x="845.3551201591918" y="677.9350649350649" type="line"/>
      <point x="845.3551201591918" y="666.961038961039" type="line"/>
    </contour>
    <contour>
      <point x="432.0531914893617" y="0.0" type="line"/>
      <point x="432.0531914893617" y="548.0" type="line"/>
      <point x="2.5" y="1456.0" type="line"/>
      <point x="31.33384356344711" y="1456.0" type="line"/>
      <point x="319.0785244145109" y="849.0" type="line" smooth="yes"/>
      <point x="333.0785244145109" y="819.0"/>
      <point x="427.73809888259603" y="615.1914893617021"/>
      <point x="452.3551201591918" y="561.5531914893617" type="qcurve"/>
      <point x="457.67426909536204" y="561.5531914893617" type="line"/>
      <point x="482.33384356344715" y="614.6170212765958"/>
      <point x="581.8444818613194" y="814.1063829787234"/>
      <point x="599.7593754783406" y="849.0" type="qcurve" smooth="yes"/>
      <point x="903.2487371804683" y="1456.0" type="line"/>
      <point x="914.3763967549364" y="1456.0" type="line"/>
      <point x="460.3551201591918" y="548.0" type="line"/>
      <point x="460.3551201591918" y="0.0" type="line"/>
    </contour>
  </outline>
</glyph>
<glyph name="brokenbar" format="2">
  <advance width="499.93203734884435"/>
  <unicode hex="00A6"/>
  <guideline y="901.0000000000002" identifier="jmguX8NWKI"/>
  <guideline y="555.0000000000002" identifier="Z0RZpP7MTi"/>
  <outline>
    <contour>
      <point x="257.43203734884435" y="-416.0" type="line"/>
      <point x="242.5" y="-416.0" type="line"/>
      <point x="242.5" y="359.0" type="line"/>
      <point x="257.43203734884435" y="359.0" type="line"/>
    </contour>
    <contour>
      <point x="257.43203734884435" y="1536.0" type="line"/>
      <point x="257.43203734884435" y="761.0" type="line"/>
      <point x="242.5" y="761.0" type="line"/>
      <point x="242.5" y="1536.0" type="line"/>
    </contour>
  </outline>
</glyph>
<glyph name="copyright" format="2">
  <advance width="1453.9787234042553"/>
  <unicode hex="00A9"/>
  <guideline y="901.0000000000002" identifier="0Pjz0qKr8z"/>
  <guideline y="555.0000000000002" identifier="sJo8BlDiJ7"/>
  <outline>
    <contour>
      <point x="1022.0545691106689" y="546.0" type="qcurve"/>
      <point x="1038.389484157355" y="546.0" type="line"/>
      <point x="1038.389484157355" y="389.6808510638298"/>
      <point x="889.0929894382367" y="205.0"/>
      <point x="701.5969784172662" y="205.0" type="qcurve" smooth="yes"/>
      <point x="586.0971223021583" y="205.0"/>
      <point x="407.5473748660646" y="438.40287769784175"/>
      <point x="407.5473748660646" y="664.0" type="qcurve" smooth="yes"/>
      <point x="407.5473748660646" y="703.0" type="line" smooth="yes"/>
      <point x="407.5473748660646" y="929.5971223021583"/>
      <point x="586.1183988979029" y="1170.0"/>
      <point x="731.160162253176" y="1170.0" type="qcurve" smooth="yes"/>
      <point x="888.2638910148477" y="1170.0"/>
      <point x="1039.389484157355" y="983.0"/>
      <point x="1039.389484157355" y="829.0" type="qcurve"/>
      <point x="1023.0545691106689" y="829.0" type="line"/>
      <point x="1023.0545691106689" y="979.3235700469743"/>
      <point x="881.282812931749" y="1159.8961038961038"/>
      <point x="729.4787234042553" y="1159.8961038961038" type="qcurve" smooth="yes"/>
      <point x="591.117297596021" y="1159.8961038961038"/>
      <point x="424.817771314863" y="925.3782812931748"/>
      <point x="424.817771314863" y="777.9573353265439" type="qcurve" smooth="yes"/>
      <point x="424.817771314863" y="591.6981294964029" type="line" smooth="yes"/>
      <point x="424.817771314863" y="440.64769273279916"/>
      <point x="592.2781155015197" y="215.8961038961039"/>
      <point x="743.6329496402878" y="215.8961038961039" type="qcurve" smooth="yes"/>
      <point x="884.3916827852998" y="215.8961038961039"/>
      <point x="1022.0545691106689" y="394.6623376623377"/>
    </contour>
    <contour>
      <point x="85.5" y="687.0" type="qcurve" smooth="yes"/>
      <point x="85.5" y="342.53246753246754"/>
      <point x="404.0584415584416" y="-136.25974025974025"/>
      <point x="727.5" y="-136.25974025974025" type="qcurve" smooth="yes"/>
      <point x="1047.9935064935064" y="-136.25974025974025"/>
      <point x="1368.5" y="342.53246753246754"/>
      <point x="1368.5" y="687.0" type="qcurve" smooth="yes"/>
      <point x="1368.5" y="1034.4155844155844"/>
      <point x="1047.9935064935064" y="1508.2337662337663"/>
      <point x="727.5" y="1508.2337662337663" type="qcurve" smooth="yes"/>
      <point x="404.0584415584416" y="1508.2337662337663"/>
      <point x="85.5" y="1033.4415584415585"/>
    </contour>
    <contour>
      <point x="75.5" y="687.0" type="qcurve" smooth="yes"/>
      <point x="75.5" y="1039.0"/>
      <point x="400.5" y="1519.0"/>
      <point x="726.5" y="1519.0" type="qcurve" smooth="yes"/>
      <point x="1051.5" y="1519.0"/>
      <point x="1378.4787234042553" y="1039.0"/>
      <point x="1378.4787234042553" y="687.0" type="qcurve" smooth="yes"/>
      <point x="1378.4787234042553" y="337.0"/>
      <point x="1051.5" y="-147.0"/>
      <point x="726.5" y="-147.0" type="qcurve" smooth="yes"/>
      <point x="400.5" y="-147.0"/>
      <point x="75.5" y="337.0"/>
    </contour>
  </outline>
</glyph>
<glyph name="ordfeminine" format="2">
  <advance width="728.2298331547528"/>
  <unicode hex="00AA"/>
  <guideline y="1681.0" identifier="3CJlALCfkl"/>
  <guideline y="909.0" identifier="Zdl6NZVQAy"/>
  <outline>
    <contour>
      <point x="510.0188274911985" y="869.8297872340426" type="line"/>
      <point x="510.0188274911985" y="821.0"/>
      <point x="521.2103168529006" y="747.7446808510638"/>
      <point x="536.3805296188581" y="706.0" type="qcurve"/>
      <point x="558.7298331547528" y="706.0" type="line"/>
      <point x="544.7298331547528" y="749.0"/>
      <point x="532.7298331547528" y="826.2553191489362"/>
      <point x="532.7298331547528" y="870.3617021276596" type="qcurve" smooth="yes"/>
      <point x="532.7298331547528" y="1198.1942446043165" type="line" smooth="yes"/>
      <point x="532.7298331547528" y="1346.3843563447115"/>
      <point x="451.45668146334" y="1477.0"/>
      <point x="368.0188274911985" y="1477.0" type="qcurve" smooth="yes"/>
      <point x="284.75118628501457" y="1477.0"/>
      <point x="197.32909842338896" y="1365.787234042553"/>
      <point x="200.54255319148936" y="1261.0" type="qcurve" smooth="yes"/>
      <point x="200.54255319148936" y="1234.0" type="line"/>
      <point x="224.01882749119855" y="1234.0" type="line"/>
      <point x="224.01882749119855" y="1274.3384912959382" type="line" smooth="yes"/>
      <point x="224.01882749119855" y="1370.8820116054158"/>
      <point x="300.93399742764507" y="1466.7792207792209"/>
      <point x="368.07077554314657" y="1466.7792207792209" type="qcurve" smooth="yes"/>
      <point x="438.9809717299386" y="1466.7792207792209"/>
      <point x="510.0188274911985" y="1342.2337662337663"/>
      <point x="510.0188274911985" y="1202.0" type="qcurve" smooth="yes"/>
    </contour>
    <contour>
      <point x="513.6145721720496" y="1149.0" type="line"/>
      <point x="377.1039338741773" y="1149.0" type="line" smooth="yes"/>
      <point x="276.30437777437623" y="1149.0"/>
      <point x="178.5" y="1028.0"/>
      <point x="178.5" y="919.9574468085107" type="qcurve" smooth="yes"/>
      <point x="178.5" y="816.0"/>
      <point x="254.90012245522732" y="692.0"/>
      <point x="322.59880606153376" y="692.0" type="qcurve" smooth="yes"/>
      <point x="381.15767203866085" y="692.0"/>
      <point x="496.6358487677943" y="761.7021276595744"/>
      <point x="519.4869125975815" y="793.2765957446809" type="qcurve"/>
      <point x="515.5720189805602" y="800.3205305332965" type="line"/>
      <point x="481.99755089545386" y="761.7673390439348"/>
      <point x="377.40871420023416" y="702.1948051948052"/>
      <point x="330.0188274911985" y="702.1948051948052" type="qcurve" smooth="yes"/>
      <point x="268.9409054132764" y="702.1948051948052"/>
      <point x="202.01882749119855" y="822.5064935064935"/>
      <point x="202.01882749119855" y="920.0425531914893" type="qcurve" smooth="yes"/>
      <point x="202.01882749119855" y="1026.4675324675325"/>
      <point x="291.0448015171726" y="1139.4025974025974"/>
      <point x="381.0448015171726" y="1139.4025974025974" type="qcurve" smooth="yes"/>
      <point x="513.6145721720496" y="1139.4025974025974" type="line"/>
    </contour>
  </outline>
</glyph>
<glyph name="guillemotleft" format="2">
  <advance width="1015.4130567886116"/>
  <unicode hex="00AB"/>
  <guideline y="901.0000000000002" identifier="ZftBQarVKw"/>
  <guideline y="555.0000000000002" identifier="MVJpdoVRVd"/>
  <outline>
    <contour>
      <point x="145.5" y="546.468085106383" type="line"/>
      <point x="145.5" y="555.5531914893617" type="line"/>
      <point x="405.51657916551534" y="949.0" type="line"/>
      <point x="434.0785244145109" y="949.0" type="line"/>
      <point x="176.07852441451095" y="551.0" type="line"/>
      <point x="434.0785244145109" y="153.0" type="line"/>
      <point x="405.51657916551534" y="153.0" type="line"/>
    </contour>
    <contour>
      <point x="603.0359712230215" y="547.4468085106383" type="line"/>
      <point x="603.0359712230215" y="554.5744680851063" type="line"/>
      <point x="863.0525503885368" y="949.0" type="line"/>
      <point x="890.9130567886116" y="949.0" type="line"/>
      <point x="632.9130567886116" y="551.0" type="line"/>
      <point x="890.9130567886116" y="153.0" type="line"/>
      <point x="863.0525503885368" y="153.0" type="line"/>
    </contour>
  </outline>
</glyph>
<glyph name="registered" format="2">
  <advance width="1729.0"/>
  <unicode hex="00AE"/>
  <outline>
    <contour>
      <point x="213.5" y="687.0" type="qcurve" smooth="yes"/>
      <point x="213.5" y="1039.0"/>
      <point x="538.5" y="1519.0"/>
      <point x="864.5" y="1519.0" type="qcurve" smooth="yes"/>
      <point x="1189.5" y="1519.0"/>
      <point x="1516.4787234042553" y="1039.0"/>
      <point x="1516.4787234042553" y="687.0" type="qcurve" smooth="yes"/>
      <point x="1516.4787234042553" y="337.0"/>
      <point x="1189.5" y="-147.0"/>
      <point x="864.5" y="-147.0" type="qcurve" smooth="yes"/>
      <point x="538.5" y="-147.0"/>
      <point x="213.5" y="337.0"/>
    </contour>
    <contour>
      <point x="223.5" y="687.0" type="qcurve" smooth="yes"/>
      <point x="223.5" y="342.53246753246754"/>
      <point x="542.0584415584416" y="-136.25974025974025"/>
      <point x="865.5" y="-136.25974025974025" type="qcurve" smooth="yes"/>
      <point x="1185.9935064935064" y="-136.25974025974025"/>
      <point x="1506.5" y="342.53246753246754"/>
      <point x="1506.5" y="687.0" type="qcurve" smooth="yes"/>
      <point x="1506.5" y="1034.4155844155844"/>
      <point x="1185.9935064935064" y="1508.2337662337663"/>
      <point x="865.5" y="1508.2337662337663" type="qcurve" smooth="yes"/>
      <point x="542.0584415584416" y="1508.2337662337663"/>
      <point x="223.5" y="1033.4415584415585"/>
    </contour>
    <contour>
      <point x="687.3538190724016" y="225.0" type="line"/>
      <point x="687.3538190724016" y="1158.0" type="line"/>
      <point x="860.3270319914282" y="1158.0" type="line" smooth="yes"/>
      <point x="959.0696464105312" y="1158.0"/>
      <point x="1067.4320373488442" y="1010.1702127659574"/>
      <point x="1067.4320373488442" y="859.3829787234042" type="qcurve" smooth="yes"/>
      <point x="1067.4320373488442" y="724.0791635274262"/>
      <point x="973.0497474360936" y="597.0"/>
      <point x="887.5913295337756" y="597.0" type="qcurve" smooth="yes"/>
      <point x="696.0957446808511" y="597.0" type="line"/>
      <point x="696.0957446808511" y="607.4805194805194" type="line"/>
      <point x="882.8198377468239" y="607.4805194805194" type="line" smooth="yes"/>
      <point x="963.6402301204076" y="607.4805194805194"/>
      <point x="1051.8198377468239" y="729.702680298425"/>
      <point x="1051.8198377468239" y="859.0" type="qcurve" smooth="yes"/>
      <point x="1051.8198377468239" y="1001.3636363636364"/>
      <point x="950.4951624221485" y="1147.2337662337663"/>
      <point x="857.8198377468239" y="1147.2597402597403" type="qcurve" smooth="yes"/>
      <point x="704.7299096892698" y="1147.2597402597403" type="line"/>
      <point x="704.7299096892698" y="225.0" type="line"/>
    </contour>
    <contour>
      <point x="1077.8198377468239" y="225.0" type="line"/>
      <point x="892.910746837733" y="601.8701298701299" type="line"/>
      <point x="902.4756958180346" y="604.7922077922078" type="line"/>
      <point x="915.5013935245836" y="591.2467532467532"/>
      <point x="930.6015613041482" y="559.0"/>
      <point x="945.3668299403031" y="530.0" type="qcurve" smooth="yes"/>
      <point x="1091.8561916424308" y="233.2127659574468" type="line"/>
      <point x="1091.8561916424308" y="225.0" type="line"/>
    </contour>
  </outline>
</glyph>
<glyph name="degree" format="2">
  <advance width="618.5641359253023"/>
  <unicode hex="00B0"/>
  <outline>
    <contour>
      <point x="165.54382978723405" y="1212.089928057554" type="qcurve"/>
      <point x="165.54382978723405" y="1338.7899892851676"/>
      <point x="242.03043624674729" y="1477.0"/>
      <point x="310.9432634318078" y="1477.0" type="qcurve" smooth="yes"/>
      <point x="378.8560906168682" y="1477.0"/>
      <point x="453.04413592530227" y="1338.7696907776835"/>
      <point x="453.04413592530227" y="1212.089928057554" type="qcurve" smooth="yes"/>
      <point x="453.04413592530227" y="1086.5401494593789"/>
      <point x="378.84594136316014" y="950.1798561151079"/>
      <point x="310.9432634318078" y="950.1798561151079" type="qcurve" smooth="yes"/>
      <point x="242.2131228138993" y="950.1798561151079"/>
      <point x="165.54382978723405" y="1086.347313638451"/>
    </contour>
    <contour>
      <point x="179.9432634318078" y="1212.089928057554" type="qcurve"/>
      <point x="179.9432634318078" y="1093.6260009399057"/>
      <point x="248.35971623272604" y="965.2327852004112"/>
      <point x="310.9432634318078" y="965.2327852004112" type="qcurve" smooth="yes"/>
      <point x="371.5787586828376" y="965.2327852004112"/>
      <point x="437.9432634318078" y="1093.6260009399057"/>
      <point x="437.9432634318078" y="1212.089928057554" type="qcurve" smooth="yes"/>
      <point x="437.9432634318078" y="1332.3553438357842"/>
      <point x="371.5787586828376" y="1461.947070914697"/>
      <point x="310.9432634318078" y="1461.947070914697" type="qcurve" smooth="yes"/>
      <point x="248.35971623272604" y="1461.947070914697"/>
      <point x="179.9432634318078" y="1332.3553438357842"/>
    </contour>
  </outline>
</glyph>
<glyph name="threesuperior" format="2">
  <advance width="555.987524873718"/>
  <unicode hex="00B3"/>
  <outline>
    <contour>
      <point x="100.5" y="920.0" type="qcurve" smooth="yes"/>
      <point x="100.5" y="923.0" type="line"/>
      <point x="128.22746058472373" y="923.0" type="line"/>
      <point x="128.22746058472373" y="920.0" type="line" smooth="yes"/>
      <point x="128.22746058472373" y="812.6623376623377"/>
      <point x="200.41646307159854" y="696.4025974025974"/>
      <point x="265.44243709757257" y="696.4025974025974" type="qcurve" smooth="yes"/>
      <point x="334.4424370975726" y="696.4025974025974"/>
      <point x="407.2274605847237" y="814.6363636363636"/>
      <point x="407.2274605847237" y="921.0851063829788" type="qcurve" smooth="yes"/>
      <point x="407.2274605847237" y="1019.8831168831168"/>
      <point x="310.77291513017826" y="1093.2597402597403"/>
      <point x="258.22746058472376" y="1092.3116883116884" type="qcurve" smooth="yes"/>
      <point x="174.22746058472373" y="1092.3116883116884" type="line"/>
      <point x="174.22746058472373" y="1102.2987012987012" type="line"/>
      <point x="258.22746058472376" y="1102.2987012987012" type="line" smooth="yes"/>
      <point x="312.69499305225617" y="1102.2987012987012"/>
      <point x="394.2274605847237" y="1173.8831168831168"/>
      <point x="394.2274605847237" y="1257.936170212766" type="qcurve" smooth="yes"/>
      <point x="394.2274605847237" y="1362.3116883116884"/>
      <point x="328.525056605724" y="1476.5974025974026"/>
      <point x="268.29129037195776" y="1476.5974025974026" type="qcurve" smooth="yes"/>
      <point x="204.47310855377594" y="1476.5974025974026"/>
      <point x="139.22746058472373" y="1362.3116883116884"/>
      <point x="139.22746058472373" y="1256.0" type="qcurve" smooth="yes"/>
      <point x="139.22746058472373" y="1252.0" type="line"/>
      <point x="111.5" y="1252.0" type="line"/>
      <point x="111.5" y="1256.0" type="line" smooth="yes"/>
      <point x="111.5" y="1366.787234042553"/>
      <point x="186.09230062758303" y="1487.0"/>
      <point x="268.21336829403566" y="1487.0" type="qcurve" smooth="yes"/>
      <point x="343.87601408235116" y="1487.0"/>
      <point x="421.5300780652074" y="1368.0851063829787"/>
      <point x="421.5300780652074" y="1258.1063829787233" type="qcurve" smooth="yes"/>
      <point x="421.5300780652074" y="1193.6815398744834"/>
      <point x="368.31731210776064" y="1113.1489361702127"/>
      <point x="307.51239362199107" y="1098.0" type="qcurve"/>
      <point x="307.51239362199107" y="1097.0" type="line"/>
      <point x="372.38114189499464" y="1082.787234042553"/>
      <point x="434.4875248737181" y="1000.2971835297719"/>
      <point x="434.4875248737181" y="920.9148936170212" type="qcurve" smooth="yes"/>
      <point x="434.4875248737181" y="807.9787234042553"/>
      <point x="346.9638757079443" y="686.0"/>
      <point x="266.29129037195776" y="686.0" type="qcurve" smooth="yes"/>
      <point x="185.13072095515076" y="686.0"/>
      <point x="100.5" y="806.8936170212766"/>
    </contour>
  </outline>
</glyph>
<glyph name="paragraph" format="2">
  <advance width="692.0"/>
  <unicode hex="00B6"/>
  <guideline y="901.0000000000002" identifier="27539Lsr1A"/>
  <guideline y="555.0000000000002" identifier="e34wUdCmXR"/>
  <outline>
    <contour>
      <point x="301.69148936170217" y="-146.0" type="line"/>
      <point x="290.8829787234043" y="-146.0" type="line"/>
      <point x="290.8829787234043" y="1150.127659574468" type="line"/>
      <point x="255.75531914893617" y="1150.127659574468" type="line" smooth="yes"/>
      <point x="177.22340425531917" y="1150.127659574468"/>
      <point x="93.5" y="1236.936170212766"/>
      <point x="93.5" y="1303.063829787234" type="qcurve" smooth="yes"/>
      <point x="93.5" y="1368.1702127659573"/>
      <point x="177.22340425531917" y="1456.0"/>
      <point x="255.75531914893617" y="1456.0" type="qcurve" smooth="yes"/>
      <point x="301.69148936170217" y="1456.0" type="line"/>
    </contour>
    <contour>
      <point x="443.69148936170217" y="1459.0" type="line"/>
      <point x="454.5" y="1459.0" type="line"/>
      <point x="454.5" y="-146.0" type="line"/>
      <point x="443.69148936170217" y="-146.0" type="line"/>
    </contour>
  </outline>
</glyph>
<glyph name="onesuperior" format="2">
  <advance width="688.8976733506811"/>
  <unicode hex="00B9"/>
  <outline>
    <contour>
      <point x="160.5" y="1400.16772589113" type="line"/>
      <point x="160.5" y="1410.127659574468" type="line"/>
      <point x="370.20212765957444" y="1486.0" type="line"/>
      <point x="401.39767335068115" y="1486.0" type="line"/>
      <point x="401.39767335068115" y="697.0" type="line"/>
      <point x="373.56382978723406" y="697.0" type="line"/>
      <point x="373.56382978723406" y="1477.16772589113" type="line"/>
    </contour>
  </outline>
</glyph>
<glyph name="ordmasculine" format="2">
  <advance width="736.2860860247972"/>
  <unicode hex="00BA"/>
  <guideline y="1975.0" identifier="Jnt0R9CyOf"/>
  <outline>
    <contour>
      <point x="161.2" y="1044.4028776978416" type="qcurve"/>
      <point x="161.2" y="1122.5971223021584" type="line"/>
      <point x="161.2" y="1292.9581356191643"/>
      <point x="268.21232205724783" y="1477.0"/>
      <point x="367.35368131027093" y="1477.0" type="qcurve" smooth="yes"/>
      <point x="466.51631715903875" y="1477.0"/>
      <point x="574.4860860247973" y="1292.9581356191643"/>
      <point x="574.4860860247973" y="1122.5971223021584" type="qcurve"/>
      <point x="574.4860860247973" y="1044.4028776978416" type="line"/>
      <point x="574.4860860247973" y="874.0418643808357"/>
      <point x="467.51631715903875" y="691.0"/>
      <point x="369.35368131027093" y="691.0" type="qcurve" smooth="yes"/>
      <point x="269.21232205724783" y="691.0"/>
      <point x="161.2" y="874.0418643808357"/>
    </contour>
    <contour>
      <point x="188.35368131027093" y="1124.0" type="qcurve"/>
      <point x="188.35368131027093" y="1043.0" type="line"/>
      <point x="188.35368131027093" y="878.9480519480519"/>
      <point x="282.2238111804008" y="701.4285714285714"/>
      <point x="369.35368131027093" y="701.4285714285714" type="qcurve" smooth="yes"/>
      <point x="455.431603388193" y="701.4285714285714"/>
      <point x="547.353681310271" y="878.9480519480519"/>
      <point x="547.353681310271" y="1043.0" type="qcurve"/>
      <point x="547.353681310271" y="1124.0" type="line"/>
      <point x="547.353681310271" y="1288.974025974026"/>
      <point x="454.431603388193" y="1466.5194805194806"/>
      <point x="367.35368131027093" y="1466.5194805194806" type="qcurve" smooth="yes"/>
      <point x="281.24978520637484" y="1466.5194805194806"/>
      <point x="188.35368131027093" y="1288.974025974026"/>
    </contour>
  </outline>
</glyph>
<glyph name="questiondown" format="2">
  <advance width="726.0088014694627"/>
  <unicode hex="00BF"/>
  <outline>
    <contour>
      <point x="440.9014235420174" y="1123.5394918108068" type="qcurve" smooth="yes"/>
      <point x="440.9014235420174" y="1109.9039491810806"/>
      <point x="422.6076840655136" y="1089.8023878769325"/>
      <point x="405.3777743762437" y="1089.8023878769325" type="qcurve" smooth="yes"/>
      <point x="388.8493035358947" y="1089.8023878769325"/>
      <point x="370.5555640593908" y="1109.9039491810806"/>
      <point x="370.5555640593908" y="1123.5394918108068" type="qcurve" smooth="yes"/>
      <point x="370.5555640593908" y="1137.8764732894535"/>
      <point x="388.8493035358947" y="1157.276595744681"/>
      <point x="405.3777743762437" y="1157.276595744681" type="qcurve" smooth="yes"/>
      <point x="422.6076840655136" y="1157.276595744681"/>
      <point x="440.9014235420174" y="1137.8764732894535"/>
    </contour>
    <contour>
      <point x="628.5088014694627" y="51.597122302158276" type="line"/>
      <point x="628.5088014694627" y="31.597122302158272" type="line" smooth="yes"/>
      <point x="628.5088014694627" y="-129.48798408082044"/>
      <point x="501.1937853972141" y="-329.40287769784175"/>
      <point x="377.8444818613195" y="-329.40287769784175" type="qcurve" smooth="yes"/>
      <point x="250.85756926373796" y="-329.40287769784175"/>
      <point x="131.5" y="-123.40287769784173"/>
      <point x="131.5" y="46.597122302158276" type="qcurve" smooth="yes"/>
      <point x="131.5" y="180.04255319148936"/>
      <point x="201.07171284249196" y="310.8538190724017"/>
      <point x="286.7902954232359" y="391.4921169447421" type="qcurve" smooth="yes"/>
      <point x="360.33935404867594" y="459.2594520128578"/>
      <point x="404.5692637379458" y="567.7941221490893"/>
      <point x="405.27070258686666" y="660.1578907087097" type="qcurve" smooth="yes"/>
      <point x="405.27070258686666" y="729.5827338129496" type="line"/>
      <point x="416.07921322516455" y="729.5827338129496" type="line"/>
      <point x="416.07921322516455" y="660.1578907087097" type="line" smooth="yes"/>
      <point x="416.07921322516455" y="568.7282259298944"/>
      <point x="377.52602173580283" y="461.789300474514"/>
      <point x="305.0153834379305" y="387.0864840042859" type="qcurve" smooth="yes"/>
      <point x="221.33522118475432" y="304.12903719577525"/>
      <point x="159.84448186131948" y="176.2361089851523"/>
      <point x="159.84448186131948" y="45.89568345323741" type="qcurve" smooth="yes"/>
      <point x="159.84448186131948" y="-118.41821541385295"/>
      <point x="268.82320526557476" y="-318.3769036718677"/>
      <point x="375.8870350528088" y="-318.3769036718677" type="qcurve" smooth="yes"/>
      <point x="485.8870350528088" y="-318.3769036718677"/>
      <point x="600.8870350528088" y="-121.84443613940016"/>
      <point x="600.8870350528088" y="31.597122302158272" type="qcurve" smooth="yes"/>
      <point x="600.8870350528088" y="51.597122302158276" type="line"/>
    </contour>
  </outline>
</glyph>
<glyph name="multiply" format="2">
  <advance width="1107"/>
  <unicode hex="00D7"/>
  <outline>
    <contour>
      <point x="191" y="296" type="line"/>
      <point x="183" y="303" type="line"/>
      <point x="905" y="1042" type="line"/>
      <point x="913" y="1034" type="line"/>
    </contour>
    <contour>
      <point x="905" y="296" type="line"/>
      <point x="183" y="1034" type="line"/>
      <point x="191" y="1042" type="line"/>
      <point x="913" y="303" type="line"/>
    </contour>
  </outline>
</glyph>
<glyph name="thorn" format="2">
  <advance width="925.7740701056176"/>
  <unicode hex="00FE"/>
  <outline>
    <contour>
      <point x="213.84448186131948" y="-416.0" type="line"/>
      <point x="185.5" y="-416.0" type="line"/>
      <point x="185.5" y="1536.0" type="line"/>
      <point x="213.84448186131948" y="1536.0" type="line"/>
      <point x="213.84448186131948" y="792.0" type="line"/>
    </contour>
    <contour>
      <point x="501.4358054313664" y="-9.233766233766232" type="qcurve" smooth="yes"/>
      <point x="602.5990660005843" y="-9.233766233766232"/>
      <point x="774.8444818613194" y="229.6420779220779"/>
      <point x="774.8444818613194" y="438.1038961038961" type="qcurve" smooth="yes"/>
      <point x="774.8444818613194" y="481.7922077922078" type="line" smooth="yes"/>
      <point x="774.8444818613194" y="700.0171649626969"/>
      <point x="607.6242110682826" y="925.2337662337663"/>
      <point x="501.4452002918252" y="925.2337662337663" type="qcurve" smooth="yes"/>
      <point x="359.3348604189321" y="925.2337662337663"/>
      <point x="212.9295882442982" y="660.5997457861287"/>
      <point x="212.9295882442982" y="485.87012987012986" type="qcurve" smooth="yes"/>
      <point x="212.9295882442982" y="453.0" type="line" smooth="yes"/>
      <point x="212.9295882442982" y="248.6148217739707"/>
      <point x="358.95862388950405" y="-9.233766233766232"/>
    </contour>
    <contour>
      <point x="506.55298474677016" y="-20.0" type="qcurve" smooth="yes"/>
      <point x="365.5015146280323" y="-20.0"/>
      <point x="201.84723710393388" y="252.52051948051948"/>
      <point x="201.84723710393388" y="452.0" type="qcurve" smooth="yes"/>
      <point x="201.84723710393388" y="486.0" type="line" smooth="yes"/>
      <point x="201.84723710393388" y="665.5353191489362"/>
      <point x="369.8253941527629" y="936.0"/>
      <point x="507.5270107207961" y="936.0" type="qcurve" smooth="yes"/>
      <point x="635.4140486759529" y="936.0"/>
      <point x="803.2740701056176" y="701.8655319148936"/>
      <point x="803.2740701056176" y="474.0" type="qcurve" smooth="yes"/>
      <point x="803.2740701056176" y="442.0" type="line" smooth="yes"/>
      <point x="803.2740701056176" y="226.90893617021277"/>
      <point x="630.5533136662815" y="-20.0"/>
    </contour>
  </outline>
</glyph>
<glyph name="florin" format="2">
  <advance width="939.3870350528088"/>
  <unicode hex="0192"/>
  <outline>
    <contour>
      <point x="745.8870350528088" y="818.6883116883117" type="line"/>
      <point x="745.8870350528088" y="808.1818181818182" type="line"/>
      <point x="166.5" y="808.1818181818182" type="line"/>
      <point x="166.5" y="818.6883116883117" type="line"/>
    </contour>
    <contour>
      <point x="435.8232052655748" y="111.0" type="line" smooth="yes"/>
      <point x="435.8232052655748" y="-173.0"/>
      <point x="311.7422317465177" y="-437.0"/>
      <point x="148.91726618705036" y="-437.0" type="qcurve" smooth="yes"/>
      <point x="113.00719424460432" y="-437.0"/>
      <point x="56.5" y="-430.0"/>
      <point x="28.5" y="-420.0" type="qcurve"/>
      <point x="29.837662337662337" y="-410.2857142857143" type="line"/>
      <point x="57.5" y="-419.2077922077922"/>
      <point x="107.01948051948052" y="-426.2077922077922"/>
      <point x="140.5" y="-426.2077922077922" type="qcurve" smooth="yes"/>
      <point x="293.5770931196463" y="-426.2077922077922"/>
      <point x="407.5" y="-163.88311688311688"/>
      <point x="407.5" y="111.0" type="qcurve" smooth="yes"/>
      <point x="407.5" y="1126.0" type="line" smooth="yes"/>
      <point x="407.5" y="1338.1961867919313"/>
      <point x="502.3311767828069" y="1487.0"/>
      <point x="599.8911559892732" y="1487.0" type="qcurve" smooth="yes"/>
      <point x="671.593295576305" y="1487.0"/>
      <point x="800.1855962038879" y="1434.7014388489208"/>
      <point x="840.8870350528088" y="1404.0" type="qcurve"/>
      <point x="834.8870350528088" y="1395.3636363636365" type="line"/>
      <point x="792.9649571307308" y="1426.3636363636365"/>
      <point x="670.9779441437179" y="1475.844155844156"/>
      <point x="604.4974246631983" y="1475.844155844156" type="qcurve" smooth="yes"/>
      <point x="519.8024813086806" y="1475.844155844156"/>
      <point x="435.8232052655748" y="1328.2630560928433"/>
      <point x="435.8232052655748" y="1126.0" type="qcurve" smooth="yes"/>
    </contour>
  </outline>
</glyph>
<glyph name="acutecomb" format="2">
  <unicode hex="0301"/>
  <anchor x="-4.2086330935251794" y="1052.0" name="_top"/>
  <anchor x="-4.2086330935251794" y="1604.2086330935251" name="top"/>
  <outline>
    <contour>
      <point x="-81.3896103896104" y="1216.6486499112398" type="line"/>
      <point x="145.52648094290527" y="1537.9705342109291" type="line"/>
      <point x="158.58411143425687" y="1553.7782795040564" type="line"/>
      <point x="-62.672661870503596" y="1226.2230215827337" type="line"/>
    </contour>
  </outline>
</glyph>
<glyph name="tildecomb" format="2">
  <unicode hex="0303"/>
  <anchor x="0.7014388489208633" y="1052.0" name="_top"/>
  <anchor x="0.7014388489208633" y="1487.7014388489208" name="top"/>
  <outline>
    <contour>
      <point x="-345.85714285714283" y="1282.740399887882" type="line"/>
      <point x="-319.93381950974174" y="1345.3456795768138"/>
      <point x="-227.72713257965054" y="1429.5730904637992"/>
      <point x="-157.95813561916424" y="1429.5730904637992" type="qcurve" smooth="yes"/>
      <point x="-111.1290371957753" y="1429.5730904637992"/>
      <point x="-30.129037195775293" y="1372.5950558701975"/>
      <point x="-2.9375478340731656" y="1353.4461196999846" type="qcurve" smooth="yes"/>
      <point x="26.16883514465024" y="1333.0837287616714"/>
      <point x="122.78654523189958" y="1279.3390479106076"/>
      <point x="164.70143884892087" y="1279.3390479106076" type="qcurve" smooth="yes"/>
      <point x="225.1559843034663" y="1279.3390479106076"/>
      <point x="298.0780622255443" y="1363.092983474508"/>
      <point x="321.0780622255443" y="1427.7532467532467" type="qcurve"/>
      <point x="326.80547510043914" y="1420.6102494627676" type="line"/>
      <point x="308.58455573203776" y="1361.7355583342114"/>
      <point x="230.39472428688717" y="1266.4481861319457"/>
      <point x="164.40356650849535" y="1266.4481861319457" type="qcurve" smooth="yes"/>
      <point x="117.63829787234042" y="1266.4481861319457"/>
      <point x="20.361013317005966" y="1321.086484004286"/>
      <point x="-8.63898668299403" y="1341.4063217511098" type="qcurve" smooth="yes"/>
      <point x="-38.340425531914896" y="1362.4275983468544"/>
      <point x="-116.1063829787234" y="1416.6396754936477"/>
      <point x="-159.0" y="1416.6396754936477" type="qcurve" smooth="yes"/>
      <point x="-225.67988195793183" y="1416.6396754936477"/>
      <point x="-315.2596001121181" y="1336.200055263885"/>
      <point x="-340.2596001121181" y="1275.7532467532467" type="qcurve"/>
    </contour>
  </outline>
</glyph>
<glyph name="macroncomb" format="2">
  <unicode hex="0304"/>
  <anchor x="0.0" y="1052.0" name="_top"/>
  <anchor x="0.0" y="1241.7402597402597" name="top"/>
  <outline>
    <contour>
      <point x="314.0" y="1242.1691114640753" type="line"/>
      <point x="314.0" y="1230.0" type="line"/>
      <point x="-314.0" y="1230.0" type="line"/>
      <point x="-314.0" y="1242.1691114640753" type="line"/>
    </contour>
  </outline>
</glyph>
<glyph name="brevecomb" format="2">
  <unicode hex="0306"/>
  <anchor x="0.7014388489208633" y="1052.0" name="_top"/>
  <anchor x="0.7014388489208633" y="1519.4028776978416" name="top"/>
  <outline>
    <contour>
      <point x="331.8833971783612" y="1467.753527048491" type="qcurve"/>
      <point x="338.40287769784175" y="1465.1043165467627" type="line"/>
      <point x="302.7014388489209" y="1364.0"/>
      <point x="126.70143884892086" y="1197.0"/>
      <point x="0.7014388489208633" y="1197.0" type="qcurve" smooth="yes"/>
      <point x="-112.29856115107914" y="1197.0"/>
      <point x="-293.2985611510791" y="1351.0"/>
      <point x="-336.0" y="1466.4028776978416" type="qcurve"/>
      <point x="-329.5064935064935" y="1469.7015789965428" type="line"/>
      <point x="-294.6004421110804" y="1371.5011112414297"/>
      <point x="-113.45744482060111" y="1210.8476197765192"/>
      <point x="0.7014388489208633" y="1210.8476197765192" type="qcurve" smooth="yes"/>
      <point x="120.86253307384487" y="1210.8476197765192"/>
      <point x="293.02238584926477" y="1367.4823215205124"/>
    </contour>
  </outline>
</glyph>
<glyph name="dieresiscomb" format="2">
  <unicode hex="0308"/>
  <anchor x="2.805755395683453" y="1052.0" name="_GRK_top"/>
  <anchor x="2.805755395683453" y="1052.0" name="_top"/>
  <anchor x="2.805755395683453" y="1435.910071942446" name="top"/>
  <outline>
    <contour>
      <point x="-242.7872340425532" y="1244.4866064595133" type="qcurve" smooth="yes"/>
      <point x="-242.7872340425532" y="1255.9327261594979"/>
      <point x="-227.4694627276902" y="1273.3356038573395"/>
      <point x="-213.8956834532374" y="1273.3356038573395" type="qcurve" smooth="yes"/>
      <point x="-198.62046532986378" y="1273.3356038573395"/>
      <point x="-183.30269401500075" y="1255.9327261594979"/>
      <point x="-183.30269401500075" y="1244.4866064595133" type="qcurve" smooth="yes"/>
      <point x="-183.30269401500075" y="1232.381601102097"/>
      <point x="-198.62046532986378" y="1215.9787234042553"/>
      <point x="-213.8956834532374" y="1215.9787234042553" type="qcurve" smooth="yes"/>
      <point x="-227.4694627276902" y="1215.9787234042553"/>
      <point x="-242.7872340425532" y="1232.381601102097"/>
    </contour>
    <contour>
      <point x="189.89292821062298" y="1244.4866064595133" type="qcurve" smooth="yes"/>
      <point x="189.89292821062298" y="1255.9327261594979"/>
      <point x="204.21069952548598" y="1272.3568804530842"/>
      <point x="219.4859176488596" y="1272.3568804530842" type="qcurve" smooth="yes"/>
      <point x="233.0596969233124" y="1272.3568804530842"/>
      <point x="248.3987448339201" y="1255.9327261594979"/>
      <point x="248.3987448339201" y="1244.4866064595133" type="qcurve" smooth="yes"/>
      <point x="248.3987448339201" y="1232.381601102097"/>
      <point x="233.0596969233124" y="1215.9787234042553"/>
      <point x="219.4859176488596" y="1215.9787234042553" type="qcurve" smooth="yes"/>
      <point x="204.21069952548598" y="1215.9787234042553"/>
      <point x="189.89292821062298" y="1232.381601102097"/>
    </contour>
  </outline>
</glyph>
<glyph name="hookabovecomb" format="2">
  <unicode hex="0309"/>
  <anchor x="2.1043165467625897" y="1052.0" name="_top"/>
  <anchor x="2.1043165467625897" y="1694.1043165467627" name="top"/>
  <outline>
    <contour>
      <point x="-3.6099691675231185" y="1220.0" type="line"/>
      <point x="-3.6099691675231185" y="1259.0" type="line" smooth="yes"/>
      <point x="-3.6099691675231185" y="1328.5324675324675"/>
      <point x="-0.12944968700364434" y="1334.2467532467533"/>
      <point x="24.753667196113238" y="1337.4545454545455" type="qcurve" smooth="yes"/>
      <point x="111.3103106903811" y="1346.5158883669521"/>
      <point x="219.06314097658043" y="1437.264850181198"/>
      <point x="219.06314097658043" y="1510.746058472371" type="qcurve" smooth="yes"/>
      <point x="219.06314097658043" y="1584.2786621766415"/>
      <point x="102.7645798255013" y="1680.9595132404713"/>
      <point x="11.295805908464718" y="1680.9595132404713" type="qcurve" smooth="yes"/>
      <point x="-47.81057707025869" y="1680.9595132404713"/>
      <point x="-166.38504515536508" y="1645.980789836216"/>
      <point x="-215.8105770702587" y="1620.2148323894075" type="qcurve"/>
      <point x="-222.0" y="1633.4028776978416" type="line"/>
      <point x="-171.0" y="1658.4028776978416"/>
      <point x="-49.597122302158276" y="1695.083039951018"/>
      <point x="11.955380376549826" y="1695.083039951018" type="qcurve" smooth="yes"/>
      <point x="107.48729527016684" y="1695.083039951018"/>
      <point x="232.88948415735496" y="1593.8064442063371"/>
      <point x="232.88948415735496" y="1512.340425531915" type="qcurve" smooth="yes"/>
      <point x="232.88948415735496" y="1431.6493506493507"/>
      <point x="108.90260336632602" y="1332.0569218016028"/>
      <point x="6.844576287022335" y="1325.025974025974" type="qcurve"/>
      <point x="6.844576287022335" y="1220.0" type="line"/>
    </contour>
  </outline>
</glyph>
<glyph name="ringcomb" format="2">
  <unicode hex="030A"/>
  <anchor x="2.1043165467625897" y="1052.0" name="_top"/>
  <anchor x="2.1043165467625897" y="1651.2086330935251" name="top"/>
  <outline>
    <contour>
      <point x="-226.0" y="1431.1043165467627" type="qcurve"/>
      <point x="-226.0" y="1521.8057553956835"/>
      <point x="-94.59712230215827" y="1651.2086330935251"/>
      <point x="2.1043165467625897" y="1651.2086330935251" type="qcurve" smooth="yes"/>
      <point x="99.7419256084494" y="1651.2086330935251"/>
      <point x="230.20863309352518" y="1521.8057553956835"/>
      <point x="230.20863309352518" y="1431.1043165467627" type="qcurve" smooth="yes"/>
      <point x="230.20863309352518" y="1339.4028776978416"/>
      <point x="99.7419256084494" y="1215.0"/>
      <point x="2.1043165467625897" y="1215.0" type="qcurve" smooth="yes"/>
      <point x="-95.57584570641359" y="1215.0"/>
      <point x="-226.0" y="1339.4028776978416"/>
    </contour>
    <contour>
      <point x="-214.00275524261443" y="1431.1043165467627" type="qcurve"/>
      <point x="-214.00275524261443" y="1344.0404867595287"/>
      <point x="-92.23679779580591" y="1226.7632022041942"/>
      <point x="2.1043165467625897" y="1226.7632022041942" type="qcurve" smooth="yes"/>
      <point x="94.48798408082045" y="1226.7632022041942"/>
      <point x="218.2113883361396" y="1343.9979335680393"/>
      <point x="218.2113883361396" y="1431.1043165467627" type="qcurve" smooth="yes"/>
      <point x="218.2113883361396" y="1513.5943670595439"/>
      <point x="95.46670748507577" y="1638.7227154446655"/>
      <point x="2.1043165467625897" y="1638.7227154446655" type="qcurve" smooth="yes"/>
      <point x="-92.23679779580591" y="1638.7227154446655"/>
      <point x="-214.00275524261443" y="1513.5943670595439"/>
    </contour>
  </outline>
</glyph>
<glyph name="caroncomb" format="2">
  <unicode hex="030C"/>
  <anchor x="0.0" y="1052.0" name="_top"/>
  <anchor x="0.0" y="1535.1043165467627" name="top"/>
  <outline>
    <contour>
      <point x="-5.253252716975361" y="1213.0" type="line"/>
      <point x="-303.0" y="1528.8057553956835" type="line"/>
      <point x="-292.1818181818182" y="1528.8057553956835" type="line"/>
      <point x="0.0" y="1222.9972447573857" type="line"/>
      <point x="292.23376623376623" y="1528.8057553956835" type="line"/>
      <point x="303.0" y="1528.8057553956835" type="line"/>
      <point x="5.9546915658962245" y="1213.0" type="line"/>
    </contour>
  </outline>
</glyph>
<glyph name="breveinvertedcomb" format="2">
  <unicode hex="030F"/>
  <anchor x="0.0" y="1052.0" name="_top"/>
  <anchor x="0.0" y="1542.1043165467627" name="top"/>
  <outline>
    <contour>
      <point x="-328.45454545454544" y="1270.6493506493507" type="qcurve"/>
      <point x="-336.0" y="1274.0" type="line"/>
      <point x="-296.0" y="1376.7014388489208"/>
      <point x="-126.0" y="1542.1043165467627"/>
      <point x="0.0" y="1542.1043165467627" type="qcurve" smooth="yes"/>
      <point x="126.0" y="1542.1043165467627"/>
      <point x="296.0" y="1376.7014388489208"/>
      <point x="336.0" y="1273.0" type="qcurve"/>
      <point x="328.45454545454544" y="1269.6753246753246" type="line"/>
      <point x="275.802155291517" y="1387.713316608388"/>
      <point x="111.96186791931473" y="1527.5552579213224"/>
      <point x="0.0" y="1527.5552579213224" type="qcurve" smooth="yes"/>
      <point x="-113.91461729759602" y="1527.5552579213224"/>
      <point x="-278.7336280740536" y="1383.9023190952626"/>
    </contour>
  </outline>
</glyph>
<glyph name="horncomb" format="2">
  <unicode hex="031B"/>
  <anchor x="0.0" y="1052.0" name="_topright"/>
  <anchor x="0.0" y="1293.0" name="topright"/>
  <outline>
    <contour>
      <point x="0.0" y="1052.0" type="line"/>
      <point x="84.0" y="1052.0" type="line" smooth="yes"/>
      <point x="132.0" y="1052.0"/>
      <point x="204.0" y="1086.0"/>
      <point x="204.0" y="1126.2553191489362" type="qcurve" smooth="yes"/>
      <point x="204.0" y="1176.1702127659576"/>
      <point x="191.0" y="1257.0"/>
      <point x="181.0" y="1293.0" type="qcurve"/>
      <point x="199.374712995561" y="1293.0" type="line"/>
      <point x="209.5874789530078" y="1258.0425531914893"/>
      <point x="223.01301086790141" y="1174.6170212765958"/>
      <point x="223.01301086790141" y="1125.2978723404256" type="qcurve" smooth="yes"/>
      <point x="223.01301086790141" y="1078.051948051948"/>
      <point x="144.66319047552787" y="1041.7532467532467"/>
      <point x="84.59161181692943" y="1041.7532467532467" type="qcurve" smooth="yes"/>
      <point x="54.93617021276596" y="1041.7532467532467"/>
      <point x="6.463111356728378" y="1044.012987012987"/>
      <point x="0.0" y="1046.1948051948052" type="qcurve"/>
    </contour>
  </outline>
</glyph>
<glyph name="dieresisbelowcomb" format="2">
  <unicode hex="0324"/>
  <anchor x="3.5071942446043165" y="0.0" name="_bottom"/>
  <anchor x="3.5071942446043165" y="-424.5071942446043" name="bottom"/>
  <outline>
    <contour>
      <point x="-254.97872340425533" y="-220.33904791060766" type="qcurve" smooth="yes"/>
      <point x="-254.97872340425533" y="-207.70143884892087"/>
      <point x="-240.55456911066892" y="-193.29856115107913"/>
      <point x="-227.19424460431654" y="-193.29856115107913" type="qcurve" smooth="yes"/>
      <point x="-213.8977498851982" y="-193.29856115107913"/>
      <point x="-200.1112046532986" y="-208.76526863615493"/>
      <point x="-200.1112046532986" y="-220.33904791060766" type="qcurve" smooth="yes"/>
      <point x="-200.1112046532986" y="-232.95538037654984"/>
      <point x="-214.51408235114036" y="-246.37953467013622"/>
      <point x="-227.19424460431654" y="-246.37953467013622" type="qcurve" smooth="yes"/>
      <point x="-240.4907393234349" y="-246.37953467013622"/>
      <point x="-254.97872340425533" y="-231.91282718506048"/>
    </contour>
    <contour>
      <point x="207.12559314250726" y="-220.33904791060766" type="qcurve" smooth="yes"/>
      <point x="207.12559314250726" y="-207.70143884892087"/>
      <point x="221.54974743609367" y="-193.29856115107913"/>
      <point x="234.20863309352518" y="-193.29856115107913" type="qcurve" smooth="yes"/>
      <point x="247.5051278126435" y="-193.29856115107913"/>
      <point x="261.99311189346395" y="-208.76526863615493"/>
      <point x="261.99311189346395" y="-220.33904791060766" type="qcurve" smooth="yes"/>
      <point x="261.99311189346395" y="-232.95538037654984"/>
      <point x="247.59023419562223" y="-246.37953467013622"/>
      <point x="234.20863309352518" y="-246.37953467013622" type="qcurve" smooth="yes"/>
      <point x="220.91213837440685" y="-246.37953467013622"/>
      <point x="207.12559314250726" y="-231.91282718506048"/>
    </contour>
  </outline>
</glyph>
<glyph name="commaaccentcomb" format="2">
  <unicode hex="0326"/>
  <anchor x="0.0" y="0.0" name="_bottom"/>
  <anchor x="0.0" y="-600.0" name="bottom"/>
  <outline>
    <contour>
      <point x="-86.87012987012987" y="-598.9480519480519" type="line"/>
      <point x="11.385733966018671" y="-221.9169600489821" type="line"/>
      <point x="29.549058625440082" y="-221.87440685749272" type="line"/>
      <point x="-78.74025974025975" y="-600.0" type="line"/>
    </contour>
  </outline>
</glyph>
<glyph name="Delta" format="2">
  <advance width="1233.7247053421092"/>
  <unicode hex="0394"/>
  <outline>
    <contour>
      <point x="28.51298701298701" y="0.0" type="line"/>
      <point x="28.51298701298701" y="9.597402597402592" type="line"/>
      <point x="597.5212765957447" y="1466.0" type="line"/>
      <point x="636.2034287463646" y="1466.0" type="line"/>
      <point x="1206.2117183291223" y="9.597402597402592" type="line"/>
      <point x="1206.2117183291223" y="0.0" type="line"/>
    </contour>
    <contour>
      <point x="40.92138712351478" y="10.922077922077932" type="line"/>
      <point x="1173.291378833932" y="10.922077922077932" type="line"/>
      <point x="657.9468085106383" y="1331.9574468085107" type="line" smooth="yes"/>
      <point x="644.9468085106383" y="1363.9787234042553"/>
      <point x="619.1382978723404" y="1429.8936170212767"/>
      <point x="610.1808510638298" y="1454.0851063829787" type="qcurve"/>
      <point x="603.1170212765958" y="1454.0851063829787" type="line"/>
      <point x="591.2234042553191" y="1424.0212765957447"/>
      <point x="568.3250898038132" y="1362.0212765957447"/>
      <point x="554.3723404255319" y="1329.0212765957447" type="qcurve" smooth="yes"/>
    </contour>
  </outline>
</glyph>
<glyph name="Xi" format="2">
  <advance width="1215.0"/>
  <unicode hex="039E"/>
  <outline>
    <contour>
      <point x="105.5" y="0.0" type="line"/>
      <point x="105.5" y="11.441558441558442" type="line"/>
      <point x="1109.5" y="11.441558441558442" type="line"/>
      <point x="1109.5" y="0.0" type="line"/>
    </contour>
    <contour>
      <point x="207.5" y="742.8441558441558" type="line"/>
      <point x="207.5" y="754.2857142857143" type="line"/>
      <point x="1007.5" y="754.2857142857143" type="line"/>
      <point x="1007.5" y="742.8441558441558" type="line"/>
    </contour>
    <contour>
      <point x="105.5" y="1444.5584415584415" type="line"/>
      <point x="105.5" y="1456.0" type="line"/>
      <point x="1109.5" y="1456.0" type="line"/>
      <point x="1109.5" y="1444.5584415584415" type="line"/>
    </contour>
  </outline>
</glyph>
<glyph name="Phi" format="2">
  <advance width="1349.8392009796419"/>
  <unicode hex="03A6"/>
  <outline>
    <contour>
      <point x="662.2260829634165" y="-20.0" type="line"/>
      <point x="662.2260829634165" y="242.0" type="line"/>
      <point x="662.2260829634165" y="285.0" type="line"/>
      <point x="662.2260829634165" y="1192.0" type="line"/>
      <point x="662.2260829634165" y="1228.0" type="line"/>
      <point x="662.2260829634165" y="1476.0" type="line"/>
      <point x="691.2507270779122" y="1476.0" type="line"/>
      <point x="691.2507270779122" y="1228.0425531914893" type="line"/>
      <point x="691.2507270779122" y="1192.0212765957447" type="line"/>
      <point x="691.2507270779122" y="284.9574468085106" type="line"/>
      <point x="691.2507270779122" y="241.95744680851064" type="line"/>
      <point x="691.2507270779122" y="-20.0" type="line"/>
    </contour>
    <contour>
      <point x="632.1217664166539" y="194.0" type="line" smooth="yes"/>
      <point x="392.2611357722333" y="194.0"/>
      <point x="142.5" y="477.1914893617021"/>
      <point x="142.5" y="740.9574468085107" type="qcurve" smooth="yes"/>
      <point x="142.5" y="1001.7872340425532"/>
      <point x="392.2611357722333" y="1283.0"/>
      <point x="632.1217664166539" y="1283.0" type="qcurve" smooth="yes"/>
      <point x="718.4188734119087" y="1283.0" type="line" smooth="yes"/>
      <point x="957.5780652074086" y="1283.0"/>
      <point x="1207.3392009796419" y="1000.7872340425532"/>
      <point x="1207.3392009796419" y="738.0" type="qcurve" smooth="yes"/>
      <point x="1207.3392009796419" y="476.1914893617021"/>
      <point x="957.5780652074086" y="194.0"/>
      <point x="718.4188734119087" y="194.0" type="qcurve" smooth="yes"/>
    </contour>
    <contour>
      <point x="634.2260829634165" y="204.74025974025975" type="qcurve" smooth="yes"/>
      <point x="716.3145568651462" y="204.74025974025975" type="line" smooth="yes"/>
      <point x="940.0418295924189" y="204.74025974025975"/>
      <point x="1178.3145568651462" y="479.7402597402597"/>
      <point x="1178.3145568651462" y="737.9574468085107" type="qcurve" smooth="yes"/>
      <point x="1178.3145568651462" y="994.1558441558442"/>
      <point x="940.0418295924189" y="1272.2597402597403"/>
      <point x="716.3145568651462" y="1272.2597402597403" type="qcurve" smooth="yes"/>
      <point x="634.2260829634165" y="1272.2597402597403" type="line" smooth="yes"/>
      <point x="410.49881023614375" y="1272.2597402597403"/>
      <point x="172.2260829634165" y="997.2597402597403"/>
      <point x="172.2260829634165" y="741.0" type="qcurve" smooth="yes"/>
      <point x="172.2260829634165" y="482.84415584415586"/>
      <point x="410.49881023614375" y="204.74025974025975"/>
    </contour>
  </outline>
</glyph>
<glyph name="Psi" format="2">
  <advance width="1294.1604163477728"/>
  <unicode hex="03A8"/>
  <outline>
    <contour>
      <point x="632.5678861166385" y="0.0" type="line"/>
      <point x="632.5678861166385" y="1456.0" type="line"/>
      <point x="661.5925302311342" y="1456.0" type="line"/>
      <point x="661.5925302311342" y="0.0" type="line"/>
    </contour>
    <contour>
      <point x="630.7209551507731" y="361.0" type="line" smooth="yes"/>
      <point x="401.5349762742997" y="361.0"/>
      <point x="193.4787234042553" y="635.0"/>
      <point x="192.5" y="928.0" type="qcurve" smooth="yes"/>
      <point x="192.5" y="1456.0" type="line"/>
      <point x="220.97214143578756" y="1456.0" type="line"/>
      <point x="220.97214143578756" y="926.0" type="line" smooth="yes"/>
      <point x="220.97214143578756" y="640.7855761260016"/>
      <point x="414.9733828852917" y="371.92207792207796"/>
      <point x="634.9295882442982" y="371.92207792207796" type="qcurve" smooth="yes"/>
      <point x="656.3725799686307" y="371.92207792207796" type="line" smooth="yes"/>
      <point x="877.9829735548395" y="371.92207792207796"/>
      <point x="1073.1882749119854" y="640.7855761260016"/>
      <point x="1073.1882749119854" y="926.0" type="qcurve" smooth="yes"/>
      <point x="1073.1882749119854" y="1456.0" type="line"/>
      <point x="1101.6604163477728" y="1456.0" type="line"/>
      <point x="1101.6604163477728" y="928.0" type="line" smooth="yes"/>
      <point x="1101.6604163477728" y="635.0"/>
      <point x="890.3907087096281" y="361.0"/>
      <point x="663.4394611969999" y="361.0" type="qcurve" smooth="yes"/>
    </contour>
  </outline>
</glyph>
<glyph name="Omega" format="2">
  <advance width="1242.7294504821675"/>
  <unicode hex="03A9"/>
  <anchor x="34.670212765957444" y="1074.0" name="tonos"/>
  <outline>
    <contour>
      <point x="152.5" y="0.0" type="line"/>
      <point x="152.5" y="10.948051948051955" type="line"/>
      <point x="484.40249502525637" y="10.948051948051955" type="line"/>
      <point x="484.40249502525637" y="309.0" type="line"/>
      <point x="321.9426756467167" y="375.46946272769014"/>
      <point x="162.2872340425532" y="660.956757997857"/>
      <point x="162.2872340425532" y="857.2333537425378" type="qcurve"/>
      <point x="162.2872340425532" y="869.7453696617175" type="line"/>
      <point x="162.2872340425532" y="1166.3836675340578"/>
      <point x="388.6413592530231" y="1486.0"/>
      <point x="612.4175723251186" y="1486.0" type="qcurve"/>
      <point x="835.4923465482932" y="1486.0"/>
      <point x="1081.4209398438695" y="1165.4049441298025"/>
      <point x="1081.4209398438695" y="868.7666462574622" type="qcurve"/>
      <point x="1081.4209398438695" y="858.2120771467931" type="line"/>
      <point x="1081.4209398438695" y="654.9375478340731"/>
      <point x="906.7909076993725" y="371.55456911066887"/>
      <point x="757.3482320526558" y="309.0" type="qcurve"/>
      <point x="757.3482320526558" y="10.948051948051955" type="line"/>
      <point x="1090.2294504821675" y="10.948051948051955" type="line"/>
      <point x="1090.2294504821675" y="0.0" type="line"/>
      <point x="741.2260829634165" y="0.0" type="line"/>
      <point x="741.2260829634165" y="316.2207792207792" type="line"/>
      <point x="890.4858232231568" y="381.31638574191766"/>
      <point x="1052.2048063676718" y="660.6797457861287"/>
      <point x="1052.2048063676718" y="857.5106382978723" type="qcurve"/>
      <point x="1052.2048063676718" y="869.468085106383" type="line"/>
      <point x="1052.2048063676718" y="1164.1182647140095"/>
      <point x="819.2617281692744" y="1474.922077922078"/>
      <point x="612.4175723251186" y="1474.922077922078" type="qcurve"/>
      <point x="405.57341648096275" y="1474.922077922078"/>
      <point x="192.20480636767184" y="1165.0969881182646"/>
      <point x="192.20480636767184" y="870.4468085106383" type="qcurve"/>
      <point x="192.20480636767184" y="856.531914893617" type="line"/>
      <point x="192.20480636767184" y="659.7057198121028"/>
      <point x="350.0182907556243" y="380.3423597678917"/>
      <point x="501.2260829634165" y="316.2207792207792" type="qcurve"/>
      <point x="501.2260829634165" y="0.0" type="line"/>
    </contour>
  </outline>
</glyph>
<glyph name="alpha" format="2">
  <advance width="990.7953467013623"/>
  <unicode hex="03B1"/>
  <anchor x="427.33246594213995" y="916.0" name="top"/>
  <outline>
    <contour>
      <point x="424.1193998103534" y="-20.0" type="qcurve" smooth="yes"/>
      <point x="293.31907089084194" y="-20.0"/>
      <point x="121.52597402597402" y="233.70893617021278"/>
      <point x="121.52597402597402" y="442.0" type="qcurve" smooth="yes"/>
      <point x="121.52597402597402" y="474.0" type="line" smooth="yes"/>
      <point x="121.52597402597402" y="701.8655319148936"/>
      <point x="298.1804138032486" y="936.0"/>
      <point x="426.06745175840535" y="936.0" type="qcurve" smooth="yes"/>
      <point x="559.5722590405157" y="936.0"/>
      <point x="723.6542458765786" y="638.735075987842"/>
      <point x="723.6542458765786" y="463.97402597402595" type="qcurve" smooth="yes"/>
      <point x="723.6542458765786" y="435.0425531914894" type="line" smooth="yes"/>
      <point x="723.6542458765786" y="226.12378004973746"/>
      <point x="553.7416242811222" y="-20.0"/>
    </contour>
    <contour>
      <point x="432.87418818744396" y="-9.233766233766232" type="qcurve" smooth="yes"/>
      <point x="562.3080981073113" y="-9.233766233766232"/>
      <point x="712.5718947362144" y="224.15626416137053"/>
      <point x="712.5718947362144" y="436.94805194805195" type="qcurve" smooth="yes"/>
      <point x="712.5718947362144" y="463.97402597402595" type="line" smooth="yes"/>
      <point x="712.5718947362144" y="639.104935064935"/>
      <point x="575.2527236944901" y="925.2337662337663"/>
      <point x="434.8222401354959" y="925.2337662337663" type="qcurve" smooth="yes"/>
      <point x="324.8081920559159" y="925.2337662337663"/>
      <point x="150.6570011191931" y="700.0171649626969"/>
      <point x="150.6570011191931" y="481.7922077922078" type="qcurve" smooth="yes"/>
      <point x="150.6570011191931" y="438.1038961038961" type="line" smooth="yes"/>
      <point x="150.6570011191931" y="236.44207792207789"/>
      <point x="321.01482372212206" y="-9.233766233766232"/>
    </contour>
    <contour>
      <point x="799.6893463952242" y="-30.0" type="qcurve" smooth="yes"/>
      <point x="755.6708250420941" y="-30.0"/>
      <point x="712.5678861166385" y="53.424154293586405"/>
      <point x="712.971452625134" y="245.26532986376859" type="qcurve"/>
      <point x="715.3510270932192" y="245.26532986376859" type="line"/>
      <point x="715.3510270932192" y="433.51063829787233" type="line"/>
      <point x="709.5501760293893" y="433.51063829787233" type="line"/>
      <point x="709.7203887953467" y="916.0" type="line"/>
      <point x="739.2953467013623" y="916.0" type="line"/>
      <point x="739.2953467013623" y="262.0" type="line" smooth="yes"/>
      <point x="739.2953467013623" y="62.05208819957022"/>
      <point x="773.5810609870766" y="-20.0"/>
      <point x="812.8667752727908" y="-20.0" type="qcurve"/>
      <point x="836.6330090390246" y="-20.0"/>
      <point x="885.3213207273363" y="-6.181818181818187"/>
      <point x="903.2953467013623" y="1.7922077922077904" type="qcurve"/>
      <point x="903.2953467013623" y="-8.0" type="line"/>
      <point x="884.2953467013623" y="-17.0"/>
      <point x="830.9634751441731" y="-30.0"/>
    </contour>
  </outline>
</glyph>
<glyph name="gamma" format="2">
  <advance width="909.5872493494567"/>
  <unicode hex="03B3"/>
  <outline>
    <contour>
      <point x="434.5951396070636" y="-366.0000000000001" type="line"/>
      <point x="434.5951396070636" y="51.2" type="line"/>
      <point x="66.38237364961662" y="916.0" type="line"/>
      <point x="95.31738656233227" y="916.0" type="line"/>
      <point x="407.062067413396" y="165.32765957446807" type="line" smooth="yes"/>
      <point x="424.0807908176515" y="126.68765957446809"/>
      <point x="445.9344078389281" y="60.22127659574469"/>
      <point x="454.82802486020466" y="35.327659574468136" type="qcurve"/>
      <point x="459.84930145594933" y="35.327659574468136" type="line"/>
      <point x="470.70036528573655" y="62.17872340425533"/>
      <point x="492.76992528757097" y="127.62319438261173"/>
      <point x="509.5727057112683" y="165.32765957446807" type="qcurve" smooth="yes"/>
      <point x="833.0195142219069" y="916.0" type="line"/>
      <point x="844.5939823070133" y="916.0" type="line"/>
      <point x="462.6790886899917" y="51.2" type="line"/>
      <point x="462.6790886899917" y="-366.0000000000001" type="line"/>
    </contour>
  </outline>
</glyph>
<glyph name="zeta" format="2">
  <advance width="849.8125669677024"/>
  <unicode hex="03B6"/>
  <guideline x="809.0" y="291.0000000000001" angle="90.0" identifier="Hhem4nGbLg"/>
  <guideline x="856.0" y="822.9999999999998" angle="90.0" identifier="UwRnHAo0ZQ"/>
  <outline>
    <contour>
      <point x="614.8929739325423" y="-348.0" type="line"/>
      <point x="637.8929739325423" y="-295.0"/>
      <point x="668.8929739325423" y="-195.42885172381574"/>
      <point x="668.8929739325423" y="-143.42885172381574" type="qcurve" smooth="yes"/>
      <point x="668.8929739325423" y="-64.40315799308604"/>
      <point x="607.8929739325423" y="42.220218630290574"/>
      <point x="526.8150518546202" y="61.24619265626459" type="qcurve" smooth="yes"/>
      <point x="400.3726525273288" y="91.02555358310754" type="line" smooth="yes"/>
      <point x="251.8132299355321" y="126.61024946276746"/>
      <point x="102.5" y="253.11646267401665"/>
      <point x="102.5" y="350.9347846398206" type="qcurve"/>
      <point x="102.5" y="452.4419788844249"/>
      <point x="276.7442981784785" y="710.4115877234658"/>
      <point x="475.3730729701953" y="990.3241147341867" type="qcurve" smooth="yes"/>
      <point x="828.6827992151733" y="1506.9182939362795" type="line"/>
      <point x="827.8599199667622" y="1507.6977950107448" type="line"/>
      <point x="138.75974025974025" y="1507.6977950107448" type="line"/>
      <point x="138.75974025974025" y="1536.0" type="line"/>
      <point x="852.5944127814631" y="1536.0" type="line"/>
      <point x="852.5944127814631" y="1525.1038961038962" type="line"/>
      <point x="441.75025693730726" y="922.8181818181819" type="line" smooth="yes"/>
      <point x="255.67233485938522" y="650.0"/>
      <point x="133.19209567411002" y="444.4162851536952"/>
      <point x="133.19209567411002" y="358.54657572643185" type="qcurve"/>
      <point x="133.19209567411002" y="267.36503783985796"/>
      <point x="266.5944127814631" y="146.79416985891805"/>
      <point x="413.0229842100345" y="111.89806596281416" type="qcurve" smooth="yes"/>
      <point x="524.1264598710642" y="84.82014388489208" type="line" smooth="yes"/>
      <point x="613.1785480706344" y="65.41340169091585"/>
      <point x="680.2327106538036" y="-50.984646380712505"/>
      <point x="680.2327106538036" y="-138.66177707184903" type="qcurve" smooth="yes"/>
      <point x="680.2327106538036" y="-184.49709467021577"/>
      <point x="653.4696525730508" y="-282.80436584691904"/>
      <point x="625.3610590389253" y="-348.0" type="qcurve"/>
    </contour>
  </outline>
</glyph>
<glyph name="theta" format="2">
  <advance width="892.9017296800857"/>
  <unicode hex="03B8"/>
  <outline>
    <contour>
      <point x="446.9721414357876" y="-30.0" type="qcurve" smooth="yes"/>
      <point x="304.4265268636155" y="-30.0"/>
      <point x="132.5" y="288.2086330935252"/>
      <point x="132.5" y="658.2086330935251" type="qcurve"/>
      <point x="132.5" y="877.7913669064749" type="line"/>
      <point x="132.5" y="1237.7913669064749"/>
      <point x="303.4052502678708" y="1556.0"/>
      <point x="446.9295882442982" y="1556.0" type="qcurve" smooth="yes"/>
      <point x="589.5177560079595" y="1556.0"/>
      <point x="760.4017296800857" y="1237.7913669064749"/>
      <point x="760.4017296800857" y="877.7913669064749" type="qcurve"/>
      <point x="760.4017296800857" y="658.2086330935251" type="line"/>
      <point x="760.4017296800857" y="288.2086330935252"/>
      <point x="590.5390326037043" y="-30.0"/>
    </contour>
    <contour>
      <point x="447.9768388660169" y="-19.233766233766232" type="qcurve" smooth="yes"/>
      <point x="579.080734969913" y="-19.233766233766232"/>
      <point x="731.9508648400429" y="294.53246753246754"/>
      <point x="731.9508648400429" y="652.961038961039" type="qcurve"/>
      <point x="731.9508648400429" y="882.8831168831168" type="line" smooth="yes"/>
      <point x="731.9508648400429" y="1235.4675324675325"/>
      <point x="578.0287869179649" y="1545.2337662337663"/>
      <point x="445.9768388660169" y="1545.2337662337663" type="qcurve" smooth="yes"/>
      <point x="314.95086484004287" y="1545.2337662337663"/>
      <point x="160.95086484004287" y="1235.4675324675325"/>
      <point x="160.95086484004287" y="882.8831168831168" type="qcurve" smooth="yes"/>
      <point x="160.95086484004287" y="652.961038961039" type="line" smooth="yes"/>
      <point x="160.95086484004287" y="294.53246753246754"/>
      <point x="315.9768388660169" y="-19.233766233766232"/>
    </contour>
    <contour>
      <point x="148.5335986529925" y="681.2337662337662" type="line"/>
      <point x="148.5335986529925" y="691.7402597402597" type="line"/>
      <point x="744.3681310270932" y="691.7402597402597" type="line"/>
      <point x="744.3681310270932" y="681.2337662337662" type="line"/>
    </contour>
  </outline>
</glyph>
<glyph name="iota" format="2">
  <advance width="514.4083116485535"/>
  <unicode hex="03B9"/>
  <anchor x="189.61870503597123" y="916.0" name="top"/>
  <outline>
    <contour>
      <point x="308.25906934027245" y="-30.0" type="qcurve" smooth="yes"/>
      <point x="227.64480330629112" y="-30.0"/>
      <point x="175.5" y="112.10431654676259"/>
      <point x="175.5" y="262.80575539568343" type="qcurve" smooth="yes"/>
      <point x="175.5" y="916.0" type="line"/>
      <point x="203.84448186131948" y="916.0" type="line"/>
      <point x="203.84448186131948" y="260.0" type="line" smooth="yes"/>
      <point x="203.84448186131948" y="119.87012987012987"/>
      <point x="246.20811822495585" y="-19.025974025974023"/>
      <point x="319.8444818613195" y="-19.025974025974023" type="qcurve" smooth="yes"/>
      <point x="342.9743519911896" y="-19.025974025974023"/>
      <point x="401.8444818613195" y="-1.181818181818187"/>
      <point x="429.8444818613195" y="10.766233766233768" type="qcurve"/>
      <point x="429.8444818613195" y="0.0" type="line"/>
      <point x="403.8444818613195" y="-12.0"/>
      <point x="333.8074391550589" y="-30.0"/>
    </contour>
  </outline>
</glyph>
<glyph name="kappa" format="2">
  <advance width="977.1790142354201"/>
  <unicode hex="03BA"/>
  <outline>
    <contour>
      <point x="828.2747112064424" y="0.0" type="line"/>
      <point x="398.068753759634" y="473.5957446808511" type="line"/>
      <point x="405.1105433950712" y="485.3788458594827" type="line"/>
      <point x="859.7428440226543" y="0.0" type="line"/>
    </contour>
    <contour>
      <point x="199.81088320832697" y="481.6103896103896" type="line"/>
      <point x="409.0686414427453" y="481.6103896103896" type="line"/>
      <point x="806.9501998843037" y="916.0" type="line"/>
      <point x="822.3527972869011" y="916.0" type="line"/>
      <point x="398.7283817024855" y="471.02597402597405" type="line"/>
      <point x="199.81088320832697" y="471.02597402597405" type="line"/>
    </contour>
    <contour>
      <point x="213.84448186131948" y="916.0" type="line"/>
      <point x="213.84448186131948" y="0.0" type="line"/>
      <point x="186.47402597402598" y="0.0" type="line"/>
      <point x="186.47402597402598" y="916.0" type="line"/>
    </contour>
  </outline>
</glyph>
<glyph name="mu" format="2">
  <advance width="962.051354660952"/>
  <unicode hex="03BC"/>
  <outline>
    <contour>
      <point x="185.5" y="-416.0" type="line"/>
      <point x="185.5" y="916.0" type="line"/>
      <point x="213.84448186131948" y="916.0" type="line"/>
      <point x="213.84448186131948" y="-416.0" type="line"/>
    </contour>
    <contour>
      <point x="201.10875554875247" y="104.05167173252278" type="line"/>
      <point x="228.81337405897327" y="68.59989344804896"/>
      <point x="358.31919068227046" y="-8.259740259740255"/>
      <point x="446.20811822495585" y="-8.259740259740255" type="qcurve" smooth="yes"/>
      <point x="552.8185078353454" y="-8.259740259740255"/>
      <point x="693.8444818613194" y="120.92207792207793"/>
      <point x="693.8444818613194" y="198.23376623376623" type="qcurve" smooth="yes"/>
      <point x="693.8444818613194" y="916.0" type="line"/>
      <point x="721.487524873718" y="916.0" type="line"/>
      <point x="721.487524873718" y="196.1038961038961" type="line" smooth="yes"/>
      <point x="721.487524873718" y="87.98701298701299"/>
      <point x="762.6173950035882" y="-6.025974025974023"/>
      <point x="812.487524873718" y="-6.025974025974023" type="qcurve" smooth="yes"/>
      <point x="826.6433690295622" y="-6.025974025974023"/>
      <point x="870.4355768217699" y="8.766233766233768"/>
      <point x="885.487524873718" y="15.766233766233768" type="qcurve"/>
      <point x="885.487524873718" y="5.0" type="line"/>
      <point x="866.487524873718" y="-4.0"/>
      <point x="822.2370273993572" y="-17.0"/>
      <point x="799.7758303995101" y="-17.0" type="qcurve" smooth="yes"/>
      <point x="746.2048063676717" y="-17.0"/>
      <point x="700.3763967549364" y="59.0"/>
      <point x="695.1636307974896" y="130.0" type="qcurve"/>
      <point x="689.1636307974896" y="130.0" type="line"/>
      <point x="661.9721414357875" y="70.93617021276596"/>
      <point x="539.4395377315169" y="-20.0"/>
      <point x="441.22814939537733" y="-20.0" type="qcurve" smooth="yes"/>
      <point x="359.9543088933109" y="-20.0"/>
      <point x="235.00099494872185" y="50.59505587019746"/>
      <point x="201.10875554875247" y="89.27659574468086" type="qcurve"/>
    </contour>
  </outline>
</glyph>
<glyph name="xi" format="2">
  <advance width="895.0891627123832"/>
  <unicode hex="03BE"/>
  <outline>
    <contour>
      <point x="673.6955456911066" y="-348.0" type="line"/>
      <point x="696.6955456911066" y="-295.7014388489209"/>
      <point x="726.9941068421858" y="-208.84899739782642"/>
      <point x="726.9941068421858" y="-157.5504362467473" type="qcurve"/>
      <point x="726.9941068421858" y="-77.01852135313025"/>
      <point x="644.4621919485688" y="12.258074391550588"/>
      <point x="485.0840348997398" y="48.597811112811875" type="qcurve" smooth="yes"/>
      <point x="448.3881065360478" y="57.78723404255319" type="line" smooth="yes"/>
      <point x="283.178784631869" y="97.82909842338894"/>
      <point x="122.5" y="262.5531914893617"/>
      <point x="122.5" y="389.4687739170366" type="qcurve"/>
      <point x="122.5" y="548.597682892647"/>
      <point x="326.46022590603945" y="754.6834780862793"/>
      <point x="507.5118936627432" y="767.0469743022935" type="qcurve"/>
      <point x="507.5118936627432" y="762.5274937828129" type="line"/>
      <point x="331.667457523343" y="772.5404807958"/>
      <point x="169.57322464769274" y="944.2985611510792"/>
      <point x="171.4787234042553" y="1080.7879228532067" type="qcurve"/>
      <point x="171.4787234042553" y="1256.993508481416"/>
      <point x="393.8009436606559" y="1516.3093415844833"/>
      <point x="698.5405304935382" y="1528.3896103896104" type="qcurve"/>
      <point x="698.5405304935382" y="1525.2337662337663" type="line"/>
      <point x="128.5" y="1525.2337662337663" type="line"/>
      <point x="128.5" y="1536.0" type="line"/>
      <point x="783.5891627123832" y="1536.0" type="line"/>
      <point x="783.5891627123832" y="1525.2337662337663" type="line"/>
      <point x="430.45210827745655" y="1524.8295109146175"/>
      <point x="199.67426909536204" y="1265.9461177120752"/>
      <point x="199.67426909536204" y="1082.0" type="qcurve" smooth="yes"/>
      <point x="199.67426909536204" y="937.987012987013"/>
      <point x="372.1086432318638" y="770.025974025974"/>
      <point x="541.5891627123833" y="770.025974025974" type="qcurve" smooth="yes"/>
      <point x="721.5891627123832" y="770.025974025974" type="line"/>
      <point x="721.5891627123832" y="759.2597402597403" type="line"/>
      <point x="541.5891627123833" y="759.2597402597403" type="line" smooth="yes"/>
      <point x="366.6698479845579" y="759.2597402597403"/>
      <point x="150.9295882442982" y="556.9694766430569"/>
      <point x="150.9295882442982" y="396.0583193020052" type="qcurve"/>
      <point x="150.9295882442982" y="274.41795499770393"/>
      <point x="307.8026174804837" y="112.18253482320526"/>
      <point x="460.5280881677637" y="76.92652686361549" type="qcurve" smooth="yes"/>
      <point x="491.88910148476964" y="69.07615184448186" type="line" smooth="yes"/>
      <point x="651.2281493953774" y="31.39598959130568"/>
      <point x="738.3338435634471" y="-67.11051584264503"/>
      <point x="738.3338435634471" y="-152.08648400428595" type="qcurve"/>
      <point x="738.3338435634471" y="-206.27797336598806"/>
      <point x="700.5040563294045" y="-312.25531914893617"/>
      <point x="682.206183988979" y="-348.0" type="qcurve"/>
    </contour>
  </outline>
</glyph>
<glyph name="pi" format="2">
  <advance width="936.1364610439307"/>
  <unicode hex="03C0"/>
  <outline>
    <contour>
      <point x="37.5" y="905.2337662337663" type="line"/>
      <point x="37.5" y="916.0" type="line"/>
      <point x="848.6364610439307" y="916.0" type="line"/>
      <point x="848.6364610439307" y="905.2337662337663" type="line"/>
    </contour>
    <contour>
      <point x="200.56382978723406" y="0.0" type="line"/>
      <point x="200.56382978723406" y="910.0" type="line"/>
      <point x="228.9083116485535" y="910.0" type="line"/>
      <point x="228.9083116485535" y="0.0" type="line"/>
    </contour>
    <contour>
      <point x="772.1340884739017" y="-30.0" type="qcurve" smooth="yes"/>
      <point x="715.9879075463034" y="-30.0"/>
      <point x="656.9295882442982" y="61.46532986376857"/>
      <point x="656.9295882442982" y="244.91007194244605" type="qcurve"/>
      <point x="656.9295882442982" y="910.0" type="line"/>
      <point x="684.5726312566967" y="910.0" type="line"/>
      <point x="684.5726312566967" y="240.82978723404256" type="line"/>
      <point x="684.5726312566967" y="81.06493506493507"/>
      <point x="727.5206832047486" y="-19.025974025974023"/>
      <point x="781.5726312566967" y="-19.025974025974023" type="qcurve"/>
      <point x="795.5726312566967" y="-19.025974025974023"/>
      <point x="839.5206832047486" y="-2.2337662337662323"/>
      <point x="848.5726312566967" y="2.7662337662337677" type="qcurve"/>
      <point x="848.5726312566967" y="-8.0" type="line"/>
      <point x="831.117805506907" y="-17.0"/>
      <point x="791.4079289759682" y="-30.0"/>
    </contour>
  </outline>
</glyph>
<glyph name="rho" format="2">
  <advance width="925.0726312566967"/>
  <unicode hex="03C1"/>
  <outline>
    <contour>
      <point x="185.5" y="-416.0" type="line"/>
      <point x="185.5" y="470.1942446043165" type="line" smooth="yes"/>
      <point x="185.5" y="682.6"/>
      <point x="352.97854278279505" y="942.8"/>
      <point x="493.86575845706415" y="942.8" type="qcurve" smooth="yes"/>
      <point x="633.2830246441144" y="942.8"/>
      <point x="802.5726312566967" y="685.44"/>
      <point x="802.5726312566967" y="484.0" type="qcurve" smooth="yes"/>
      <point x="802.5726312566967" y="452.0" type="line" smooth="yes"/>
      <point x="802.5726312566967" y="247.84"/>
      <point x="645.5579182611357" y="-20.0"/>
      <point x="489.7584222757191" y="-20.0" type="qcurve" smooth="yes"/>
      <point x="407.39767335068115" y="-20.0"/>
      <point x="257.4443594060922" y="64.33904791060769"/>
      <point x="204.31807745293128" y="125.97872340425533" type="qcurve"/>
      <point x="204.31807745293128" y="143.00898634504944" type="line"/>
      <point x="261.9456028435058" y="75.55693174115032"/>
      <point x="407.3261026437209" y="-9.233766233766232"/>
      <point x="484.8444818613195" y="-9.233766233766232" type="qcurve" smooth="yes"/>
      <point x="620.1603260171636" y="-9.233766233766232"/>
      <point x="774.8444818613194" y="244.0161038961039"/>
      <point x="774.8444818613194" y="452.0" type="qcurve" smooth="yes"/>
      <point x="774.8444818613194" y="484.0" type="line" smooth="yes"/>
      <point x="774.8444818613194" y="681.7657142857144"/>
      <point x="624.8122740691116" y="932.0337662337663"/>
      <point x="494.8444818613195" y="932.0337662337663" type="qcurve" smooth="yes"/>
      <point x="354.31617017300783" y="932.0337662337663"/>
      <point x="213.84448186131948" y="659.7428571428571"/>
      <point x="213.84448186131948" y="478.0" type="qcurve" smooth="yes"/>
      <point x="213.84448186131948" y="-416.0" type="line"/>
    </contour>
  </outline>
</glyph>
<glyph name="tau" format="2">
  <advance width="734.4083116485534"/>
  <unicode hex="03C4"/>
  <outline>
    <contour>
      <point x="37.5" y="905.2337662337663" type="line"/>
      <point x="37.5" y="916.0" type="line"/>
      <point x="646.9083116485534" y="916.0" type="line"/>
      <point x="646.9083116485534" y="905.2337662337663" type="line"/>
    </contour>
    <contour>
      <point x="448.25906934027245" y="-30.0" type="qcurve" smooth="yes"/>
      <point x="390.7100107148324" y="-30.0"/>
      <point x="315.5" y="85.67878463186898"/>
      <point x="315.5" y="265.6115107913669" type="qcurve" smooth="yes"/>
      <point x="315.5" y="910.9740259740261" type="line"/>
      <point x="343.8444818613195" y="910.9740259740261" type="line"/>
      <point x="343.8444818613195" y="260.0" type="line" smooth="yes"/>
      <point x="343.8444818613195" y="89.67532467532467"/>
      <point x="410.5587675756052" y="-19.025974025974023"/>
      <point x="459.8444818613195" y="-19.025974025974023" type="qcurve" smooth="yes"/>
      <point x="487.8444818613195" y="-19.025974025974023"/>
      <point x="542.8185078353455" y="-1.181818181818187"/>
      <point x="569.8444818613194" y="10.766233766233768" type="qcurve"/>
      <point x="569.8444818613194" y="0.0" type="line"/>
      <point x="543.1430430123986" y="-12.0"/>
      <point x="485.6989897443747" y="-30.0"/>
    </contour>
  </outline>
</glyph>
<glyph name="upsilon" format="2">
  <advance width="1045.3444818613193"/>
  <unicode hex="03C5"/>
  <anchor x="531.9508648400429" y="916.0" name="top"/>
  <outline>
    <contour>
      <point x="523.7896066125822" y="-20.0" type="qcurve" smooth="yes"/>
      <point x="369.9001224552273" y="-20.0"/>
      <point x="262.6063829787234" y="201.0"/>
      <point x="262.6063829787234" y="403.0" type="qcurve" smooth="yes"/>
      <point x="262.6063829787234" y="916.0" type="line"/>
      <point x="290.95086484004287" y="916.0" type="line"/>
      <point x="290.95086484004287" y="401.0" type="line" smooth="yes"/>
      <point x="290.95086484004287" y="203.8961038961039"/>
      <point x="389.41839730757533" y="-9.129870129870142"/>
      <point x="532.9083116485535" y="-9.129870129870142" type="qcurve" smooth="yes"/>
      <point x="678.3274882166662" y="-9.129870129870142"/>
      <point x="769.0453660834803" y="203.8961038961039"/>
      <point x="770.9508648400429" y="401.0" type="qcurve" smooth="yes"/>
      <point x="770.9508648400429" y="916.0" type="line"/>
      <point x="781.7593754783406" y="916.0" type="line"/>
      <point x="781.7593754783406" y="403.0" type="line" smooth="yes"/>
      <point x="781.7593754783406" y="201.0"/>
      <point x="679.3592530231134" y="-20.0"/>
    </contour>
  </outline>
</glyph>
<glyph name="phi" format="2">
  <advance width="1034.096586560539"/>
  <unicode hex="03C6"/>
  <outline>
    <contour>
      <point x="504.69485688045313" y="-416.0" type="line"/>
      <point x="504.69485688045313" y="-27.082619508151424" type="line"/>
      <point x="504.69485688045313" y="-25.953854655982312" type="line"/>
      <point x="504.69485688045313" y="845.0" type="line"/>
      <point x="504.69485688045313" y="886.0" type="line"/>
      <point x="504.69485688045313" y="1400.0" type="line"/>
      <point x="532.3378998928517" y="1400.0" type="line"/>
      <point x="532.3378998928517" y="886.0" type="line"/>
      <point x="532.3378998928517" y="843.0" type="line"/>
      <point x="532.3378998928517" y="-26.038961038961034" type="line"/>
      <point x="532.3378998928517" y="-27.082619508151424" type="line"/>
      <point x="532.3378998928517" y="-416.0" type="line"/>
    </contour>
    <contour>
      <point x="502.867824889025" y="-31.95744680851064" type="line"/>
      <point x="324.1894443594061" y="-31.74468085106383"/>
      <point x="119.56382978723404" y="226.88"/>
      <point x="119.56382978723404" y="442.0" type="qcurve" smooth="yes"/>
      <point x="119.56382978723404" y="474.0" type="line" smooth="yes"/>
      <point x="119.56382978723404" y="689.12"/>
      <point x="317.3383805296188" y="945.7872340425531"/>
      <point x="502.867824889025" y="946.0" type="qcurve"/>
      <point x="534.1649318842799" y="946.0" type="line"/>
      <point x="716.7582060309198" y="945.7872340425531"/>
      <point x="914.5327567733048" y="689.12"/>
      <point x="914.5327567733048" y="474.0" type="qcurve" smooth="yes"/>
      <point x="914.5327567733048" y="442.0" type="line" smooth="yes"/>
      <point x="914.5327567733048" y="226.88"/>
      <point x="713.822035818154" y="-31.74468085106383"/>
      <point x="534.1649318842799" y="-31.95744680851064" type="qcurve"/>
    </contour>
    <contour>
      <point x="505.67358028470846" y="-21.19121304227687" type="qcurve"/>
      <point x="531.3591764885964" y="-21.19121304227687" type="line"/>
      <point x="684.072356925181" y="-22.632473058856043"/>
      <point x="885.4017296800857" y="226.78805194805196"/>
      <point x="885.4017296800857" y="442.0" type="qcurve" smooth="yes"/>
      <point x="885.4017296800857" y="474.0" type="line" smooth="yes"/>
      <point x="885.4017296800857" y="694.0820779220779"/>
      <point x="685.0510803294363" y="936.6750262503455"/>
      <point x="531.3591764885964" y="935.2337662337663" type="qcurve"/>
      <point x="505.67358028470846" y="935.2337662337663" type="line"/>
      <point x="349.0455062311024" y="936.6750262503455"/>
      <point x="148.69485688045307" y="694.0820779220779"/>
      <point x="148.69485688045307" y="474.0" type="qcurve" smooth="yes"/>
      <point x="148.69485688045307" y="442.0" type="line" smooth="yes"/>
      <point x="148.69485688045307" y="226.78805194805196"/>
      <point x="352.9603998481237" y="-22.632473058856043"/>
    </contour>
  </outline>
</glyph>
<glyph name="Kaisymbol" format="2">
  <advance width="1188.6951630185215"/>
  <unicode hex="03CF"/>
  <outline>
    <contour>
      <point x="207.5" y="0.0" type="line"/>
      <point x="207.5" y="1456.0" type="line"/>
      <point x="236.6735802847084" y="1456.0" type="line"/>
      <point x="236.6735802847084" y="0.0" type="line"/>
    </contour>
    <contour>
      <point x="228.89379891499897" y="496.8112420259979" type="line"/>
      <point x="228.89379891499897" y="511.74741223876384" type="line"/>
      <point x="1092.7694830043674" y="1456.0" type="line"/>
      <point x="1107.561690796575" y="1456.0" type="line"/>
      <point x="524.6886536087516" y="820.3216278593593" type="line"/>
    </contour>
    <contour>
      <point x="1222.3602261048304" y="-3.3531521287529387" type="line"/>
      <point x="569.3187861426803" y="875.5404569408855" type="line"/>
      <point x="588.0784200492604" y="894.2521514150934" type="line"/>
      <point x="1250.3015459972448" y="5.207944282871576" type="line"/>
      <point x="512.285779886729" y="-590.0" type="line"/>
      <point x="505.42863702958607" y="-581.6493506493507" type="line"/>
    </contour>
  </outline>
</glyph>
<glyph name="kaisymbol" format="2">
  <advance width="1063.4206337058013"/>
  <unicode hex="03D7"/>
  <outline>
    <contour>
      <point x="202.14299530256977" y="0.0" type="line"/>
      <point x="202.14299530256977" y="916.0" type="line"/>
      <point x="229.51345118986325" y="916.0" type="line"/>
      <point x="229.51345118986325" y="0.0" type="line"/>
    </contour>
    <contour>
      <point x="215.7564482815516" y="465.18181818181824" type="line"/>
      <point x="215.7564482815516" y="474.7922077922078" type="line"/>
      <point x="433.7006299685314" y="474.7922077922078" type="line"/>
      <point x="869.3863442542456" y="916.0" type="line"/>
      <point x="881.8668637347652" y="916.0" type="line"/>
      <point x="436.48515031577944" y="479.92224192461447" type="line"/>
      <point x="942.9200810669508" y="-21.467925079665477" type="line"/>
      <point x="350.07465594255734" y="-531.5584415584416" type="line"/>
      <point x="342.1395910074924" y="-523.1558441558442" type="line"/>
      <point x="918.3366067576997" y="-27.303398728930645" type="line"/>
      <point x="434.1612544504325" y="465.18181818181824" type="line"/>
    </contour>
  </outline>
</glyph>
<glyph name="Lje" format="2">
  <advance width="1628.393081279657"/>
  <unicode hex="0409"/>
  <outline>
    <contour>
      <point x="161.41007194244605" y="-30.0" type="qcurve" smooth="yes"/>
      <point x="135.30575539568343" y="-30.0"/>
      <point x="77.20143884892087" y="-23.0"/>
      <point x="47.5" y="-13.0" type="qcurve"/>
      <point x="47.5" y="-1.922077922077932" type="line"/>
      <point x="71.5" y="-9.922077922077932"/>
      <point x="128.05844155844156" y="-18.818181818181813"/>
      <point x="157.27950107446512" y="-18.818181818181813" type="qcurve" smooth="yes"/>
      <point x="242.2922077922078" y="-18.818181818181813"/>
      <point x="307.67242332135953" y="250.28571428571428"/>
      <point x="324.56382978723406" y="559.3404255319149" type="qcurve" smooth="yes"/>
      <point x="373.56382978723406" y="1456.0" type="line"/>
      <point x="915.7195009949487" y="1456.0" type="line"/>
      <point x="915.7195009949487" y="10.922077922077932" type="line"/>
      <point x="1205.7195009949487" y="10.922077922077932" type="line" smooth="yes"/>
      <point x="1394.2259945014423" y="10.922077922077932"/>
      <point x="1511.7195009949487" y="252.9220779220779"/>
      <point x="1511.7195009949487" y="445.0" type="qcurve" smooth="yes"/>
      <point x="1511.7195009949487" y="638.0519480519481"/>
      <point x="1393.2519685274162" y="875.077922077922"/>
      <point x="1205.7195009949487" y="875.077922077922" type="qcurve" smooth="yes"/>
      <point x="902.7284555334456" y="875.077922077922" type="line"/>
      <point x="902.7284555334456" y="886.0" type="line"/>
      <point x="1217.9212459819378" y="886.0" type="line" smooth="yes"/>
      <point x="1413.1937088626971" y="886.0"/>
      <point x="1540.893081279657" y="645.0"/>
      <point x="1540.893081279657" y="445.0" type="qcurve" smooth="yes"/>
      <point x="1540.893081279657" y="245.0"/>
      <point x="1413.1937088626971" y="0.0"/>
      <point x="1217.9212459819378" y="0.0" type="qcurve" smooth="yes"/>
      <point x="886.5459207102404" y="0.0" type="line"/>
      <point x="886.5459207102404" y="1445.077922077922" type="line"/>
      <point x="401.2742987152141" y="1445.077922077922" type="line"/>
      <point x="353.4395377315169" y="553.7446808510638" type="line" smooth="yes"/>
      <point x="337.4395377315169" y="257.2985611510791"/>
      <point x="260.34348691259754" y="-30.0"/>
    </contour>
  </outline>
</glyph>
<glyph name="Nje" format="2">
  <advance width="1610.5632940456144"/>
  <unicode hex="040A"/>
  <outline>
    <contour>
      <point x="207.5" y="0.0" type="line"/>
      <point x="236.6735802847084" y="0.0" type="line"/>
      <point x="236.6735802847084" y="1456.0" type="line"/>
      <point x="207.5" y="1456.0" type="line"/>
    </contour>
    <contour>
      <point x="870.6735802847085" y="0.0" type="line"/>
      <point x="1203.1744986989133" y="0.0" type="line" smooth="yes"/>
      <point x="1386.5554109903567" y="0.0"/>
      <point x="1523.0632940456144" y="185.4805194805195"/>
      <point x="1523.0632940456144" y="382.45454545454544" type="qcurve" smooth="yes"/>
      <point x="1523.0632940456144" y="578.4545454545455"/>
      <point x="1387.5341343946118" y="765.7792207792207"/>
      <point x="1203.1744986989133" y="765.7792207792207" type="qcurve" smooth="yes"/>
      <point x="888.3859635695699" y="765.7792207792207" type="line"/>
      <point x="888.3859635695699" y="754.8571428571429" type="line"/>
      <point x="1189.847160569417" y="754.8571428571429" type="line" smooth="yes"/>
      <point x="1370.552051423244" y="754.8571428571429"/>
      <point x="1493.8897137609063" y="565.6883116883117"/>
      <point x="1493.8897137609063" y="382.45454545454544" type="qcurve" smooth="yes"/>
      <point x="1493.8897137609063" y="199.2207792207792"/>
      <point x="1370.552051423244" y="10.922077922077932"/>
      <point x="1189.847160569417" y="10.922077922077932" type="qcurve" smooth="yes"/>
      <point x="899.8471605694169" y="10.922077922077932" type="line"/>
      <point x="899.8471605694169" y="1456.0" type="line"/>
      <point x="870.6735802847085" y="1456.0" type="line"/>
    </contour>
    <contour>
      <point x="222.98109597428441" y="754.8571428571429" type="line"/>
      <point x="885.323511403643" y="754.8571428571429" type="line"/>
      <point x="885.323511403643" y="765.7792207792207" type="line"/>
      <point x="222.98109597428441" y="765.7792207792207" type="line"/>
    </contour>
  </outline>
</glyph>
<glyph name="Be" format="2">
  <advance width="948.645721720496"/>
  <unicode hex="0411"/>
  <outline>
    <contour>
      <point x="207.5" y="0.0" type="line"/>
      <point x="207.5" y="1456.0" type="line"/>
      <point x="763.2267717740701" y="1456.0" type="line"/>
      <point x="763.2267717740701" y="1445.077922077922" type="line"/>
      <point x="236.6735802847084" y="1445.077922077922" type="line"/>
      <point x="236.6735802847084" y="10.922077922077932" type="line"/>
      <point x="526.6735802847085" y="10.922077922077932" type="line" smooth="yes"/>
      <point x="671.3489049600331" y="10.922077922077932"/>
      <point x="832.6735802847085" y="245.94805194805195"/>
      <point x="832.6735802847085" y="435.0" type="qcurve" smooth="yes"/>
      <point x="832.6735802847085" y="625.025974025974"/>
      <point x="671.3489049600331" y="855.077922077922"/>
      <point x="526.6735802847085" y="855.077922077922" type="qcurve" smooth="yes"/>
      <point x="223.6825348232053" y="855.077922077922" type="line"/>
      <point x="223.6825348232053" y="866.0" type="line"/>
      <point x="541.4037961120466" y="866.0" type="line" smooth="yes"/>
      <point x="690.8066738098883" y="866.0"/>
      <point x="861.145721720496" y="630.0"/>
      <point x="861.145721720496" y="435.0" type="qcurve" smooth="yes"/>
      <point x="861.145721720496" y="239.0"/>
      <point x="690.8066738098883" y="0.0"/>
      <point x="541.4037961120466" y="0.0" type="qcurve" smooth="yes"/>
    </contour>
  </outline>
</glyph>
<glyph name="zhe" format="2">
  <advance width="1521.9064748201438"/>
  <unicode hex="0436"/>
  <anchor x="759.4532374100719" y="916.0" name="top"/>
  <anchor x="1406.169677024338" y="0.0" name="cy_descender"/>
  <outline>
    <contour>
      <point x="773.6790142354201" y="0.0" type="line"/>
      <point x="746.1636307974896" y="0.0" type="line"/>
      <point x="746.1636307974896" y="916.0" type="line"/>
      <point x="773.6790142354201" y="916.0" type="line"/>
    </contour>
    <contour>
      <point x="1377.7994895048316" y="0.0" type="line"/>
      <point x="961.1810676266945" y="522.0134074558534" type="line"/>
      <point x="993.5312666363178" y="525.1043165467626" type="line"/>
      <point x="1416.912867738415" y="0.0" type="line"/>
    </contour>
    <contour>
      <point x="758.4532374100719" y="526.4155844155844" type="line"/>
      <point x="982.1476068551071" y="526.4155844155844" type="line"/>
      <point x="1294.957996465497" y="912.1038961038962" type="line"/>
      <point x="1303.7639499364866" y="912.1038961038962" type="line"/>
      <point x="977.4782356507719" y="515.8311688311688" type="line"/>
      <point x="758.4532374100719" y="515.8311688311688" type="line"/>
    </contour>
    <contour>
      <point x="137.16363079748967" y="0.0" type="line"/>
      <point x="106.45744680851064" y="0.0" type="line"/>
      <point x="529.8390479106076" y="525.1043165467626" type="line"/>
      <point x="550.4191749777851" y="522.0134074558534" type="line"/>
    </contour>
    <contour>
      <point x="759.4319608143272" y="526.4155844155844" type="line"/>
      <point x="759.4319608143272" y="515.8311688311688" type="line"/>
      <point x="534.1220069537077" y="515.8311688311688" type="line"/>
      <point x="207.83629266799326" y="912.1038961038962" type="line"/>
      <point x="220.00512383682445" y="912.1038961038962" type="line"/>
      <point x="532.8155134472141" y="526.4155844155844" type="line"/>
    </contour>
  </outline>
</glyph>
<glyph name="en" format="2">
  <advance width="896.987524873718"/>
  <unicode hex="043D"/>
  <anchor x="704.7002908311648" y="0.0" name="cy_descender"/>
  <outline>
    <contour>
      <point x="185.5" y="0.0" type="line"/>
      <point x="185.5" y="916.0" type="line"/>
      <point x="213.84448186131948" y="916.0" type="line"/>
      <point x="213.84448186131948" y="0.0" type="line"/>
    </contour>
    <contour>
      <point x="199.874712995561" y="466.1558441558442" type="line"/>
      <point x="199.874712995561" y="476.7402597402597" type="line"/>
      <point x="697.112811878157" y="476.7402597402597" type="line"/>
      <point x="697.112811878157" y="466.1558441558442" type="line"/>
    </contour>
    <contour>
      <point x="683.8444818613194" y="0.0" type="line"/>
      <point x="683.8444818613194" y="916.0" type="line"/>
      <point x="711.487524873718" y="916.0" type="line"/>
      <point x="711.487524873718" y="0.0" type="line"/>
    </contour>
  </outline>
</glyph>
<glyph name="pe" format="2">
  <advance width="886.987524873718"/>
  <unicode hex="043F"/>
  <outline>
    <contour>
      <point x="185.5" y="916.0" type="line"/>
      <point x="701.487524873718" y="916.0" type="line"/>
      <point x="701.487524873718" y="0.0" type="line"/>
      <point x="673.8444818613194" y="0.0" type="line"/>
      <point x="673.8444818613194" y="905.4155844155844" type="line"/>
      <point x="213.84448186131948" y="905.4155844155844" type="line"/>
      <point x="213.84448186131948" y="0.0" type="line"/>
      <point x="185.5" y="0.0" type="line"/>
    </contour>
  </outline>
</glyph>
<glyph name="tse" format="2">
  <advance width="913.987524873718"/>
  <unicode hex="0446"/>
  <outline>
    <contour>
      <point x="846.0619929588244" y="-270.0" type="line"/>
      <point x="846.0619929588244" y="0.0" type="line"/>
      <point x="185.5" y="0.0" type="line"/>
      <point x="185.5" y="916.0" type="line"/>
      <point x="213.84448186131948" y="916.0" type="line"/>
      <point x="213.84448186131948" y="10.58441558441558" type="line"/>
      <point x="673.8444818613194" y="10.58441558441558" type="line"/>
      <point x="673.8444818613194" y="916.0" type="line"/>
      <point x="701.487524873718" y="916.0" type="line"/>
      <point x="701.487524873718" y="10.58441558441558" type="line"/>
      <point x="856.487524873718" y="10.58441558441558" type="line"/>
      <point x="856.487524873718" y="-270.0" type="line"/>
    </contour>
  </outline>
</glyph>
<glyph name="soft" format="2">
  <advance width="806.987524873718"/>
  <unicode hex="044C"/>
  <outline>
    <contour>
      <point x="185.5" y="0.0" type="line"/>
      <point x="185.5" y="916.0" type="line"/>
      <point x="213.84448186131948" y="916.0" type="line"/>
      <point x="213.84448186131948" y="10.58441558441558" type="line"/>
      <point x="455.8444818613195" y="10.58441558441558" type="line" smooth="yes"/>
      <point x="570.9385078353454" y="10.58441558441558"/>
      <point x="681.8444818613194" y="172.68623376623376"/>
      <point x="681.8444818613194" y="320.8" type="qcurve" smooth="yes"/>
      <point x="681.8444818613194" y="471.2218181818182"/>
      <point x="570.9385078353454" y="629.0555844155843"/>
      <point x="455.8444818613195" y="627.0155844155844" type="qcurve" smooth="yes"/>
      <point x="200.8534363998163" y="627.0155844155844" type="line"/>
      <point x="200.8534363998163" y="637.6" type="line"/>
      <point x="469.1718199908159" y="637.6" type="line" smooth="yes"/>
      <point x="603.4029450482168" y="637.6"/>
      <point x="709.487524873718" y="470.64"/>
      <point x="709.487524873718" y="320.8" type="qcurve" smooth="yes"/>
      <point x="709.487524873718" y="169.6"/>
      <point x="603.4029450482168" y="0.0"/>
      <point x="469.1718199908159" y="0.0" type="qcurve" smooth="yes"/>
    </contour>
  </outline>
</glyph>
<glyph name="ecyr" format="2">
  <advance width="828.9449716822287"/>
  <unicode hex="044D"/>
  <guideline x="889.0" y="493.0000000000001" angle="90.0" identifier="9ss4WcbEUf"/>
  <anchor x="389.07921322516455" y="916.0" name="top"/>
  <outline>
    <contour>
      <point x="709.3811418949946" y="442.0" type="line" smooth="yes"/>
      <point x="709.3811418949946" y="217.84"/>
      <point x="564.2103597122302" y="-30.0"/>
      <point x="392.2738782723476" y="-30.0" type="qcurve" smooth="yes"/>
      <point x="246.67981937853972" y="-30.0"/>
      <point x="103.56382978723404" y="154.16"/>
      <point x="103.56382978723404" y="303.0" type="qcurve" smooth="yes"/>
      <point x="103.56382978723404" y="308.0" type="line"/>
      <point x="131.07921322516455" y="308.0" type="line"/>
      <point x="131.07921322516455" y="303.0" type="line" smooth="yes"/>
      <point x="131.07921322516455" y="168.8025974025974"/>
      <point x="266.4293430952944" y="-19.233766233766232"/>
      <point x="392.97531712126846" y="-19.233766233766232" type="qcurve" smooth="yes"/>
      <point x="542.4215508875021" y="-19.233766233766232"/>
      <point x="681.0792132251645" y="213.72"/>
      <point x="681.0792132251645" y="432.0" type="qcurve" smooth="yes"/>
      <point x="681.0792132251645" y="496.0" type="line" smooth="yes"/>
      <point x="681.0792132251645" y="699.2077922077922"/>
      <point x="547.3576547836061" y="935.2337662337663"/>
      <point x="393.07921322516455" y="935.2337662337663" type="qcurve" smooth="yes"/>
      <point x="267.5072651732165" y="935.2337662337663"/>
      <point x="135.07921322516455" y="750.1335064935065"/>
      <point x="135.07921322516455" y="613.0" type="qcurve" smooth="yes"/>
      <point x="135.07921322516455" y="608.0" type="line"/>
      <point x="107.56382978723404" y="608.0" type="line"/>
      <point x="107.56382978723404" y="613.0" type="line" smooth="yes"/>
      <point x="107.56382978723404" y="761.84"/>
      <point x="248.72237257002908" y="946.0"/>
      <point x="393.07921322516455" y="946.0" type="qcurve" smooth="yes"/>
      <point x="565.2316363079749" y="946.0"/>
      <point x="709.3811418949946" y="697.84"/>
      <point x="709.3811418949946" y="474.0" type="qcurve" smooth="yes"/>
    </contour>
    <contour>
      <point x="692.3900964334915" y="476.7402597402597" type="line"/>
      <point x="692.3900964334915" y="466.1558441558442" type="line"/>
      <point x="240.07921322516455" y="466.1558441558442" type="line"/>
      <point x="240.07921322516455" y="476.7402597402597" type="line"/>
    </contour>
  </outline>
</glyph>
<glyph name="ya" format="2">
  <advance width="940.5832695545691"/>
  <unicode hex="044F"/>
  <anchor x="525.4402265421705" y="916.0" name="top"/>
  <outline>
    <contour>
      <point x="91.18085106382979" y="0.0" type="line"/>
      <point x="368.41378833932026" y="325.5634153080962" type="line"/>
      <point x="393.79612596189975" y="320.2987012987013" type="line"/>
      <point x="120.88703505280884" y="0.0" type="line"/>
    </contour>
    <contour>
      <point x="189.77659574468083" y="614.0" type="qcurve" smooth="yes"/>
      <point x="189.77659574468083" y="754.08"/>
      <point x="303.3072952701669" y="913.28"/>
      <point x="419.8150160722486" y="916.0" type="qcurve" smooth="yes"/>
      <point x="723.7641206183989" y="916.0" type="line"/>
      <point x="723.7641206183989" y="0.0" type="line"/>
      <point x="696.1210776060002" y="0.0" type="line"/>
      <point x="696.1210776060002" y="905.4155844155844" type="line"/>
      <point x="433.14235420174504" y="905.4155844155844" type="line" smooth="yes"/>
      <point x="334.08261394200474" y="905.4155844155844"/>
      <point x="218.1210776060003" y="752.6978953296865"/>
      <point x="218.1210776060003" y="614.0" type="qcurve" smooth="yes"/>
      <point x="218.1210776060003" y="480.93423424124387"/>
      <point x="329.8665100459009" y="326.5844155844156"/>
      <point x="433.14235420174504" y="326.5844155844156" type="qcurve" smooth="yes"/>
      <point x="709.3894076228379" y="326.5844155844156" type="line"/>
      <point x="709.3894076228379" y="316.0" type="line"/>
      <point x="451.14235420174504" y="316.0" type="line"/>
      <point x="419.8150160722486" y="316.31168831168833" type="line"/>
      <point x="297.4349548446349" y="316.31168831168833"/>
      <point x="189.77659574468083" y="478.56"/>
    </contour>
  </outline>
</glyph>
<glyph name="Gheup" format="2">
  <advance width="994.0836522271545"/>
  <unicode hex="0490"/>
  <outline>
    <contour>
      <point x="207.5" y="0.0" type="line"/>
      <point x="207.5" y="1456.0" type="line"/>
      <point x="921.0730139292822" y="1456.0" type="line"/>
      <point x="921.0730139292822" y="1746.0" type="line"/>
      <point x="931.5836522271545" y="1746.0" type="line"/>
      <point x="931.5836522271545" y="1446.051948051948" type="line"/>
      <point x="237.37501913362928" y="1446.051948051948" type="line"/>
      <point x="237.37501913362928" y="0.0" type="line"/>
    </contour>
  </outline>
</glyph>
<glyph name="Kaverticalstrokecyr" format="2">
  <advance width="1440.7156742690954"/>
  <unicode hex="049C"/>
  <guideline x="637.0000000000002" y="675.0" angle="90.0" identifier="5CJVZV5P4J"/>
  <outline>
    <contour>
      <point x="207.5" y="0.0" type="line"/>
      <point x="207.5" y="1456.0" type="line"/>
      <point x="236.6735802847084" y="1456.0" type="line"/>
      <point x="236.6735802847084" y="0.0" type="line"/>
    </contour>
    <contour>
      <point x="1194.0194397673351" y="0.0" type="line"/>
      <point x="608.9521579751948" y="754.1815378865739" type="line"/>
      <point x="633.2129031232047" y="762.4940670839952" type="line"/>
      <point x="1223.55609980101" y="0.0" type="line"/>
    </contour>
    <contour>
      <point x="439.1340884739017" y="761.8181818181818" type="line"/>
      <point x="625.4325651388257" y="761.8181818181818" type="line"/>
      <point x="1180.1207366795152" y="1456.0" type="line"/>
      <point x="1192.3934639522424" y="1456.0" type="line"/>
      <point x="629.4065911128516" y="750.8961038961039" type="line"/>
      <point x="439.1340884739017" y="750.8961038961039" type="line"/>
    </contour>
    <contour>
      <point x="426.67358028470846" y="300.0" type="line"/>
      <point x="426.67358028470846" y="1156.0" type="line"/>
      <point x="451.8718812184295" y="1156.0" type="line"/>
      <point x="451.8718812184295" y="300.0" type="line"/>
    </contour>
  </outline>
</glyph>
<glyph name="kaverticalstrokecyr" format="2">
  <advance width="998.659421399051"/>
  <unicode hex="049D"/>
  <guideline x="547.0" y="651.0" angle="90.0" identifier="ATaXbxe4rK"/>
  <outline>
    <contour>
      <point x="358.4148170825042" y="716.0" type="line"/>
      <point x="358.4148170825042" y="200.0" type="line"/>
      <point x="348.05311495484466" y="200.0" type="line"/>
      <point x="348.05311495484466" y="716.0" type="line"/>
    </contour>
    <contour>
      <point x="218.05311495484466" y="916.0" type="line"/>
      <point x="218.05311495484466" y="0.0" type="line"/>
      <point x="185.5" y="0.0" type="line"/>
      <point x="185.5" y="916.0" type="line"/>
    </contour>
    <contour>
      <point x="846.0743915505893" y="0.0" type="line"/>
      <point x="400.353053727231" y="476.4234654829328" type="line"/>
      <point x="423.61680697994797" y="481.06176335527323" type="line"/>
      <point x="881.4360171437319" y="0.0" type="line"/>
    </contour>
    <contour>
      <point x="354.70329456247106" y="481.6103896103896" type="line"/>
      <point x="418.651666563958" y="481.6103896103896" type="line"/>
      <point x="831.1191990314904" y="916.0" type="line"/>
      <point x="844.4698483821398" y="916.0" type="line"/>
      <point x="416.0594587717502" y="471.02597402597405" type="line"/>
      <point x="354.70329456247106" y="471.02597402597405" type="line"/>
    </contour>
  </outline>
</glyph>
<glyph name="kabashkircyr" format="2">
  <advance width="1146.2428440226543"/>
  <unicode hex="04A1"/>
  <outline>
    <contour>
      <point x="985.5938601426126" y="0.0" type="line"/>
      <point x="531.308753759634" y="456.95744680851067" type="line"/>
      <point x="550.6151844481861" y="461.5957446808511" type="line"/>
      <point x="1016.0832695545691" y="0.0" type="line"/>
    </contour>
    <contour>
      <point x="368.54538445176433" y="465.0519480519481" type="line"/>
      <point x="545.8158356873495" y="465.0519480519481" type="line"/>
      <point x="999.9898616613755" y="916.0" type="line"/>
      <point x="1013.4444071159209" y="916.0" type="line"/>
      <point x="543.2496019211158" y="454.46753246753246" type="line"/>
      <point x="368.54538445176433" y="454.46753246753246" type="line"/>
    </contour>
    <contour>
      <point x="385.8444818613195" y="916.0" type="line"/>
      <point x="385.8444818613195" y="0.0" type="line"/>
      <point x="358.47402597402595" y="0.0" type="line"/>
      <point x="358.47402597402595" y="905.4155844155844" type="line"/>
      <point x="67.5" y="905.4155844155844" type="line"/>
      <point x="67.5" y="916.0" type="line"/>
    </contour>
  </outline>
</glyph>
<glyph name="ustraight" format="2">
  <advance width="909.5872493494567"/>
  <unicode hex="04AF"/>
  <outline>
    <contour>
      <point x="434.5951396070636" y="-416.0000000000001" type="line"/>
      <point x="434.5951396070636" y="0.0" type="line"/>
      <point x="66.38237364961662" y="916.0" type="line"/>
      <point x="95.31738656233227" y="916.0" type="line"/>
      <point x="409.0195142219066" y="134.46382978723395" type="line" smooth="yes"/>
      <point x="425.03823762616196" y="95.82382978723412"/>
      <point x="445.9344078389281" y="29.357446808510637"/>
      <point x="454.82802486020466" y="4.463829787234115" type="qcurve"/>
      <point x="459.84930145594933" y="4.463829787234115" type="line"/>
      <point x="470.70036528573655" y="31.314893617021276"/>
      <point x="491.1324784790606" y="96.07936459537788"/>
      <point x="507.6152589027577" y="134.46382978723395" type="qcurve" smooth="yes"/>
      <point x="833.0195142219069" y="916.0" type="line"/>
      <point x="844.5939823070133" y="916.0" type="line"/>
      <point x="462.6790886899917" y="0.0" type="line"/>
      <point x="462.6790886899917" y="-416.0000000000001" type="line"/>
    </contour>
  </outline>
</glyph>
<glyph name="Cheverticalstroke-cy" format="2">
  <advance width="1138.7500382672586"/>
  <unicode hex="04B8"/>
  <outline>
    <contour>
      <point x="563.0771467932037" y="1106.0" type="line"/>
      <point x="563.0771467932037" y="250.0" type="line"/>
      <point x="552.6090616868207" y="250.0" type="line"/>
      <point x="552.6090616868207" y="1106.0" type="line"/>
    </contour>
    <contour>
      <point x="207.37501913362928" y="1032.0" type="line" smooth="yes"/>
      <point x="207.37501913362928" y="812.1168831168832"/>
      <point x="329.24514900375914" y="586.922077922078"/>
      <point x="507.76462952323965" y="586.922077922078" type="qcurve" smooth="yes"/>
      <point x="603.816857870432" y="586.922077922078"/>
      <point x="776.2154585809109" y="605.6754648229468"/>
      <point x="916.1998604487508" y="629.7538073437354" type="qcurve"/>
      <point x="916.1998604487508" y="619.8057553956835" type="line"/>
      <point x="775.332341697794" y="595.7014388489208"/>
      <point x="593.4139801725903" y="576.0"/>
      <point x="504.56926373794585" y="576.0" type="qcurve" smooth="yes"/>
      <point x="316.31738864227765" y="576.0"/>
      <point x="177.5" y="805.5971223021583"/>
      <point x="177.5" y="1036.4028776978416" type="qcurve" smooth="yes"/>
      <point x="177.5" y="1456.0" type="line"/>
      <point x="207.37501913362928" y="1456.0" type="line"/>
    </contour>
    <contour>
      <point x="931.2500382672586" y="1456.0" type="line"/>
      <point x="931.2500382672586" y="0.0" type="line"/>
      <point x="901.3750191336293" y="0.0" type="line"/>
      <point x="901.3750191336293" y="1456.0" type="line"/>
    </contour>
  </outline>
</glyph>
<glyph name="Germandbls" format="2">
  <advance width="1186.1783254247664"/>
  <unicode hex="1E9E"/>
  <outline>
    <contour>
      <point x="212.56382978723406" y="1062.4928057553957" type="line" smooth="yes"/>
      <point x="212.56382978723406" y="1266.0212765957447"/>
      <point x="341.7271544466554" y="1510.9787234042553"/>
      <point x="486.50543395071173" y="1510.9787234042553" type="qcurve" smooth="yes"/>
      <point x="662.9171896525334" y="1510.9787234042553"/>
      <point x="802.8485381907241" y="1354.8297872340424"/>
      <point x="802.8485381907241" y="1229.3191489361702" type="qcurve" smooth="yes"/>
      <point x="802.8485381907241" y="1172.340425531915"/>
      <point x="718.7051125057401" y="1062.1496249808665"/>
      <point x="624.1395989591306" y="995.9162712383285" type="qcurve" smooth="yes"/>
      <point x="549.7806520740854" y="942.0006888106536"/>
      <point x="505.5466095208939" y="887.5737792744527"/>
      <point x="505.5466095208939" y="850.9354814021123" type="qcurve" smooth="yes"/>
      <point x="505.5466095208939" y="804.5099494872187"/>
      <point x="592.0998010102555" y="736.9135159957141"/>
      <point x="711.3544313485382" y="693.0830399510179" type="qcurve" smooth="yes"/>
      <point x="921.7435328333079" y="614.2580743915505"/>
      <point x="1068.6783254247664" y="459.7048829021889"/>
      <point x="1068.6783254247664" y="329.70350528088164" type="qcurve" smooth="yes"/>
      <point x="1068.6783254247664" y="176.29787234042553"/>
      <point x="914.5952854737487" y="-30.0"/>
      <point x="775.4106842185826" y="-30.0" type="qcurve" smooth="yes"/>
      <point x="615.3722638910149" y="-30.0"/>
      <point x="432.9295882442982" y="137.31914893617022"/>
      <point x="432.9295882442982" y="337.02127659574467" type="qcurve" smooth="yes"/>
      <point x="432.9295882442982" y="350.0" type="line"/>
      <point x="444.09980101025565" y="350.0" type="line"/>
      <point x="444.09980101025565" y="337.02127659574467" type="line" smooth="yes"/>
      <point x="444.09980101025565" y="143.41143962420557"/>
      <point x="615.0528267079621" y="-18.89610389610388"/>
      <point x="764.8019286698301" y="-18.89610389610388" type="qcurve" smooth="yes"/>
      <point x="893.2349212092056" y="-18.89610389610388"/>
      <point x="1040.0998010102555" y="179.7209173804918"/>
      <point x="1040.0998010102555" y="330.0" type="qcurve" smooth="yes"/>
      <point x="1040.0998010102555" y="459.29787234042556"/>
      <point x="897.3338435634471" y="609.0851063829787"/>
      <point x="706.7593754783406" y="680.8936170212766" type="qcurve" smooth="yes"/>
      <point x="584.4615031379152" y="727.7021276595744"/>
      <point x="493.8870350528088" y="799.1489361702128"/>
      <point x="493.8870350528088" y="849.5957446808511" type="qcurve" smooth="yes"/>
      <point x="493.8870350528088" y="889.3191489361702"/>
      <point x="539.5040563294046" y="947.8936170212766"/>
      <point x="613.9295882442982" y="1004.1276595744681" type="qcurve" smooth="yes"/>
      <point x="698.610439308128" y="1067.8297872340427"/>
      <point x="774.3125669677024" y="1173.9574468085107"/>
      <point x="774.3125669677024" y="1229.0" type="qcurve" smooth="yes"/>
      <point x="774.3125669677024" y="1348.2340425531916"/>
      <point x="646.8845481779814" y="1499.948051948052"/>
      <point x="482.1918153788657" y="1499.948051948052" type="qcurve" smooth="yes"/>
      <point x="360.17551253277566" y="1499.948051948052"/>
      <point x="241.0359712230216" y="1267.1934235976787"/>
      <point x="241.0359712230216" y="1065.3617021276596" type="qcurve" smooth="yes"/>
      <point x="241.0359712230216" y="319.35825807439153" type="line" smooth="yes"/>
      <point x="241.0359712230216" y="145.5525026787081"/>
      <point x="182.95155365069647" y="-16.0"/>
      <point x="114.61870503597122" y="-16.0" type="qcurve" smooth="yes"/>
      <point x="98.81294964028777" y="-16.0"/>
      <point x="65.5" y="-14.0"/>
      <point x="52.5" y="-12.0" type="qcurve"/>
      <point x="52.44805194805195" y="-1.376623376623371" type="line"/>
      <point x="59.5" y="-2.4285714285714164"/>
      <point x="79.20143884892087" y="-4.428571428571416"/>
      <point x="106.43534523030925" y="-4.428571428571416" type="qcurve" smooth="yes"/>
      <point x="159.88975053723257" y="-4.428571428571416"/>
      <point x="212.56382978723406" y="153.93506493506493"/>
      <point x="212.56382978723406" y="355.0" type="qcurve" smooth="yes"/>
    </contour>
  </outline>
</glyph>
<glyph name="horizontalbar" format="2">
  <advance width="552.7912903719578"/>
  <unicode hex="2015"/>
  <anchor x="271.0023725700291" y="708.0" name="_center"/>
  <outline>
    <contour>
      <point x="57.5" y="702.9480519480519" type="line"/>
      <point x="57.5" y="714.077922077922" type="line"/>
      <point x="484.29129037195776" y="714.077922077922" type="line"/>
      <point x="484.29129037195776" y="702.9480519480519" type="line"/>
    </contour>
  </outline>
</glyph>
<glyph name="quoteleft" format="2">
  <advance width="502.5359712230216"/>
  <unicode hex="2018"/>
  <outline>
    <contour>
      <point x="218.56382978723406" y="1066.6870503597122" type="line"/>
      <point x="218.56382978723406" y="1189.7913669064749" type="line" smooth="yes"/>
      <point x="218.56382978723406" y="1283.2985611510792"/>
      <point x="277.61856488834906" y="1456.2859945809585"/>
      <point x="369.7372699243203" y="1522.8831168831168" type="qcurve"/>
      <point x="376.3606465476969" y="1518.064935064935" type="line"/>
      <point x="294.28880349713046" y="1447.2229897761813"/>
      <point x="247.82320526557479" y="1273.7913669064749"/>
      <point x="246.84448186131948" y="1192.7913669064749" type="qcurve" smooth="yes"/>
      <point x="246.84448186131948" y="1066.6870503597122" type="line"/>
    </contour>
  </outline>
</glyph>
<glyph name="quotesinglbase" format="2">
  <advance width="502.5359712230216"/>
  <unicode hex="201A"/>
  <outline>
    <contour>
      <point x="283.9768388660169" y="219.46188581050055" type="line"/>
      <point x="283.9768388660169" y="98.81818181818181" type="line" smooth="yes"/>
      <point x="283.9768388660169" y="8.818181818181818"/>
      <point x="222.1163483692184" y="-163.4678127627768"/>
      <point x="131.85064935064935" y="-230.06493506493507" type="qcurve"/>
      <point x="126.18002210555403" y="-225.24675324675326" type="line"/>
      <point x="207.29911577783918" y="-154.40480795799945"/>
      <point x="255.67021276595744" y="14.818181818181818"/>
      <point x="256.6489361702128" y="95.81818181818181" type="qcurve" smooth="yes"/>
      <point x="256.6489361702128" y="219.46188581050055" type="line"/>
    </contour>
  </outline>
</glyph>
<glyph name="quotedblleft" format="2">
  <advance width="939.3705035971223"/>
  <unicode hex="201C"/>
  <outline>
    <contour>
      <point x="218.56382978723406" y="1066.6870503597122" type="line"/>
      <point x="218.56382978723406" y="1194.0" type="line" smooth="yes"/>
      <point x="218.56382978723406" y="1284.7014388489208"/>
      <point x="276.21568719050737" y="1455.5845557320376"/>
      <point x="369.7372699243203" y="1522.8831168831168" type="qcurve"/>
      <point x="376.3606465476969" y="1518.064935064935" type="line"/>
      <point x="294.28880349713046" y="1447.2229897761813"/>
      <point x="247.82320526557479" y="1278.0"/>
      <point x="246.84448186131948" y="1197.0" type="qcurve" smooth="yes"/>
      <point x="246.84448186131948" y="1066.6870503597122" type="line"/>
    </contour>
    <contour>
      <point x="656.0998010102555" y="1066.6870503597122" type="line"/>
      <point x="656.0998010102555" y="1194.0" type="line" smooth="yes"/>
      <point x="656.0998010102555" y="1284.7014388489208"/>
      <point x="715.8559749602915" y="1456.2859945809585"/>
      <point x="806.571802298421" y="1522.8831168831168" type="qcurve"/>
      <point x="813.1951789217976" y="1518.064935064935" type="line"/>
      <point x="731.1233358712311" y="1447.2229897761813"/>
      <point x="684.6577376396755" y="1278.0"/>
      <point x="683.6790142354201" y="1197.0" type="qcurve" smooth="yes"/>
      <point x="683.6790142354201" y="1066.6870503597122" type="line"/>
    </contour>
  </outline>
</glyph>
<glyph name="quotedblright" format="2">
  <advance width="939.3705035971223"/>
  <unicode hex="201D"/>
  <outline>
    <contour>
      <point x="286.90831164855354" y="1456.0" type="line"/>
      <point x="286.90831164855354" y="1335.3562960076813" type="line" smooth="yes"/>
      <point x="286.90831164855354" y="1243.9534183098397"/>
      <point x="224.34638230283417" y="1073.7717402756437"/>
      <point x="134.78212213318596" y="1006.4731791245644" type="qcurve"/>
      <point x="129.11149488809065" y="1011.2913609427463" type="line"/>
      <point x="210.2305885603758" y="1082.1333062315"/>
      <point x="258.60168554849406" y="1251.3562960076813"/>
      <point x="259.58040895274934" y="1332.3562960076813" type="qcurve" smooth="yes"/>
      <point x="259.58040895274934" y="1456.0" type="line"/>
    </contour>
    <contour>
      <point x="723.7428440226541" y="1456.0" type="line"/>
      <point x="723.7428440226541" y="1335.3562960076813" type="line" smooth="yes"/>
      <point x="723.7428440226541" y="1245.3562960076813"/>
      <point x="659.7780369790931" y="1073.0703014267228"/>
      <point x="572.3180933562076" y="1006.4731791245644" type="qcurve"/>
      <point x="566.6474661111122" y="1011.2913609427463" type="line"/>
      <point x="647.7665597833974" y="1082.1333062315"/>
      <point x="696.1376567715156" y="1251.3562960076813"/>
      <point x="697.1163801757709" y="1332.3562960076813" type="qcurve" smooth="yes"/>
      <point x="697.1163801757709" y="1456.0" type="line"/>
    </contour>
  </outline>
</glyph>
<glyph name="dagger" format="2">
  <advance width="950.4912903719578"/>
  <unicode hex="2020"/>
  <outline>
    <contour>
      <point x="111.6" y="933.8181818181818" type="line"/>
      <point x="111.6" y="945.1298701298701" type="line"/>
      <point x="837.3912903719578" y="945.1298701298701" type="line"/>
      <point x="837.3912903719578" y="933.8181818181818" type="line"/>
    </contour>
    <contour>
      <point x="458.21702127659574" y="8.0" type="line"/>
      <point x="458.6638297872341" y="748.0" type="line"/>
      <point x="458.6638297872341" y="905.0" type="line"/>
      <point x="458.30212765957447" y="1508.0" type="line"/>
      <point x="486.7529924996174" y="1508.0" type="line"/>
      <point x="486.3912903719578" y="905.0" type="line"/>
      <point x="486.3912903719578" y="748.0" type="line"/>
      <point x="489.77426909536206" y="8.0" type="line"/>
      <point x="489.6891627123833" y="-264.1798561151079" type="line"/>
      <point x="474.82508801469464" y="-415.0"/>
      <point x="471.7846012551661" y="-416.0"/>
      <point x="458.30212765957447" y="-264.1798561151079" type="qcurve"/>
    </contour>
  </outline>
</glyph>
<glyph name="bullet" format="2">
  <advance width="434.2340425531915"/>
  <unicode hex="2022"/>
  <outline>
    <contour>
      <point x="141.5" y="773.9787234042553" type="qcurve" smooth="yes"/>
      <point x="141.5" y="803.8510638297872"/>
      <point x="184.09574468085106" y="849.5957446808511"/>
      <point x="217.11702127659575" y="849.5957446808511" type="qcurve" smooth="yes"/>
      <point x="250.13829787234044" y="849.5957446808511"/>
      <point x="292.7340425531915" y="803.8510638297872"/>
      <point x="292.7340425531915" y="773.9787234042553" type="qcurve" smooth="yes"/>
      <point x="292.7340425531915" y="744.1489361702128"/>
      <point x="250.13829787234044" y="698.4042553191489"/>
      <point x="217.11702127659575" y="698.4042553191489" type="qcurve" smooth="yes"/>
      <point x="184.09574468085106" y="698.4042553191489"/>
      <point x="141.5" y="744.1489361702128"/>
    </contour>
  </outline>
</glyph>
<glyph name="guilsinglleft" format="2">
  <advance width="558.5785244145109"/>
  <unicode hex="2039"/>
  <guideline y="901.0000000000002" identifier="Amp5Ormvx4"/>
  <guideline y="555.0000000000002" identifier="JDX5vz3jKp"/>
  <outline>
    <contour>
      <point x="145.5" y="546.468085106383" type="line"/>
      <point x="145.5" y="555.5531914893617" type="line"/>
      <point x="405.51657916551534" y="949.0" type="line"/>
      <point x="434.0785244145109" y="949.0" type="line"/>
      <point x="176.07852441451095" y="551.0" type="line"/>
      <point x="434.0785244145109" y="153.0" type="line"/>
      <point x="405.51657916551534" y="153.0" type="line"/>
    </contour>
  </outline>
</glyph>
<glyph name="dong" format="2">
  <advance width="779.0726312566967"/>
  <unicode hex="20AB"/>
  <outline>
    <contour>
      <point x="52.5" y="480.0" type="qcurve" smooth="yes"/>
      <point x="52.5" y="492.0" type="line" smooth="yes"/>
      <point x="52.5" y="717.9148936170212"/>
      <point x="184.72508801469462" y="992.0"/>
      <point x="324.98055526289113" y="992.0" type="qcurve" smooth="yes"/>
      <point x="392.6756467166692" y="992.0"/>
      <point x="544.9295882442982" y="925.0"/>
      <point x="591.9295882442982" y="868.0" type="qcurve"/>
      <point x="591.9295882442982" y="1456.0" type="line"/>
      <point x="619.3598652992499" y="1456.0" type="line"/>
      <point x="619.3598652992499" y="0.0" type="line"/>
      <point x="592.3125669677024" y="0.0" type="line"/>
      <point x="592.142354201745" y="137.0" type="line"/>
      <point x="595.9295882442982" y="137.0" type="line"/>
      <point x="555.9295882442982" y="72.0"/>
      <point x="392.6756467166692" y="-20.0"/>
      <point x="308.1812993374298" y="-20.0" type="qcurve" smooth="yes"/>
      <point x="179.83147099341804" y="-20.0"/>
      <point x="52.5" y="228.48936170212767"/>
    </contour>
    <contour>
      <point x="80.9295882442982" y="480.0" type="line" smooth="yes"/>
      <point x="80.9295882442982" y="234.02597402597402"/>
      <point x="194.07852441451095" y="-9.233766233766232"/>
      <point x="314.0785244145109" y="-9.233766233766232" type="qcurve" smooth="yes"/>
      <point x="393.8837192197057" y="-9.233766233766232"/>
      <point x="552.1633544780644" y="81.28571428571428"/>
      <point x="591.9295882442982" y="146.41558441558442" type="qcurve"/>
      <point x="591.9295882442982" y="854.3506493506493" type="line"/>
      <point x="542.4230947378047" y="914.6103896103896"/>
      <point x="395.83177116775767" y="981.2337662337662"/>
      <point x="331.9083116485535" y="981.2337662337662" type="qcurve" smooth="yes"/>
      <point x="196.04066865325095" y="981.2337662337662"/>
      <point x="80.9295882442982" y="709.012987012987"/>
      <point x="80.9295882442982" y="492.0" type="qcurve" smooth="yes"/>
    </contour>
    <contour>
      <point x="738.5726312566967" y="1225.155844155844" type="line"/>
      <point x="164.95981937853972" y="1225.155844155844" type="line"/>
      <point x="164.95981937853972" y="1235.7662337662337" type="line"/>
      <point x="738.5726312566967" y="1235.7662337662337" type="line"/>
    </contour>
    <contour>
      <point x="688.5726312566967" y="-138.4025974025974" type="line"/>
      <point x="80.58510638297872" y="-138.4025974025974" type="line"/>
      <point x="80.58510638297872" y="-128.0" type="line"/>
      <point x="688.5726312566967" y="-128.0" type="line"/>
    </contour>
  </outline>
</glyph>
